<svg width="50" height="51" viewBox="0 0 50 51" fill="none" xmlns="http://www.w3.org/2000/svg">
<path fill-rule="evenodd" clip-rule="evenodd" d="M24.5612 10.2861C23.768 11.7345 23.145 13.3211 22.8244 15.0335C21.9389 13.5346 20.8074 12.2565 19.567 11.1652C19.8695 9.1878 20.4741 7.32028 21.1677 5.66794C22.3939 6.9839 23.5989 8.53051 24.5612 10.2861ZM29.557 11.1652C28.3139 12.2565 27.1828 13.5346 26.3003 15.0335C25.9769 13.3211 25.3564 11.7345 24.5612 10.2861C25.5219 8.53051 26.732 6.9839 27.954 5.66794C28.648 7.31751 29.2552 9.1878 29.557 11.1652ZM33.9459 13.7009C34.3429 11.7373 34.4143 9.77375 34.3221 7.9815C32.7259 8.80109 31.0582 9.84671 29.557 11.1652C29.8052 12.7993 29.8505 14.5048 29.5653 16.2183C30.9106 15.1159 32.409 14.3002 33.9459 13.7009ZM37.2079 17.5818C35.5571 17.6181 33.8682 17.8736 32.2262 18.4515C33.079 16.9363 33.6242 15.3197 33.9459 13.7009C35.8141 12.9709 37.7358 12.5624 39.5157 12.3403C38.9914 14.0502 38.2502 15.8708 37.2079 17.5818ZM38.9426 22.3408C37.3769 21.8134 35.7041 21.4741 33.9611 21.4563C35.2856 20.3257 36.3489 18.9917 37.2079 17.5818C39.2121 17.537 41.1598 17.8055 42.9077 18.2059C41.8261 19.6331 40.5044 21.0906 38.9426 22.3408ZM38.9426 27.4098C37.6526 26.378 36.1964 25.4864 34.5657 24.8753C36.1964 24.2641 37.6526 23.3753 38.9426 22.3408C40.8395 22.9819 42.5781 23.9054 44.084 24.8753C42.5781 25.8493 40.8395 26.7686 38.9426 27.4098ZM37.2079 32.1715C36.3489 30.7622 35.2856 29.4248 33.9611 28.2958C35.7041 28.2778 37.3769 27.9373 38.9426 27.4098C40.5044 28.6606 41.8261 30.116 42.9077 31.5461C41.1598 31.9468 39.2121 32.2174 37.2079 32.1715ZM33.9459 36.0497C33.6242 34.4308 33.079 32.8147 32.2262 31.3004C33.8682 31.8783 35.5571 32.1325 37.2079 32.1715C38.2502 33.8795 38.9914 35.7003 39.5157 37.4129C37.7358 37.1925 35.8141 36.7781 33.9459 36.0497ZM29.557 38.5867C29.8052 36.9512 29.8505 35.2471 29.5653 33.5336C30.9106 34.6363 32.409 35.4512 33.9459 36.0497C34.3429 38.0144 34.4143 39.9756 34.3221 41.7688C32.7259 40.9508 31.0582 39.9038 29.557 38.5867ZM24.5612 39.4631C25.3564 38.0144 25.9769 36.4281 26.3003 34.7185C27.1828 36.2157 28.3139 37.4954 29.557 38.5867C29.2552 40.5655 28.6485 42.4316 27.954 44.084C26.732 42.768 25.5219 41.2186 24.5612 39.4631ZM19.567 38.5867C20.8074 37.4954 21.9389 36.2157 22.8244 34.7185C23.145 36.4281 23.768 38.0144 24.5612 39.4631C23.5989 41.2186 22.3939 42.768 21.1677 44.084C20.4741 42.4316 19.8695 40.5655 19.567 38.5867ZM15.1744 36.0497C16.7124 35.4512 18.2132 34.6363 19.5601 33.5336C19.2751 35.2458 19.3158 36.9512 19.567 38.5867C18.0642 39.9038 16.396 40.9508 14.8005 41.7688C14.7083 39.9756 14.7806 38.0144 15.1744 36.0497ZM11.9156 32.1715C13.5652 32.1325 15.2562 31.8783 16.9001 31.3004C16.0411 32.8147 15.5003 34.4308 15.1744 36.0497C13.3083 36.7781 11.3873 37.1883 9.60735 37.4129C10.1352 35.7003 10.8752 33.8795 11.9156 32.1715ZM10.1807 27.4098C11.7437 27.9387 13.4176 28.2778 15.1599 28.2958C13.8373 29.4248 12.7721 30.7622 11.9156 32.1715C9.91263 32.2174 7.9635 31.9468 6.21311 31.5461C7.29838 30.1202 8.61591 28.6606 10.1807 27.4098ZM10.1807 22.3408C11.4712 23.3753 12.926 24.2641 14.5564 24.8753C12.926 25.4864 11.4712 26.378 10.1807 27.4098C8.28104 26.7686 6.54382 25.8493 5.03818 24.8753C6.54382 23.9054 8.28104 22.9819 10.1807 22.3408ZM11.9156 17.5818C12.7721 18.9917 13.8373 20.3257 15.1599 21.4563C13.4176 21.4741 11.7437 21.8134 10.1807 22.3408C8.61591 21.0906 7.29838 19.6331 6.21311 18.2059C7.9635 17.8055 9.91263 17.537 11.9156 17.5818ZM15.1744 13.7009C16.7124 14.3002 18.2132 15.1159 19.5601 16.2183C19.2751 14.5048 19.3158 12.7993 19.567 11.1652C18.0642 9.84671 16.396 8.80525 14.8005 7.98565C14.7083 9.77375 14.7806 11.7387 15.1744 13.7009ZM15.1744 13.7009C15.5003 15.3197 16.0411 16.9363 16.9001 18.4515C15.2562 17.8736 13.5652 17.6181 11.9156 17.5818C10.8752 15.8708 10.1352 14.0502 9.60735 12.3403C11.3873 12.5624 13.3083 12.9739 15.1744 13.7009Z" fill="#99CC00"/>
<path fill-rule="evenodd" clip-rule="evenodd" d="M24.8755 10.7061C25.6591 12.1443 26.2705 13.7196 26.589 15.4197C25.772 16.8068 25.1695 18.3848 24.8755 20.1746C24.5836 18.3848 23.9801 16.8068 23.1643 15.4197C23.4801 13.7196 24.094 12.1443 24.8755 10.7061ZM19.9478 16.5961C19.667 14.8948 19.7071 13.2015 19.9546 11.579C21.1768 12.6626 22.2917 13.9316 23.1643 15.4197C22.8705 17.0039 22.8359 18.6961 23.1711 20.4807C22.2903 18.8978 21.185 17.6206 19.9478 16.5961ZM17.3268 18.8135C16.4804 17.309 15.9476 15.704 15.6265 14.0966C17.1419 14.6917 18.6207 15.5016 19.9478 16.5961C20.2095 18.1911 20.7541 19.7904 21.6721 21.3478C20.3069 20.1705 18.8361 19.3499 17.3268 18.8135ZM15.6122 21.7969C14.309 20.6744 13.2595 19.3499 12.4156 17.95C14.041 17.986 15.7071 18.2397 17.3268 18.8135C18.1081 20.2189 19.1654 21.5365 20.5608 22.6831C18.8742 22.0424 17.213 21.7806 15.6122 21.7969ZM15.0176 25.1915C13.4111 24.5848 11.9777 23.7022 10.7061 22.6751C12.2461 22.1515 13.8955 21.8145 15.6122 21.7969C16.8295 22.8468 18.2659 23.7185 19.9683 24.3212C18.1657 24.298 16.5185 24.6235 15.0176 25.1915ZM15.6122 28.5878C13.8955 28.5699 12.2461 28.2332 10.7061 27.708C11.9777 26.6836 13.4111 25.7983 15.0176 25.1915C16.5185 25.758 18.1657 26.0871 19.9683 26.0633C18.2659 26.6632 16.8295 27.5363 15.6122 28.5878ZM17.3268 31.571C15.7071 32.1447 14.041 32.3971 12.4156 32.4359C13.2595 31.0366 14.309 29.7087 15.6122 28.5878C17.2144 28.6048 18.8742 28.3427 20.5608 27.7014C19.1654 28.8484 18.1081 30.1665 17.3268 31.571ZM19.9478 33.7883C18.6207 34.8831 17.1419 35.6923 15.6265 36.2864C15.9476 34.6791 16.4804 33.0745 17.3268 31.571C18.8361 31.0366 20.3069 30.2178 21.6739 29.035C20.7541 30.594 20.2095 32.1931 19.9478 33.7883ZM23.1643 34.9647C22.2917 36.4513 21.1768 37.7219 19.9546 38.8054C19.7071 37.1816 19.667 35.4883 19.9478 33.7883C21.185 32.7614 22.2903 31.4866 23.1711 29.9086C22.8359 31.6881 22.8705 33.3805 23.1643 34.9647ZM26.589 34.9647C26.2705 36.6621 25.6591 38.2372 24.8755 39.6756C24.094 38.2372 23.4801 36.6621 23.1643 34.9647C23.9801 33.5735 24.5836 31.9996 24.8755 30.211C25.1695 31.9996 25.772 33.5735 26.589 34.9647ZM29.8062 33.7883C30.0872 35.4896 30.0425 37.1816 29.798 38.8054C28.5731 37.7219 27.4587 36.4513 26.589 34.9647C26.8837 33.3805 26.9142 31.6881 26.5808 29.9086C27.4635 31.4866 28.5663 32.7614 29.8062 33.7883ZM32.428 31.571C33.2683 33.0745 33.8055 34.6791 34.1224 36.2864C32.6082 35.6923 31.1317 34.8831 29.8062 33.7883C29.5447 32.1931 28.9991 30.594 28.0765 29.035C29.445 30.2178 30.9156 31.0366 32.428 31.571ZM34.1375 28.5878C35.4425 29.7087 36.4902 31.0366 37.3366 32.4359C35.7101 32.3971 34.0459 32.1447 32.428 31.571C31.6406 30.1665 30.5836 28.8484 29.1909 27.7014C30.8782 28.3427 32.5364 28.6048 34.1375 28.5878ZM34.7332 25.1915C36.3399 25.7983 37.7747 26.6836 39.0458 27.708C37.5031 28.2318 35.8549 28.5699 34.1375 28.5878C32.9204 27.5363 31.4814 26.6632 29.7825 26.0605C31.583 26.0871 33.2332 25.758 34.7332 25.1915ZM34.1375 21.7969C35.8549 21.8145 37.5031 22.1515 39.0458 22.6751C37.7747 23.7022 36.3399 24.5848 34.7332 25.1915C33.2332 24.6235 31.583 24.298 29.7825 24.3212C31.4814 23.7185 32.9204 22.8468 34.1375 21.7969ZM34.1375 21.7969C32.5364 21.7806 30.8782 22.0424 29.1895 22.6831C30.5836 21.5365 31.6406 20.2189 32.428 18.8135C34.0459 18.2397 35.7101 17.986 37.3366 17.95C36.4902 19.3499 35.4425 20.6744 34.1375 21.7969ZM29.8062 16.5961C28.5663 17.6206 27.4635 18.8978 26.5808 20.4807C26.9142 18.6961 26.8837 17.0039 26.589 15.4197C27.4587 13.9316 28.5731 12.6626 29.798 11.579C30.0425 13.2015 30.0872 14.8948 29.8062 16.5961ZM29.8062 16.5961C29.5447 18.1911 28.9991 19.7904 28.0765 21.352C29.445 20.1705 30.9156 19.3499 32.428 18.8135C33.2683 17.309 33.8055 15.704 34.1224 14.0966C32.6082 14.6917 31.1317 15.5016 29.8062 16.5961Z" fill="#FADE57"/>
<path fill-rule="evenodd" clip-rule="evenodd" d="M22.819 20.1697C21.9187 18.5887 20.7888 17.3128 19.5242 16.2896C19.7917 17.8827 20.3485 19.4803 21.2867 21.0359C19.8913 19.8599 18.3879 19.0402 16.8452 18.5044C17.6438 19.9082 18.7245 21.2243 20.1508 22.3696C18.4268 21.7297 16.7288 21.4682 15.0925 21.4844C16.3368 22.5331 17.8051 23.4039 19.5452 24.0059C17.7027 23.9827 16.0189 24.3079 14.4847 24.8753C16.0189 25.4411 17.7027 25.7699 19.5452 25.746C17.8051 26.3453 16.3368 27.2174 15.0925 28.2677C16.7302 28.2846 18.4268 28.0229 20.1508 27.3823C18.7245 28.528 17.6438 29.8446 16.8452 31.2475C18.3879 30.7138 19.8913 29.8959 21.2886 28.7144C20.3485 30.2716 19.7917 31.8689 19.5242 33.4623C20.7888 32.4365 21.9187 31.1632 22.819 29.587C22.4764 31.3645 22.5117 33.055 22.812 34.6374C23.646 33.2478 24.2628 31.6757 24.5612 29.889C24.8617 31.6757 25.4776 33.2478 26.3127 34.6374C26.6139 33.055 26.6451 31.3645 26.3043 29.587C27.2065 31.1632 28.3338 32.4365 29.6012 33.4623C29.334 31.8689 28.7763 30.2716 27.8331 28.7144C29.232 29.8959 30.7352 30.7138 32.2812 31.2475C31.4763 29.8446 30.3958 28.528 28.9722 27.3823C30.697 28.0229 32.392 28.2846 34.0285 28.2677C32.7844 27.2174 31.3136 26.3453 29.577 25.7433C31.4174 25.7699 33.1042 25.4411 34.6374 24.8753C33.1042 24.3079 31.4174 23.9827 29.577 24.0059C31.3136 23.4039 32.7844 22.5331 34.0285 21.4844C32.392 21.4682 30.697 21.7297 28.9708 22.3696C30.3958 21.2243 31.4763 19.9082 32.2812 18.5044C30.7352 19.0402 29.232 19.8599 27.8331 21.04C28.7763 19.4803 29.334 17.8827 29.6012 16.2896C28.3338 17.3128 27.2065 18.5887 26.3043 20.1697C26.6451 18.3872 26.6139 16.6969 26.3127 15.1145C25.4776 16.5 24.8617 18.0762 24.5612 19.864C24.2628 18.0762 23.646 16.5 22.812 15.1145C22.5117 16.6969 22.4764 18.3872 22.819 20.1697" fill="#FFFFFE"/>
<path fill-rule="evenodd" clip-rule="evenodd" d="M24.9482 0.109695V0.109699C25.5969 1.07768 27.0584 3.25842 28.2561 6.08122C27.0381 7.39049 25.8321 8.92923 24.8747 10.6758C23.9156 8.92923 22.7147 7.39049 21.4926 6.08122C22.691 3.25851 24.1524 1.07782 24.8012 0.109793L24.8747 0L24.9482 0.109695ZM15.1469 8.38715C15.3012 5.32232 15.9273 2.7735 16.2048 1.64386L16.2354 1.51898L16.3467 1.60041C17.291 2.29114 19.4088 3.84013 21.4926 6.08122C20.8014 7.72516 20.1989 9.58318 19.8974 11.5505C18.3995 10.2387 16.7371 9.20257 15.1469 8.38715ZM9.97125 12.7197C9.05921 9.77082 8.77616 7.14895 8.65229 6.00159L8.64066 5.89402L8.78714 5.93679C9.91728 6.26636 12.4283 6.9986 15.1469 8.38715C15.055 10.1661 15.1271 12.1211 15.5196 14.0733C13.6597 13.35 11.7452 12.9407 9.97125 12.7197ZM6.58846 18.5554C4.72571 16.0943 3.55938 13.7283 3.04895 12.6928L3.00045 12.5945L3.14746 12.585C4.32146 12.5089 6.93489 12.3393 9.97125 12.7197C10.4973 14.4208 11.2348 16.2322 12.2717 17.9345C10.2755 17.8899 8.33294 18.1571 6.58846 18.5554ZM5.41748 25.1908C2.85155 23.5348 0.960463 21.7317 0.109756 20.9206H0.109753L0.109748 20.9206L0.109718 20.9206L0.109715 20.9206L0.109699 20.9206L0 20.816L0.148933 20.7509C1.23142 20.2773 3.62033 19.2319 6.58846 18.5554C7.67007 19.9753 8.98315 21.4254 10.5427 22.6692C8.64941 23.3071 6.91806 24.2259 5.41748 25.1908ZM6.58846 31.8277C3.61795 31.1506 1.22759 30.1047 0.146332 29.6317L0 29.5677L0.104458 29.468C0.952593 28.6575 2.84621 26.8479 5.41748 25.1908C6.91806 26.1599 8.64941 27.0746 10.5427 27.7125C8.98315 28.9569 7.67007 30.4091 6.58846 31.8277ZM6.58846 31.8277C8.33294 32.2265 10.2755 32.4957 12.2717 32.4499C11.2348 34.1492 10.4973 35.9609 9.97125 37.6647C6.96496 38.0392 4.37327 37.8762 3.18276 37.8013L3.00045 37.7899L3.04831 37.6928C3.55841 36.6566 4.72493 34.2869 6.58846 31.8277ZM34.6027 8.38301C34.4487 5.32414 33.8229 2.77679 33.5451 1.64605C33.5342 1.60148 33.5238 1.5591 33.514 1.51898C33.4717 1.55004 33.4264 1.58327 33.3782 1.61865C32.4244 2.31818 30.3226 3.85965 28.2561 6.08122C28.9478 7.7224 29.5528 9.58318 29.8536 11.5505C31.3498 10.2387 33.0119 9.19843 34.6027 8.38301ZM39.7788 12.7197C38.0048 12.9407 36.0897 13.347 34.2277 14.0733C34.6234 12.1197 34.6946 10.1661 34.6027 8.38301C37.3345 6.98927 39.8565 6.2578 40.9802 5.93186L41.1106 5.89402L41.1008 5.98425C40.9782 7.12237 40.6946 9.75587 39.7788 12.7197ZM43.1593 18.5554C41.4174 18.1571 39.4762 17.8899 37.4788 17.9345C38.5176 16.2322 39.2562 14.4208 39.7788 12.7197C42.8037 12.3409 45.409 12.5075 46.5906 12.5831L46.7519 12.5934L46.6812 12.736C46.1572 13.7944 45.0015 16.1286 43.1593 18.5554ZM44.3317 25.1908C42.8309 24.2259 41.0981 23.3071 39.2076 22.6692C40.7641 21.4254 42.0814 19.9753 43.1593 18.5554C46.1186 19.2293 48.4996 20.2692 49.59 20.7454L49.7519 20.816L49.6427 20.92C48.7915 21.7309 46.8982 23.5344 44.3317 25.1908ZM43.1593 31.8277C42.0814 30.405 40.7641 28.9569 39.2076 27.7125C41.0981 27.0746 42.8309 26.1599 44.3317 25.1908C46.9035 26.8482 48.7993 28.6583 49.6479 29.4685L49.7519 29.5677L49.5926 29.6372L49.5925 29.6372C48.5033 30.1129 46.1209 31.1532 43.1593 31.8277ZM39.7788 37.6647C39.2562 35.9609 38.5176 34.1492 37.4788 32.4499C39.4762 32.4957 41.4174 32.2265 43.1593 31.8277C44.9993 34.2486 46.1544 36.5826 46.6793 37.6433L46.7519 37.7899L46.569 37.8013C45.3774 37.8762 42.7854 38.0391 39.7788 37.6647ZM34.6027 41.9984C34.6946 40.2144 34.6234 38.2631 34.2277 36.3084C36.0897 37.0331 38.0048 37.4454 39.7788 37.6647C40.6948 40.6294 40.9784 43.2622 41.1009 44.4L41.1009 44.4L41.1106 44.4893L40.957 44.4445C39.822 44.114 37.3159 43.3842 34.6027 41.9984ZM28.2561 44.3018C28.9482 42.6579 29.5528 40.8013 29.8536 38.8325C31.3498 40.1429 33.0119 41.1846 34.6027 41.9984C34.4483 45.066 33.8196 47.6188 33.5429 48.742L33.514 48.8597L33.4115 48.785C32.4741 48.1013 30.3471 46.5499 28.2561 44.3018ZM21.4926 44.3018C22.7147 42.9926 23.9156 41.4511 24.8747 39.7045C25.8321 41.4511 27.0381 42.9926 28.2561 44.3018C27.0631 47.115 25.6084 49.2864 24.9559 50.2604L24.8747 50.3817L24.7953 50.2631C24.1436 49.2903 22.6874 47.1163 21.4926 44.3018ZM15.1469 41.9984C15.3016 45.0678 15.9306 47.6218 16.207 48.744L16.2354 48.8597L16.3127 48.8035C17.2395 48.1295 19.3834 46.5704 21.4926 44.3018C20.8014 42.6579 20.1989 40.8013 19.8974 38.8325C18.3995 40.1429 16.7371 41.1846 15.1469 41.9984ZM15.1469 41.9984C15.055 40.2144 15.1271 38.2631 15.5196 36.3084C13.6597 37.0331 11.7452 37.4413 9.97125 37.6647C9.05895 40.6145 8.776 43.2357 8.65219 44.3827L8.64066 44.4893L8.80014 44.4427C9.93647 44.1113 12.4386 43.3817 15.1469 41.9984Z" fill="#009900"/>
</svg>
