<svg width="80" height="28" viewBox="0 0 80 28" fill="none" xmlns="http://www.w3.org/2000/svg">
<path fill-rule="evenodd" clip-rule="evenodd" d="M57.3431 2.98344C59.81 1.04667 62.8669 -0.00501282 66.0151 1.98352e-05C73.7402 1.98352e-05 80 6.19899 80 13.8484C80 21.4979 73.7402 27.6968 66.0151 27.6968C62.8669 27.702 59.8099 26.6503 57.3431 24.7134C54.8764 26.6503 51.8194 27.702 48.6712 27.6968C45.5233 27.7017 42.4665 26.65 39.9998 24.7134C37.5332 26.6503 34.4764 27.7021 31.3283 27.6968C28.1803 27.7017 25.1236 26.6501 22.6569 24.7134C20.1901 26.65 17.1334 27.7016 13.9854 27.6968C6.25984 27.6968 0 21.4974 0 13.8484C0 6.19854 6.26029 1.98352e-05 13.9854 1.98352e-05C17.1334 -0.00487525 20.1901 1.0468 22.6569 2.98344C25.1236 1.04686 28.1803 -0.00480405 31.3283 1.98352e-05C34.4764 -0.00526702 37.5332 1.04645 39.9998 2.98344C42.4665 1.04686 45.5233 -0.00480405 48.6712 1.98352e-05C51.8194 -0.00515527 54.8764 1.04654 57.3431 2.98344ZM13.9854 24.5241C16.3601 24.5241 18.5865 23.7385 20.3686 22.4512C18.4108 20.0027 17.3448 16.9715 17.3434 13.8484C17.3368 10.7242 18.4036 7.69058 20.3686 5.24614C18.5851 3.95838 16.3601 3.1723 13.9854 3.1723C8.02599 3.1723 3.20366 7.9474 3.20366 13.8484C3.20366 19.7495 8.02599 24.5241 13.9854 24.5241ZM22.6573 20.1916C21.2829 18.3572 20.543 16.1326 20.5475 13.8484C20.5417 11.5641 21.2818 9.33908 22.6573 7.50523C24.0326 9.33921 24.7726 11.5641 24.7671 13.8484C24.7715 16.1325 24.0315 18.3571 22.6573 20.1916ZM31.321 24.521C33.6202 24.5265 35.8604 23.8009 37.712 22.4512C35.754 20.0029 34.6881 16.9718 34.6867 13.8489C34.6802 10.7246 35.747 7.69103 37.712 5.24659C35.923 3.94261 33.7131 3.17636 31.321 3.17636C29.0265 3.17161 26.7913 3.89739 24.9451 5.24659C26.9101 7.69103 27.9769 10.7246 27.9703 13.8489C27.9691 16.9719 26.9031 20.0029 24.9451 22.4512C26.7914 23.8 29.0266 24.5256 31.321 24.521ZM39.9998 20.1916C38.6254 18.3572 37.8855 16.1326 37.8899 13.8484C37.8844 11.5641 38.6244 9.33918 39.9998 7.50523C41.3754 9.33907 42.1156 11.5641 42.1101 13.8484C42.1144 16.1326 41.3743 18.3573 39.9998 20.1916ZM48.6644 24.521C51.056 24.521 53.266 23.7556 55.0549 22.4512C53.0972 20.0028 52.0312 16.9718 52.0297 13.8489C52.0233 10.7246 53.0901 7.69116 55.0549 5.24659C53.266 3.94261 51.056 3.17636 48.6644 3.17636C46.2728 3.17636 44.077 3.94306 42.288 5.24659C44.253 7.69103 45.3198 10.7246 45.3133 13.8489C45.3122 16.9719 44.2462 20.003 42.288 22.4512C44.077 23.7543 46.2728 24.521 48.6644 24.521ZM57.3436 20.1916C55.9692 18.3572 55.2293 16.1326 55.2338 13.8484C55.2278 11.5641 55.9679 9.33899 57.3436 7.50523C58.7189 9.33921 59.4589 11.5641 59.4534 13.8484C59.4576 16.1325 58.7177 18.357 57.3436 20.1916ZM59.6319 22.4512C61.4135 23.7385 63.6394 24.5241 66.0151 24.5241C71.9736 24.5241 76.7968 19.749 76.7968 13.8489C76.7968 7.94785 71.9736 3.17275 66.0151 3.17275C63.6399 3.17275 61.4153 3.95928 59.6319 5.24659C61.5966 7.69116 62.6634 10.7247 62.6571 13.8489C62.6556 16.9718 61.5897 20.0028 59.6319 22.4512Z" fill="black"/>
</svg>
