<svg width="137" height="103" viewBox="0 0 137 103" fill="none" xmlns="http://www.w3.org/2000/svg">
<path d="M131.177 81.1733H130.321V80.7879H132.487V81.1733H131.631V83.5146H131.177V81.1733ZM135.597 80.7879V83.5146H135.164V81.1293L134.428 83.5146H134.008L133.277 81.1293V83.5146H132.851V80.7879H133.581L134.232 82.9253L134.893 80.7879H135.597ZM84.44 80.7866V96.7919H95.268V101.947H77.552V80.7866H84.44ZM90.2414 80.7866V85.5239H98.1414V101.947H105.024V85.5239H112.897V80.7866H90.2414ZM118.524 93.8546H124.613L121.569 86.5773L118.524 93.8546ZM125.712 80.7866L135.597 101.947H127.993L126.556 98.5026H116.573L115.135 101.947H107.895L117.801 80.7866H125.712ZM11.6294 93.8546H17.7147L14.6747 86.5773L11.6294 93.8546ZM59.248 93.8546H65.336L62.2934 86.5773L59.248 93.8546ZM66.4174 80.7866L76.3254 101.947H68.7214L67.2774 98.5026H57.3014L55.8574 101.947H44.0827L38.4547 94.3626L32.572 101.947H21.096L19.656 98.5026H9.68403L8.23737 101.947H1.00003L10.8934 80.7866H18.8L27.1347 98.5879L33.9894 90.5466L26.04 80.7866H34.3054L38.7187 86.6959L43.2734 80.7866H51.1107L43.216 90.4319L50.1174 98.7453L58.52 80.7866H66.4174ZM101.361 27.4893C96.6587 17.5386 88.9787 0.999935 68.3014 0.999935C47.624 0.999935 39.9427 17.5386 35.2414 27.4893C30.536 37.4426 14.5547 71.7493 14.5547 71.7493H59.64L61.124 58.9879H75.476L76.964 71.7493H122.048C122.048 71.7493 106.068 37.4426 101.361 27.4893V27.4893ZM62.6494 44.7426L66.0934 18.2426H70.508L73.9547 44.7426H62.6494Z" fill="#D8212F"/>
<path d="M90.6463 17.2599C90.6463 24.1132 84.7729 26.9492 84.7729 33.0905C84.7729 37.2785 86.2316 41.9159 86.7809 43.5839C87.3316 45.2479 95.1462 68.9679 95.1462 68.9679H117.434L97.9129 27.2038C97.4489 26.2318 96.0929 23.3826 94.5276 20.3986C92.3956 16.3279 89.6716 12.8972 89.6716 12.8972C89.6716 12.8972 90.6463 15.0119 90.6463 17.2599" fill="url(#paint0_linear)"/>
<path d="M38.1289 28.1865C36.8369 30.9705 34.5836 35.7999 32.0676 41.1839L19.0716 68.9665V68.9679H20.1943L33.0183 41.5678C36.1436 34.9078 38.7689 29.3478 39.3636 28.1865C41.0343 24.9118 49.5796 5.0452 68.5929 5.0452C81.0049 5.0452 88.3089 11.5732 89.4983 12.7252C84.5956 7.87322 78.2289 3.77722 68.5929 3.77722C49.5409 3.77722 42.4023 18.9838 38.1289 28.1865ZM89.6716 12.8972C89.6716 12.8972 89.6142 12.8372 89.4983 12.7252L89.6716 12.8972Z" fill="url(#paint1_linear)"/>
<defs>
<linearGradient id="paint0_linear" x1="76.8793" y1="58.7471" x2="115.428" y2="45.9236" gradientUnits="userSpaceOnUse">
<stop stop-color="#D8212F"/>
<stop offset="1" stop-color="white"/>
</linearGradient>
<linearGradient id="paint1_linear" x1="77.638" y1="7.69465" x2="31.362" y2="7.69465" gradientUnits="userSpaceOnUse">
<stop stop-color="#D8212F"/>
<stop offset="0.472773" stop-color="white"/>
<stop offset="1" stop-color="#D8212F"/>
</linearGradient>
</defs>
</svg>
