<svg width="67" height="40" viewBox="0 0 67 40" fill="none" xmlns="http://www.w3.org/2000/svg">
<path fill-rule="evenodd" clip-rule="evenodd" d="M10.8566 39.7438L19.1757 32.9864C20.0751 32.2818 20.4605 30.7762 20.4605 29.9755V23.6024H12.559V31.4492C12.559 32.8899 11.4348 33.5629 10.3427 33.5629C9.25061 33.5629 8.09428 32.7302 8.09428 31.4492V8.42274C8.09428 7.17374 9.25061 6.53323 10.3427 6.53323C11.6275 6.53323 12.559 7.17374 12.559 8.42274V16.6213H20.4605V9.83187C20.4605 3.17054 18.0837 0 10.1179 0C2.37734 0 0 3.17054 0 9.83187V29.976C0 36.6373 2.37734 39.7758 10.1179 39.7758C10.2265 39.7758 10.3427 39.7683 10.4627 39.7606H10.4628H10.4628C10.5911 39.7523 10.7239 39.7438 10.8566 39.7438ZM28.8118 1.21698H41.0175L47.6342 30.6805L34.9468 20.4323L34.7219 20.5925L22.1951 30.6805L28.8118 1.21698ZM34.7219 18.9912H32.345L34.7219 8.29463V8.32622L37.0993 18.9912H34.7219ZM51.9383 34.1393L59.2617 40H60.9641V8.58287H66.7778V1.21698H46.0924V8.58287H51.9383V34.1393Z" fill="black"/>
<path d="M35.3846 23.0769L15.3846 40H55.3846L35.3846 23.0769Z" fill="#FADF3C"/>
</svg>
