<svg width="240" height="60" viewBox="0 0 240 60" fill="none" xmlns="http://www.w3.org/2000/svg">
<path d="M221.051 14.2187H211.464V18.9694H221.051V48.0717C221.051 55.1978 223.171 59.0172 232.93 59.0172C234.967 59.0172 237.428 58.847 239.803 58.509V53.2478C238.614 53.503 236.664 53.756 233.61 53.756C228.519 53.756 227.331 51.9739 227.331 48.1567V18.9694H239.803V14.2187H227.331V0.304489H221.051V14.2187V14.2187ZM206.118 27.2843C205.354 18.0358 199.5 12.8597 185.16 12.8597C172.348 12.8597 166.155 18.2911 166.155 25.9254C166.155 33.7321 170.991 36.956 184.737 38.3127C198.484 39.6694 201.622 41.6217 201.622 46.0343C201.622 52.6523 195.683 54.4343 186.945 54.4343C175.661 54.4343 171.504 51.8888 170.4 44.5075H164.631C164.631 55.1127 172.946 59.6955 186.945 59.6955C200.774 59.6955 207.902 54.4366 207.902 45.6963C207.902 37.1261 202.303 34.7508 188.812 32.9687C175.406 31.1866 172.437 30.253 172.437 25.6724C172.437 19.5627 178.547 18.1209 185.163 18.1209C194.326 18.1209 198.739 20.1582 200.351 27.2843H206.118V27.2843ZM117.284 27.7948C117.71 20.7537 122.46 18.1231 132.387 18.1231C142.74 18.1231 146.98 20.4134 146.98 26.7784C146.98 31.106 145.283 31.8694 131.539 32.6328C121.867 33.1411 109.563 34.5 109.563 46.462C109.563 56.3888 119.149 59.6978 126.703 59.6978C141.128 59.6978 145.368 53.7582 147.32 50.8746H147.49C147.575 54.3537 147.913 58.6814 154.278 58.6814C156.316 58.6814 158.266 58.256 159.54 58.003V53.7605C158.436 53.8455 157.334 53.9306 156.231 53.9306C153.77 53.9306 152.752 52.6567 152.752 49.0097V25.9276C152.752 17.4425 147.32 12.862 132.557 12.862C117.455 12.862 112.449 18.5463 111.515 27.7948H117.284V27.7948ZM146.982 41.2836C146.982 50.362 137.055 54.9448 128.57 54.9448C121.782 54.9448 115.843 52.9075 115.843 46.0366C115.843 40.7754 120.085 38.5702 127.381 37.8918C139.939 36.7052 144.181 36.3649 146.982 34.5828V41.2836V41.2836ZM53.2254 36.2776C53.2254 48.5799 61.2851 59.6955 78.2552 59.6955C95.2232 59.6955 103.285 48.5821 103.285 36.2776C103.285 23.9754 95.2254 12.8597 78.2552 12.8597C61.2873 12.862 53.2254 23.9754 53.2254 36.2776V36.2776ZM59.5052 36.2776C59.5052 25.6724 66.3784 18.1209 78.2575 18.1209C90.1366 18.1209 97.0075 25.6724 97.0075 36.2776C97.0075 46.8828 90.1343 54.4343 78.2575 54.4343C66.3784 54.4366 59.5052 46.8851 59.5052 36.2776ZM41.0933 42.5575C39.4814 49.4306 34.3052 54.4366 25.0567 54.4366C13.0925 54.4366 6.47463 47.2254 6.47463 36.2799C6.47463 26.0978 12.4142 18.1231 25.0567 18.1231C32.8634 18.1231 38.8008 21.0918 40.753 28.6433H47.0306C46.012 22.2806 40.1575 12.862 25.0567 12.862C8.3418 12.862 0.197021 23.044 0.197021 36.2799C0.197021 50.109 9.10523 59.6978 25.0567 59.6978C41.0933 59.6978 46.1821 48.3291 47.3709 42.5597H41.0933V42.5575Z" fill="black"/>
</svg>
