<svg width="100" height="51" viewBox="0 0 100 51" fill="none" xmlns="http://www.w3.org/2000/svg">
<path d="M64.4196 11.4299C64.3518 11.221 64.2198 11.0387 64.0424 10.909C63.8651 10.7793 63.6513 10.7088 63.4316 10.7074H53.5579L50.5069 1.31691C50.3701 0.900371 49.9758 0.600525 49.5138 0.600525C49.0517 0.600525 48.6586 0.900572 48.5207 1.31801L45.4686 10.7074H35.597C35.1582 10.7095 34.7509 10.9902 34.6081 11.4299C34.54 11.6391 34.5396 11.8644 34.6069 12.0737C34.6742 12.2831 34.8058 12.466 34.983 12.5963L42.9699 18.3996L39.9188 27.789C39.8529 27.9986 39.8543 28.2237 39.9228 28.4325C39.9913 28.6414 40.1235 28.8235 40.3008 28.9533C40.6757 29.226 41.1703 29.2127 41.5268 28.9573L49.5138 23.1541L57.5008 28.9573C57.8575 29.2127 58.3519 29.2259 58.7268 28.9533C58.9045 28.8238 59.037 28.6417 59.1056 28.4327C59.1742 28.2238 59.1753 27.9985 59.1088 27.7889L56.0577 18.3996L64.0446 12.5963C64.2218 12.466 64.3534 12.2831 64.4207 12.0737C64.488 11.8644 64.4876 11.6391 64.4195 11.4299" fill="black"/>
<path d="M64.4197 10.8294C64.3519 10.6204 64.2199 10.4381 64.0425 10.3084C63.8652 10.1788 63.6514 10.1082 63.4317 10.1069H53.5579L50.5068 0.716387C50.37 0.299946 49.9758 0 49.5137 0C49.0516 0 48.6585 0.299946 48.5207 0.717388L45.4686 10.1068H35.5969C35.1581 10.1089 34.7508 10.3895 34.6079 10.8293C34.5399 11.0384 34.5395 11.2637 34.6068 11.4731C34.6741 11.6825 34.8057 11.8653 34.9828 11.9956L42.9698 17.7989L39.9187 27.1884C39.8528 27.398 39.8542 27.6231 39.9227 27.8319C39.9912 28.0407 40.1234 28.2228 40.3007 28.3527C40.6756 28.6253 41.1702 28.6121 41.5267 28.3568L49.5137 22.5534L57.5008 28.3567C57.8574 28.6121 58.3519 28.6252 58.7268 28.3527C58.9045 28.2231 59.037 28.041 59.1056 27.832C59.1742 27.6231 59.1753 27.3978 59.1088 27.1882L56.0577 17.7989L64.0446 11.9956C64.2218 11.8653 64.3534 11.6825 64.4207 11.4731C64.488 11.2637 64.4876 11.0384 64.4195 10.8293" fill="white"/>
<path d="M41.2118 27.4338C41.1777 27.4587 41.1365 27.4721 41.0942 27.4721C41.052 27.4721 41.0108 27.4587 40.9767 27.4338C40.9037 27.3812 40.8744 27.299 40.9007 27.219L44.0744 17.4476L35.7693 11.4142C35.7353 11.3897 35.7101 11.3549 35.6974 11.3149C35.6846 11.275 35.685 11.232 35.6984 11.1923C35.7105 11.1521 35.7353 11.1168 35.7691 11.0918C35.8029 11.0667 35.8439 11.0533 35.8859 11.0535H46.1518L49.3235 1.29223C49.3365 1.25192 49.362 1.21676 49.3962 1.19182C49.4304 1.16687 49.4717 1.15343 49.514 1.15341C49.6031 1.15341 49.6771 1.21216 49.7045 1.29223L52.8752 11.0535H63.1422C63.2263 11.0535 63.3053 11.1073 63.3327 11.1923C63.3458 11.2323 63.3458 11.2754 63.3327 11.3153C63.3196 11.3552 63.294 11.3899 63.2597 11.4142L54.9525 17.4476L58.1263 27.215C58.1516 27.296 58.1232 27.3812 58.0512 27.4339C58.0171 27.4588 57.9759 27.4722 57.9337 27.4722C57.8914 27.4722 57.8502 27.4588 57.8161 27.4339L49.514 21.3986L41.2118 27.4338Z" fill="#ED1C24"/>
<path d="M25.884 26.3947V24.4694H25.5061V23.8482H26.9683V24.4694H26.5731V26.3947H25.884ZM28.4847 25.0268C28.666 25.0268 28.7643 24.8677 28.7643 24.7026C28.7643 24.4796 28.6295 24.3844 28.441 24.3955V25.0237L28.4847 25.0268V25.0268ZM28.8191 26.3949L28.4371 25.3349L28.43 25.341C28.4341 25.4657 28.4411 25.5914 28.4411 25.7159V26.3949H27.7521V23.8484H28.4168C29.0147 23.8484 29.4464 24.0237 29.4464 24.6955C29.4464 24.9762 29.3258 25.2254 29.0522 25.3349L29.565 26.3949H28.8191V26.3949ZM31.1691 25.527L31.0951 24.9362C31.0749 24.7771 31.0617 24.615 31.0455 24.4559H31.0374C31.0182 24.615 31.0009 24.7771 30.9735 24.9362L30.8793 25.527H31.1691V25.527ZM31.3008 26.3944L31.2501 26.067H30.7881L30.7303 26.3944H30.021L30.632 23.8479H31.4731L32.0132 26.3944H31.3008V26.3944ZM33.3346 25.7802C33.6487 25.7771 33.7024 25.3849 33.7024 25.1447C33.7024 24.8681 33.6486 24.483 33.3346 24.483V25.7802ZM32.6456 23.8488H33.1998C33.9832 23.8488 34.4047 24.3412 34.4047 25.1113C34.4047 26.2869 33.666 26.3942 33.2465 26.3942H32.6456V23.8488ZM35.1749 23.8483H36.4547V24.4492H35.8639V24.8039H36.3939V25.4047H35.8639V25.7929H36.4547V26.3948H35.1749V23.8483V23.8483ZM64.169 26.3947L64.1051 24.7935H64.098C64.0676 24.979 64.0444 25.1655 64.0109 25.3509L63.8154 26.3947H63.254L63.0139 24.7935H63.0077C63.0037 24.9831 63.0077 25.1686 62.9976 25.3579L62.9398 26.3946H62.2L62.497 23.8481H63.3553L63.5519 25.2019H63.558C63.5783 25.0438 63.5955 24.8877 63.6248 24.7297L63.791 23.8481H64.6381L64.8854 26.3946H64.169V26.3947ZM66.4825 25.527L66.4085 24.9362C66.3883 24.7771 66.3751 24.615 66.3579 24.4559H66.3507C66.3305 24.615 66.3143 24.7771 66.2869 24.9362L66.1927 25.527H66.4825V25.527ZM66.6143 26.3944L66.5635 26.067H66.1015L66.0438 26.3944H65.3344L65.9464 23.8479H66.7865L67.3265 26.3944H66.6143V26.3944ZM68.6576 25.0268C68.84 25.0268 68.9384 24.8677 68.9384 24.7026C68.9384 24.4796 68.8027 24.3844 68.6141 24.3955V25.0237L68.6576 25.0268V25.0268ZM68.992 26.3949L68.6101 25.3349L68.6039 25.341C68.607 25.4657 68.6141 25.5914 68.6141 25.7159V26.3949H67.925V23.8484H68.5898C69.1887 23.8484 69.6204 24.0237 69.6204 24.6955C69.6204 24.9762 69.4987 25.2254 69.2252 25.3349L69.7379 26.3949H68.992V26.3949ZM72.2338 23.8483L71.6835 25.0774L72.2976 26.3948H71.5589L71.1303 25.2254H71.1263V26.3948H70.4372V23.8483H71.1263V24.9325H71.1303L71.5073 23.8483H72.2338V23.8483ZM19.1955 43.397C18.9189 42.6319 19.1398 40.2943 20.4278 39.8535C21.7826 39.3885 22.6155 40.0865 23.0198 41.4525C23.1707 41.9592 23.1373 42.4942 22.9721 42.694C22.7321 42.9858 22.3034 43.1589 21.9173 43.2897L20.9029 43.6252C19.9059 43.9645 19.4296 44.0325 19.1955 43.397V43.397ZM25.5946 46.2324C24.936 46.8921 24.0808 47.5465 23.2387 47.8142C22.4452 48.0695 20.1835 48.267 19.5177 46.3995C19.3738 45.9943 19.4904 45.8696 19.8572 45.7611C20.4023 45.599 21.8089 45.1856 23.2924 44.6292C24.6391 44.1267 25.8399 43.5095 26.2168 43.2582C26.8907 42.8165 26.9899 42.1942 26.6941 41.5244C25.7496 39.3997 23.6106 37.1753 20.0559 37.8513C17.2306 38.3902 15.2071 40.9337 15.2071 43.8429C15.2071 47.4463 17.3787 49.5519 20.1409 50.2055C22.6955 50.8124 25.698 49.5743 26.9828 47.4929C27.4926 46.6913 26.0577 45.74 25.5946 46.2324V46.2324ZM52.2851 43.397C52.1209 42.9391 52.1321 41.9196 52.4431 41.0797C52.6549 40.5152 52.9671 40.0734 53.5172 39.8535C54.1364 39.6043 54.6664 39.6722 55.0808 39.9112C55.555 40.1839 55.8935 40.7239 56.1092 41.4524C56.2593 41.9591 56.2268 42.4941 56.0616 42.6939C55.8194 42.9857 55.4455 43.1315 55.0057 43.2896C54.67 43.4092 54.3322 43.5227 53.9924 43.6301C52.9894 43.9444 52.5192 44.0325 52.2851 43.397V43.397ZM58.6821 46.2324C58.0255 46.8921 57.1693 47.5465 56.3292 47.8142C55.5348 48.0695 53.272 48.267 52.6074 46.3995C52.4634 45.9943 52.5809 45.8696 52.9468 45.7611C53.492 45.599 54.8985 45.1856 56.382 44.6292C57.7287 44.1267 58.9306 43.5095 59.3055 43.2582C59.9803 42.8165 60.0796 42.1942 59.7837 41.5244C58.8383 39.3997 56.7011 37.1753 53.1454 37.8513C50.3203 38.3902 48.2967 40.9337 48.2967 43.8429C48.2967 47.4463 50.4673 49.5519 53.2306 50.2055C55.7842 50.8124 58.7876 49.5743 60.0725 47.4929C60.5821 46.6913 59.1472 45.74 58.6821 46.2324V46.2324ZM77.5102 43.397C77.3441 42.9391 77.3572 41.9196 77.6682 41.0797C77.88 40.5152 78.1922 40.0734 78.7423 39.8535C79.3615 39.6043 79.8914 39.6722 80.3059 39.9112C80.7801 40.1839 81.1176 40.7239 81.3343 41.4524C81.4833 41.9591 81.4519 42.4941 81.2858 42.6939C81.0457 42.9857 80.6717 43.1315 80.2309 43.2896C79.8948 43.4091 79.5567 43.5226 79.2166 43.6301C78.2125 43.9444 77.7443 44.0325 77.5102 43.397V43.397ZM83.9073 46.2324C83.2516 46.8921 82.3944 47.5465 81.5523 47.8142C80.76 48.0695 78.4972 48.267 77.8315 46.3995C77.6885 45.9943 77.806 45.8696 78.1718 45.7611C78.717 45.599 80.1224 45.1856 81.607 44.6292C82.9527 44.1267 84.1556 43.5095 84.5305 43.2582C85.2042 42.8165 85.3036 42.1942 85.0087 41.5244C84.0633 39.3997 81.9251 37.1753 78.3704 37.8513C75.5443 38.3902 73.5217 40.9337 73.5217 43.8429C73.5217 47.4463 75.6923 49.5519 78.4556 50.2055C81.0092 50.8124 84.0116 49.5743 85.2966 47.4929C85.8063 46.6913 84.3723 45.74 83.9073 46.2324V46.2324ZM5.98451 42.4502C5.88909 42.4502 5.7976 42.4882 5.73015 42.5556C5.6627 42.6231 5.62481 42.7146 5.62481 42.8101L5.62581 46.8907C5.62981 47.5238 5.82037 47.9475 6.16585 48.1005C6.35231 48.1836 6.75864 48.371 6.98863 48.4744C7.14676 48.5464 7.15276 48.7074 7.12945 48.9143C7.10923 49.0986 7.05548 49.6247 7.03527 49.8181C7.01405 50.0288 6.84982 50.118 6.53065 50.118H0.624006C0.325061 50.118 0.139609 50.0654 0.114288 49.8181C0.0939714 49.6246 0.0392265 49.0693 0.0190099 48.8849C-0.00741176 48.6508 0.0402273 48.5302 0.185146 48.4633C0.382808 48.371 0.813362 48.1795 0.999915 48.0925C1.36672 47.9223 1.52274 47.4257 1.52274 46.9038L1.52174 36.8141C1.52074 36.2508 1.36261 35.7959 0.952276 35.6053C0.765823 35.5192 0.376703 35.3428 0.187248 35.2527C0.0302191 35.1777 -0.0124159 35.0329 0.0180091 34.8272C0.0443307 34.6426 0.0879665 34.3276 0.114288 34.134C0.147716 33.8887 0.325061 33.8352 0.624006 33.8352H6.25603C6.55597 33.8352 6.72721 33.8887 6.76164 34.134C6.78796 34.3276 6.8316 34.6426 6.85792 34.8272C6.88835 35.0329 6.84781 35.1748 6.69479 35.2568C6.49412 35.3651 6.21249 35.5233 6.03204 35.6216C5.78885 35.7544 5.62971 36.029 5.62571 36.6795L5.62471 39.6202C5.62462 39.6675 5.63385 39.7144 5.65188 39.7581C5.66991 39.8019 5.69639 39.8416 5.7298 39.8751C5.7632 39.9086 5.80288 39.9352 5.84657 39.9534C5.89026 39.9715 5.9371 39.9809 5.98441 39.9809H9.13789C9.18523 39.981 9.23211 39.9717 9.27584 39.9536C9.31957 39.9354 9.35928 39.9089 9.39271 39.8753C9.42613 39.8418 9.45261 39.802 9.4706 39.7583C9.4886 39.7145 9.49777 39.6676 9.49759 39.6202L9.49659 36.6795C9.49248 36.029 9.33345 35.7544 9.09126 35.6216C8.90991 35.5234 8.62918 35.3652 8.42851 35.2568C8.27549 35.1748 8.23395 35.0329 8.26428 34.8272C8.2907 34.6426 8.33423 34.3276 8.36056 34.134C8.39498 33.8887 8.56723 33.8352 8.86617 33.8352H14.4982C14.7971 33.8352 14.9745 33.8887 15.0089 34.134C15.0352 34.3276 15.0778 34.6426 15.1052 34.8272C15.1345 35.0329 15.093 35.1777 14.936 35.2527C14.7454 35.3428 14.3563 35.5192 14.1698 35.6053C13.7605 35.7959 13.6024 36.2508 13.6014 36.8141L13.6004 46.9038C13.6004 47.4257 13.7554 47.9223 14.1222 48.0925C14.3086 48.1795 14.7403 48.371 14.9379 48.4633C15.0828 48.5302 15.1294 48.6508 15.1041 48.8849C15.0838 49.0693 15.0281 49.6247 15.0088 49.8181C14.9835 50.0654 14.797 50.118 14.4981 50.118H8.59175C8.27258 50.118 8.10835 50.0288 8.08713 49.8181C8.06681 49.6246 8.01317 49.0986 7.99285 48.9143C7.97054 48.7075 7.97564 48.5464 8.13467 48.4744C8.36376 48.371 8.77009 48.1836 8.95755 48.1005C9.30203 47.9475 9.49258 47.5238 9.49659 46.8907L9.49759 42.8101C9.49767 42.7628 9.48842 42.716 9.47037 42.6723C9.45233 42.6286 9.42584 42.5889 9.39242 42.5555C9.35901 42.522 9.31933 42.4955 9.27565 42.4774C9.23197 42.4594 9.18516 42.4501 9.13789 42.4502H5.98451V42.4502Z" fill="#048743"/>
<path d="M69.2907 42.1244C69.2907 42.1244 71.4298 45.9942 72.0134 47.0572C72.4574 47.8648 72.9559 48.0887 73.6318 48.4737C73.806 48.572 73.8587 48.637 73.8273 48.9641C73.804 49.2165 73.7645 49.6026 73.7452 49.8033C73.7179 50.0829 73.5193 50.1175 73.2416 50.1175H70.0882C69.689 50.1175 69.5329 50.0344 69.391 49.777C69.2389 49.5014 66.6024 44.7042 66.6024 44.7042L65.6082 45.6536V46.9772C65.6133 47.5841 65.893 47.9772 66.1655 48.1294C66.3419 48.2276 66.6095 48.3767 66.8242 48.4951C66.9894 48.5863 67.0015 48.7018 66.9793 48.9612C66.9631 49.1446 66.9124 49.6239 66.8932 49.8183C66.8709 50.0331 66.725 50.1174 66.3875 50.1174H61.1385C60.8386 50.1174 60.6512 50.0656 60.6257 49.8183C60.6055 49.6239 60.5559 49.1092 60.5357 48.9256C60.5102 48.6945 60.5508 48.5771 60.7028 48.4921C60.9234 48.3673 61.1447 48.2436 61.3666 48.1211C61.625 47.9781 61.8347 47.5911 61.8347 46.9578V36.7092C61.8326 35.9998 61.5642 35.6777 61.3554 35.561C61.2085 35.4779 60.7829 35.2418 60.6857 35.1861C60.5388 35.103 60.5103 34.9429 60.5388 34.7462C60.5651 34.5639 60.5975 34.3268 60.6248 34.1332C60.6603 33.8758 60.8285 33.8344 61.1346 33.8344H64.9254C65.2476 33.8344 65.6073 34.0725 65.6073 34.5224L65.6083 42.3533C65.6083 42.3533 67.7353 40.4371 68.0495 40.1554C68.2734 39.9538 68.2097 39.739 68.084 39.6802C67.8661 39.5789 67.6229 39.4714 67.4861 39.4097C67.3351 39.3407 67.2581 39.2597 67.2834 39.0105C67.3087 38.7744 67.3504 38.3932 67.3676 38.212C67.3899 37.9768 67.4699 37.8805 67.857 37.8805H72.4899C72.7808 37.8805 72.8791 37.981 72.8983 38.1713C72.9186 38.3883 72.9713 38.8381 72.9916 39.0551C73.0077 39.2282 72.8872 39.3285 72.6318 39.4218C71.961 39.6671 71.6702 39.8403 70.7643 40.7158C70.1976 41.263 69.2907 42.1244 69.2907 42.1244V42.1244ZM32.6266 46.996C32.6317 47.6029 32.8332 47.9769 33.1069 48.129C33.3259 48.2517 33.5455 48.3736 33.7655 48.4947C33.9297 48.5859 33.9429 48.7024 33.9195 48.9608C33.9043 49.1452 33.8537 49.6245 33.8344 49.8179C33.8121 50.0337 33.6651 50.118 33.3288 50.118H28.0787C27.7798 50.118 27.5943 50.0653 27.569 49.8179C27.5392 49.5203 27.5085 49.2227 27.4768 48.9252C27.4515 48.6951 27.493 48.5776 27.644 48.4915C27.8644 48.3673 28.0853 48.2441 28.3067 48.1217C28.5651 47.9777 28.7759 47.5917 28.7759 46.9574L28.7749 41.2138C28.7739 40.4426 28.5469 40.0819 28.2976 39.941C28.1496 39.8579 27.9419 39.7385 27.8436 39.6828C27.6886 39.5946 27.6633 39.4455 27.6916 39.25C27.7179 39.0677 27.7585 38.7596 27.7858 38.5661C27.8192 38.3208 27.9966 38.2672 28.2955 38.2672H32.2738C32.3201 38.2672 32.3659 38.2763 32.4086 38.294C32.4514 38.3117 32.4902 38.3377 32.5228 38.3705C32.5555 38.4032 32.5814 38.4421 32.599 38.4849C32.6166 38.5277 32.6255 38.5735 32.6254 38.6198L32.6266 46.996V46.996ZM30.3931 33.505C29.2289 33.505 28.2864 34.4149 28.2864 35.5378C28.2864 36.6606 29.2289 37.5705 30.3931 37.5705C31.5554 37.5705 32.4989 36.6606 32.4989 35.5378C32.4989 34.4149 31.5554 33.505 30.3931 33.505ZM46.3148 41.2188C46.3148 39.11 45.3592 38.3054 44.2527 37.9518C42.9748 37.5453 41.4326 38.2141 40.6412 38.58C40.4321 38.6766 40.225 38.7776 40.0201 38.8829C39.8154 38.4026 39.7069 38.2668 39.404 38.2668H35.6618C35.3628 38.2668 35.1855 38.3206 35.1521 38.5657C35.1247 38.7592 35.0842 39.0673 35.0578 39.2496C35.0295 39.4453 35.0538 39.5942 35.2098 39.6824C35.3071 39.7381 35.5159 39.8587 35.6628 39.9418C35.913 40.0815 36.1391 40.4424 36.1411 41.2135L36.1421 46.957C36.1421 47.5915 35.9313 47.9775 35.6729 48.1215C35.451 48.2434 35.2301 48.367 35.0101 48.4923C34.8581 48.5775 34.8166 48.6949 34.8429 48.926C34.8632 49.1094 34.9149 49.6243 34.9351 49.8178C34.9594 50.0651 35.1459 50.1176 35.4448 50.1176H40.6938C41.0302 50.1176 41.1772 50.0335 41.1994 49.8178C41.2187 49.6242 41.2694 49.1449 41.2855 48.9604C41.3078 48.702 41.2957 48.5865 41.1305 48.4943C40.9101 48.3739 40.6905 48.252 40.4718 48.1286C40.1324 47.936 39.9904 47.4354 39.9904 46.9805L39.9925 42.4154C39.9925 41.2227 40.5742 40.553 41.3727 40.4546C41.9036 40.3878 42.5846 40.715 42.5846 41.6544V47.8042C42.5846 49.5552 44.0731 50.2271 45.2415 50.2271C46.4788 50.2271 47.5347 49.6586 48.0068 48.6696C48.1569 48.3564 47.9734 48.1183 47.8205 47.9491C47.6451 47.7555 47.4871 47.5834 47.2013 47.7294C46.9197 47.8742 46.6237 48.154 46.4534 48.0598C46.3267 47.9908 46.3146 47.8793 46.3146 47.6057V41.2188H46.3148ZM97.2821 41.2188C97.2821 39.11 96.3265 38.3054 95.22 37.9518C93.9423 37.5453 92.4 38.2141 91.6086 38.58C91.2874 38.728 90.9874 38.8829 90.9874 38.8829C90.7838 38.4026 90.6743 38.2668 90.3713 38.2668H86.6291C86.3302 38.2668 86.1529 38.3206 86.1183 38.5657C86.092 38.7592 86.0515 39.0673 86.0251 39.2496C85.9957 39.4453 86.0211 39.5942 86.1761 39.6824C86.2744 39.7381 86.4821 39.8587 86.6311 39.9418C86.8804 40.0815 87.1074 40.4424 87.1084 41.2135L87.1095 46.957C87.1095 47.5915 86.8987 47.9775 86.6393 48.1215C86.4179 48.2436 86.1973 48.3672 85.9776 48.4923C85.8256 48.5775 85.7841 48.6949 85.8104 48.926C85.8296 49.1094 85.8823 49.6243 85.9027 49.8178C85.928 50.0651 86.1133 50.1176 86.4124 50.1176H91.6613C91.9988 50.1176 92.1447 50.0335 92.167 49.8178C92.1862 49.6242 92.2369 49.1449 92.2542 48.9604C92.2754 48.702 92.2633 48.5865 92.0981 48.4943C91.8776 48.3739 91.6581 48.252 91.4394 48.1286C91.0989 47.936 90.958 47.4354 90.958 46.9805L90.9601 42.4154C90.9601 41.2227 91.5418 40.553 92.3403 40.4546C92.8713 40.3878 93.5522 40.715 93.5522 41.6544V47.8042C93.5522 49.5552 95.0407 50.2271 96.2091 50.2271C97.4464 50.2271 98.5022 49.6586 98.9755 48.6696C99.1235 48.3564 98.941 48.1183 98.787 47.9491C98.6127 47.7555 98.4547 47.5834 98.1699 47.7294C97.8861 47.8742 97.5903 48.154 97.4211 48.0598C97.2954 47.9908 97.2822 47.8793 97.2822 47.6057V41.2188H97.2821ZM98.078 34.1035C98.078 33.9019 97.8672 33.831 97.692 33.831H97.2876V34.4054H97.7477C97.9442 34.4055 98.078 34.2759 98.078 34.1035ZM98.6343 35.2667C98.6748 35.5385 98.7964 35.7339 98.8632 35.8768C98.5846 35.8768 98.4802 35.8758 98.241 35.8758C98.1224 35.6094 98.0962 35.43 98.0364 35.2456C97.9552 34.977 97.7881 34.8978 97.4983 34.8978H97.2835V35.8757H96.711V33.3739H97.9077C98.1863 33.3739 98.6677 33.539 98.6677 34.071C98.6677 34.4054 98.4822 34.6364 98.2948 34.7074C98.5015 34.8434 98.5927 34.9984 98.6343 35.2667V35.2667ZM99.5179 34.7126C99.5179 33.6871 98.692 32.8603 97.6717 32.8603C96.644 32.8603 95.8111 33.6871 95.8111 34.7126C95.8111 35.7349 96.644 36.5659 97.6717 36.5659C98.6921 36.5659 99.5179 35.7349 99.5179 34.7126V34.7126ZM99.9912 34.7126C99.9912 35.9943 98.9494 37.0331 97.6717 37.0331C96.3867 37.0331 95.3429 35.9943 95.3429 34.7126C95.3429 33.4265 96.3867 32.388 97.6717 32.391C98.9494 32.3881 99.9912 33.4266 99.9912 34.7126Z" fill="#048743"/>
</svg>
