<svg width="87" height="31" viewBox="0 0 87 31" fill="none" xmlns="http://www.w3.org/2000/svg">
<path d="M49.6936 16.2197H50.6131C50.6131 17.2398 50.7855 18.4034 51.0297 19.2942C51.2595 20.0987 51.8486 20.8601 52.3801 21.4491C53.357 22.5553 55.0523 23.1875 56.9056 23.1875C58.2416 23.1875 59.4772 22.7277 60.2961 22.0669C61.1724 21.3486 61.7327 20.3285 61.7327 19.093C61.7327 18.0586 61.3017 17.1248 60.7127 16.5358C60.1237 15.9468 58.8163 15.0704 57.3222 14.4958L55.1672 13.6769C53.3427 12.9729 51.748 11.8954 50.9435 10.9041C50.139 9.89849 49.6074 8.43312 49.6074 6.99647C49.6074 4.95643 50.4407 3.28992 51.8629 2.08314C53.2852 0.890721 55.5695 0.244229 58.2416 0.244229C61.2873 0.244229 63.3992 0.747056 65.4536 2.04004V7.3269H64.6347C64.6347 6.91027 64.5198 6.50801 64.5198 6.29251C64.5198 5.99081 64.4192 5.67475 64.4192 5.47362C64.4192 5.27249 64.2181 5.057 64.2181 4.85586C64.017 4.35304 63.7009 3.67781 63.2986 3.11752C62.3217 1.68088 60.6121 0.876355 58.7588 0.876355C57.5377 0.876355 56.3309 1.26425 55.5695 1.89637C54.7506 2.55723 54.3483 3.64908 54.3483 4.76967C54.3483 5.68912 54.65 6.56547 55.1672 7.12577C55.7275 7.74352 56.9056 8.39001 58.3422 8.97904L60.3104 9.78356C62.3361 10.6025 64.017 11.6799 64.9364 12.6569C65.9133 13.6912 66.4736 15.1135 66.4736 16.7513C66.4736 18.8057 65.6547 20.6733 64.017 21.8801C62.3936 23.0869 60.1093 23.8196 57.3366 23.8196C55.9861 23.8196 54.1759 23.561 52.1934 23.2018C51.4894 23.0869 50.5556 22.857 49.7223 22.4979L49.6936 16.2197ZM69.4331 16.2197H70.3526C70.3526 17.2398 70.525 18.4034 70.7692 19.2942C70.9991 20.0987 71.5881 20.8601 72.1197 21.4491C73.0966 22.5553 74.7918 23.1875 76.6451 23.1875C77.9812 23.1875 79.2167 22.7277 80.0356 22.0669C80.9119 21.3486 81.4722 20.3285 81.4722 19.093C81.4722 18.0586 81.0412 17.1248 80.4522 16.5358C79.8632 15.9468 78.5558 15.0704 77.0617 14.4958L74.9067 13.6769C73.0822 12.9729 71.4875 11.8954 70.683 10.9041C69.8785 9.89849 69.3469 8.43312 69.3469 6.99647C69.3469 4.95643 70.1802 3.28992 71.6025 2.08314C73.0247 0.890721 75.2946 0.244229 77.9812 0.244229C81.0269 0.244229 83.1387 0.747056 85.1931 2.04004V7.3269H84.3742C84.3742 6.91027 84.2593 6.50801 84.2593 6.29251C84.2593 5.99081 84.1587 5.67475 84.1587 5.47362C84.1587 5.27249 83.9576 5.057 83.9576 4.85586C83.7565 4.35304 83.4404 3.67781 83.0382 3.11752C82.0612 1.68088 80.3516 0.876355 78.4984 0.876355C77.2772 0.876355 76.0704 1.26425 75.309 1.89637C74.4901 2.55723 74.0879 3.64908 74.0879 4.76967C74.0879 5.68912 74.3896 6.56547 74.9067 7.12577C75.467 7.74352 76.6451 8.39001 78.0817 8.97904L80.0499 9.78356C82.0756 10.6025 83.7565 11.6799 84.6759 12.6569C85.6529 13.6912 86.2131 15.1135 86.2131 16.7513C86.2131 18.8057 85.3943 20.6733 83.7565 21.8801C82.1331 23.0869 79.8488 23.8196 77.0761 23.8196C75.7256 23.8196 73.9155 23.561 71.9329 23.2018C71.2289 23.0869 70.2951 22.857 69.4619 22.4979L69.4331 16.2197ZM34.8818 0C37.9562 0 40.6427 0.919454 42.5966 2.55723C45.1682 4.59727 46.5042 7.88719 46.5042 12.1828C46.5042 13.8205 46.2026 15.3577 45.7859 16.7944C45.2687 18.2167 44.4498 19.5671 43.516 20.4866C41.4616 22.6415 38.4878 23.7621 34.5657 23.7621C30.9741 23.7621 28.0864 22.7421 26.1326 20.6877C24.0638 18.6333 23.0582 15.5589 23.0582 11.7661C23.0582 8.07395 24.0782 5.20066 26.1326 3.16062C28.2014 1.12058 31.1752 0 34.8818 0ZM34.8961 0.617758C32.8274 0.617758 31.1896 1.72398 30.1696 3.77838C29.3507 5.51672 28.8048 8.30382 28.8048 11.7805C28.8048 15.5732 29.3363 18.4322 30.1696 20.1705C31.089 22.1244 32.6262 23.1444 34.5801 23.1444C38.7033 23.1444 40.7433 19.3804 40.7433 11.9816C40.7433 8.08832 40.2405 5.21503 39.3066 3.47668C38.89 2.6578 38.1717 1.95384 37.3384 1.42228C36.5339 0.919453 35.5857 0.632123 34.7668 0.632123H34.8961V0.617758ZM12.858 11.8092C15.1279 11.8092 17.0817 12.3121 18.3029 13.3464C19.5384 14.2803 20.1561 15.7025 20.1561 17.4409C20.1561 18.4753 19.8545 19.4953 19.4378 20.3142C18.9206 21.1331 18.0874 21.952 17.1679 22.3686C16.2772 22.7277 15.3434 22.972 14.3952 23.0869C13.3608 23.288 11.8236 23.3886 9.98469 23.3886H0V22.7708H2.45667V1.04875H0V0.430994H9.78356C11.2202 0.430994 12.5563 0.531558 13.5763 0.632123C15.329 0.833254 16.7657 1.43665 17.8 2.37047C18.8344 3.28992 19.3373 4.61163 19.3373 6.16321C19.3373 8.20325 18.4178 9.74046 16.6651 10.6743C15.8462 11.0909 14.5101 11.4932 12.7431 11.5937L12.858 11.8092ZM7.82972 22.7708H9.3813C10.4013 22.7708 11.2202 22.6703 11.838 22.5553C12.4845 22.3542 13.0591 21.9663 13.4901 21.4491C14.2228 20.5297 14.6251 19.208 14.6251 17.5558C14.6251 15.8175 14.2084 14.3665 13.4901 13.5476C13.0735 13.1309 12.5707 12.7287 11.9673 12.5276C11.3351 12.3121 10.3151 12.1109 9.28074 12.1109H7.82972V22.7708ZM7.82972 11.5075H9.26637C10.7174 11.5075 11.9529 11.0909 12.6569 10.272C13.3895 9.45313 13.7918 8.11705 13.7918 6.26378C13.7918 4.8415 13.4757 3.50542 12.9729 2.68653C12.6569 2.0544 12.154 1.65214 11.6368 1.45101C11.0047 1.23552 10.0853 1.03438 9.06524 1.03438H7.82972V11.5075ZM0.316062 30.4425V27.5405H0.675224V28.7473H2.19807V27.5405H2.55723V30.4425H2.19807V29.0921H0.68959V30.4425H0.316062ZM13.0448 27.5405H13.4039V29.2214C13.4039 29.5087 13.3608 29.7529 13.3033 29.911C13.2315 30.0834 13.1022 30.227 12.9442 30.3276C12.7718 30.4425 12.5419 30.5 12.269 30.5C11.996 30.5 11.7661 30.4569 11.6081 30.3707C11.4501 30.2845 11.3208 30.1265 11.2489 29.9541C11.2058 29.8535 11.1771 29.7529 11.1627 29.6524C11.1484 29.5087 11.134 29.3651 11.134 29.2358V27.5549H11.4932V29.2358C11.4932 29.4943 11.5219 29.6811 11.5506 29.796C11.5937 29.911 11.6799 30.0115 11.8092 30.069C11.9242 30.1265 12.0822 30.1696 12.2402 30.1696C12.5276 30.1696 12.7431 30.1121 12.858 29.9828C12.9729 29.8679 13.0591 29.5949 13.0591 29.2358L13.0448 27.5405ZM23.288 29.3076V28.9628H24.5092V30.0403C24.3081 30.1839 24.1213 30.2989 23.9202 30.3851C23.7334 30.4569 23.5035 30.5 23.3024 30.5C23.0438 30.5 22.7708 30.4425 22.541 30.3276C22.3111 30.2127 22.1387 30.0259 22.0238 29.8104C21.8945 29.5662 21.837 29.3076 21.837 29.0346C21.837 28.7617 21.8945 28.4887 22.0094 28.2445C22.1244 28.0002 22.2968 27.8278 22.5122 27.6985C22.7277 27.5836 22.9863 27.5118 23.2737 27.5118C23.4748 27.5118 23.6759 27.5549 23.8483 27.6123C24.0207 27.6842 24.15 27.7847 24.2362 27.8997C24.3368 28.0146 24.4086 28.1726 24.4517 28.3738L24.1069 28.46C24.0638 28.3307 24.0064 28.2014 23.9489 28.1295C23.8914 28.0577 23.7909 27.9859 23.6759 27.9428C23.5466 27.8853 23.4173 27.8566 23.2737 27.8566C23.1013 27.8566 22.9432 27.8853 22.8283 27.9284C22.7134 27.9715 22.5984 28.0433 22.5122 28.1439C22.4404 28.2301 22.3686 28.3307 22.3255 28.4312C22.2537 28.618 22.2106 28.8048 22.2106 29.0059C22.2106 29.2645 22.2537 29.48 22.3255 29.6524C22.4117 29.8248 22.541 29.9684 22.7134 30.0403C22.8858 30.1121 23.0725 30.1552 23.2737 30.1552C23.4317 30.1552 23.6041 30.1265 23.7478 30.069C23.9058 30.0115 24.0351 29.9253 24.1213 29.8535V29.3076H23.288ZM32.8561 29.0346C32.8561 28.5605 32.9854 28.187 33.2296 27.9284C33.4882 27.6554 33.8187 27.5118 34.2353 27.5118C34.5082 27.5118 34.7381 27.5836 34.9536 27.6985C35.1547 27.8135 35.3271 28.0146 35.4421 28.2301C35.557 28.4456 35.6288 28.7186 35.6288 29.0059C35.6288 29.2932 35.5714 29.5662 35.4421 29.7817C35.3271 30.0115 35.1547 30.1983 34.9392 30.2989C34.7237 30.4138 34.4795 30.4856 34.2353 30.4856C33.9767 30.4856 33.7325 30.4138 33.5026 30.2989C33.2871 30.1839 33.1147 29.9972 33.0141 29.7673C32.9136 29.5518 32.8561 29.3076 32.8561 29.0346ZM33.244 29.049C33.244 29.3938 33.3446 29.6524 33.517 29.8535C33.7037 30.0403 33.948 30.1552 34.2209 30.1552C34.5082 30.1552 34.7525 30.0546 34.9392 29.8679C35.1404 29.6811 35.2266 29.3794 35.2266 29.0203C35.2266 28.7904 35.1835 28.5893 35.1116 28.4169C35.0398 28.2445 34.9105 28.1008 34.7668 28.0002C34.6232 27.8997 34.4364 27.8566 34.2497 27.8566C33.9767 27.8566 33.7468 27.9571 33.5457 28.1295C33.3446 28.3163 33.244 28.6324 33.244 29.049ZM50.5987 30.4425V27.5405H51.6762C51.8917 27.5405 52.0784 27.5836 52.1934 27.6267C52.3227 27.6842 52.4376 27.7847 52.5094 27.8997C52.5813 28.0146 52.6244 28.1583 52.6244 28.2876C52.6244 28.4025 52.5813 28.5462 52.5238 28.6324C52.4376 28.7473 52.337 28.8479 52.2077 28.9053C52.3801 28.9484 52.5238 29.0346 52.6244 29.1639C52.7249 29.2789 52.768 29.4369 52.768 29.5949C52.768 29.7242 52.7249 29.8679 52.6818 29.9684C52.6387 30.0834 52.5669 30.1696 52.4807 30.2414C52.3945 30.2989 52.2796 30.3563 52.1503 30.3707C52.0353 30.3994 51.8629 30.4138 51.6762 30.4138L50.5987 30.4425ZM50.9579 28.776H51.59C51.7624 28.776 51.8917 28.7617 51.9635 28.7473C52.0497 28.7186 52.1359 28.6611 52.179 28.5893C52.2077 28.5605 52.2221 28.5174 52.2365 28.4743C52.2508 28.4312 52.2652 28.3738 52.2652 28.3307C52.2652 28.2301 52.2365 28.1439 52.1934 28.0721C52.1503 28.0002 52.0784 27.9428 51.9922 27.914C51.906 27.8853 51.748 27.8709 51.5469 27.8709H50.9579V28.776ZM50.9579 30.0977H51.6905C51.8055 30.0977 51.906 30.0834 51.9635 30.0834C52.0497 30.069 52.1359 30.0403 52.179 30.0115C52.2508 29.9828 52.3083 29.9253 52.337 29.8535C52.3658 29.7817 52.3945 29.6955 52.3945 29.5949C52.3945 29.4943 52.3658 29.4082 52.3083 29.3363C52.2652 29.2645 52.1646 29.1927 52.0641 29.1639C51.9635 29.1352 51.8055 29.1065 51.6331 29.1065H50.9579V30.0977ZM61.4885 29.0346C61.4885 28.5605 61.6178 28.187 61.862 27.9284C62.1206 27.6554 62.451 27.5118 62.8676 27.5118C63.1406 27.5118 63.3705 27.5836 63.586 27.6985C63.7871 27.8135 63.9595 28.0146 64.0744 28.2301C64.1894 28.4456 64.2612 28.7186 64.2612 29.0059C64.2612 29.2932 64.2037 29.5662 64.0744 29.7817C63.9595 30.0115 63.7871 30.1983 63.5716 30.2989C63.3561 30.4138 63.1119 30.4856 62.8676 30.4856C62.6091 30.4856 62.3648 30.4138 62.135 30.2989C61.9195 30.1839 61.7471 29.9972 61.6465 29.7673C61.5459 29.5518 61.4885 29.3076 61.4885 29.0346ZM61.8764 29.049C61.8764 29.3938 61.9769 29.6524 62.1493 29.8535C62.3361 30.0403 62.5803 30.1552 62.8533 30.1552C63.1406 30.1552 63.3848 30.0546 63.5716 29.8679C63.7727 29.6811 63.8589 29.3794 63.8589 29.0203C63.8589 28.7904 63.8158 28.5893 63.744 28.4169C63.6722 28.2445 63.5429 28.1008 63.3848 28.0002C63.2412 27.8997 63.0544 27.8566 62.8676 27.8566C62.5947 27.8566 62.3648 27.9571 62.1637 28.1295C61.9769 28.3163 61.8764 28.6324 61.8764 29.049ZM72.8954 29.5231L73.2546 29.4943C73.269 29.6236 73.3121 29.7529 73.3695 29.8391C73.427 29.9397 73.5419 30.0259 73.6712 30.069C73.7287 30.0977 73.8005 30.1265 73.8724 30.1265C73.9442 30.1408 74.0304 30.1552 74.1022 30.1552C74.2459 30.1552 74.3752 30.1265 74.4901 30.0977C74.605 30.0546 74.6912 29.9972 74.7487 29.9253C74.7918 29.8535 74.8349 29.7529 74.8349 29.6667C74.8349 29.5805 74.8062 29.4943 74.7631 29.4369C74.72 29.365 74.6194 29.3076 74.4901 29.2501C74.3177 29.1927 74.1453 29.1496 73.9873 29.1208C73.7143 29.0634 73.5132 28.9915 73.4126 28.9341C73.2833 28.8622 73.1684 28.7617 73.1109 28.6755C73.0391 28.5605 73.0104 28.4456 73.0104 28.3163C73.0104 28.1726 73.0535 28.0433 73.1253 27.914C73.1971 27.7991 73.3264 27.6842 73.4845 27.6267C73.6569 27.5549 73.8293 27.5118 74.016 27.5118C74.2172 27.5118 74.4183 27.5549 74.5763 27.6123C74.7487 27.6842 74.878 27.7991 74.9498 27.9284C75.0504 28.0577 75.0935 28.2157 75.0935 28.3738L74.7343 28.4169C74.72 28.2301 74.6482 28.0864 74.5476 28.0002C74.4327 27.8997 74.2603 27.8566 74.0304 27.8566C73.8149 27.8566 73.6281 27.8997 73.5276 27.9715C73.427 28.0577 73.3695 28.1583 73.3695 28.2876C73.3695 28.3881 73.4126 28.4743 73.4845 28.5462C73.5563 28.6036 73.7574 28.6755 74.0591 28.7473C74.3608 28.8191 74.5763 28.8766 74.7056 28.9341C74.878 29.0059 75.0073 29.1208 75.0791 29.2358C75.1079 29.2789 75.1366 29.3507 75.1653 29.4225C75.1941 29.4943 75.2084 29.5662 75.2084 29.638C75.2084 29.7817 75.1653 29.9397 75.0791 30.069C74.9929 30.2127 74.8493 30.3132 74.7056 30.3851C74.5189 30.4569 74.3321 30.5 74.131 30.5C73.8724 30.5 73.6425 30.4569 73.4701 30.3851C73.2977 30.3132 73.154 30.1983 73.0535 30.0403C73.0104 29.9684 72.9673 29.8822 72.9385 29.796C72.9098 29.7098 72.8954 29.6236 72.8954 29.5231ZM83.9002 29.5231L84.2593 29.4943C84.2737 29.6236 84.3168 29.7529 84.3742 29.8391C84.4317 29.9397 84.5466 30.0259 84.6759 30.069C84.7334 30.0977 84.8052 30.1265 84.8771 30.1265C84.9489 30.1408 85.0351 30.1552 85.1069 30.1552C85.2506 30.1552 85.3799 30.1265 85.4948 30.0977C85.6098 30.0546 85.696 29.9972 85.7534 29.9253C85.7965 29.8535 85.8396 29.7529 85.8396 29.6667C85.8396 29.5805 85.8109 29.4943 85.7678 29.4369C85.7247 29.365 85.6241 29.3076 85.4948 29.2501C85.3224 29.1927 85.15 29.1496 84.992 29.1208C84.719 29.0634 84.5179 28.9915 84.4173 28.9341C84.288 28.8622 84.1731 28.7617 84.1156 28.6755C84.0582 28.5605 84.0151 28.4456 84.0151 28.3163C84.0151 28.1726 84.0582 28.0433 84.13 27.914C84.2018 27.7991 84.3311 27.6842 84.4892 27.6267C84.6616 27.5549 84.834 27.5118 85.0207 27.5118C85.2219 27.5118 85.423 27.5549 85.581 27.6123C85.7534 27.6842 85.8827 27.7991 85.9546 27.9284C86.0551 28.0577 86.0982 28.2157 86.0982 28.3738L85.7391 28.4169C85.7247 28.2301 85.6529 28.0864 85.5523 28.0002C85.4374 27.8997 85.265 27.8566 85.0495 27.8566C84.834 27.8566 84.6472 27.8997 84.5466 27.9715C84.4461 28.0577 84.3886 28.1583 84.3886 28.2876C84.3886 28.3881 84.4173 28.4743 84.5035 28.5462C84.5754 28.6036 84.7765 28.6755 85.0782 28.7473C85.3799 28.8191 85.5954 28.8766 85.7247 28.9341C85.8971 29.0059 86.0264 29.1208 86.0982 29.2358C86.127 29.2789 86.1557 29.3507 86.1844 29.4225C86.2132 29.4943 86.2275 29.5662 86.2275 29.638C86.2275 29.7817 86.1844 29.9397 86.0982 30.069C86.012 30.2127 85.8684 30.3132 85.7247 30.3851C85.5379 30.4569 85.3512 30.5 85.15 30.5C84.8914 30.5 84.6616 30.4569 84.4892 30.3851C84.3168 30.3132 84.1731 30.1983 84.0726 30.0403C84.0295 29.9684 83.9864 29.8822 83.9576 29.796C83.9002 29.7098 83.9002 29.6236 83.9002 29.5231Z" fill="black"/>
</svg>
