<svg width="56" height="50" viewBox="0 0 56 50" fill="none" xmlns="http://www.w3.org/2000/svg">
<path d="M55.1194 49.9628V0.037468H0.0067749V49.9628H55.1194V49.9628Z" fill="#ECB73A"/>
<path d="M10.7366 25.0374C10.7366 25.5061 10.7537 26.0461 11.4306 27.0359C12.1076 28.0257 21.6258 41.298 21.6258 41.298C22.1369 41.9691 22.3349 43.3663 20.6879 43.3663C20.5194 43.3663 11.4091 43.3206 9.3886 43.3598C9.15735 43.3642 8.8121 43.3156 8.45477 43.1724C7.95958 42.9742 7.47765 42.6139 7.15979 42.1287C6.88082 41.7031 6.64339 41.2792 6.62189 40.4882V9.58633C6.64339 8.79538 6.88082 8.37118 7.15979 7.9458C7.47794 7.46033 7.95958 7.10006 8.45477 6.9021C8.81239 6.75923 9.15735 6.71062 9.3886 6.71504C11.4091 6.75393 20.5194 6.70827 20.6879 6.70827C22.3349 6.70827 22.1369 8.10576 21.6258 8.77682C21.6258 8.77682 12.1076 22.0492 11.4306 23.039C10.7537 24.0285 10.7366 24.5687 10.7366 25.0374Z" fill="#CC2131" stroke="#CC2131" stroke-width="0.5"/>
<path d="M48.5282 39.4522C48.5282 43.5389 44.8815 43.3474 44.8815 43.3474H33.3036C31.8964 43.2835 31.1926 42.3894 30.4247 41.7511C27.7384 39.5158 12.2675 26.1203 11.8507 25.7297C11.4339 25.3391 11.4141 25.2716 11.4141 25.0374C11.4141 24.8032 11.4339 24.7358 11.8507 24.3451C12.2675 23.9542 27.7387 10.559 30.4247 8.32405C31.1926 7.68569 31.8964 6.79163 33.3036 6.72771H44.8815C44.8815 6.72771 48.5282 6.53623 48.5282 10.623V39.4522Z" fill="#CC2131" stroke="#CC2131" stroke-width="0.5"/>
<path d="M17.2622 21.83H19.2126L19.212 24.541L21.3047 21.83H23.3771L21.1639 24.9658L23.563 28.7871H21.2829L19.212 25.4878L19.2126 28.7871H17.2622V21.83Z" fill="#ECB73A" stroke="#ECB73A" stroke-width="0.5"/>
<path fill-rule="evenodd" clip-rule="evenodd" d="M30.8206 28.9064C31.5143 28.9064 32.148 28.8631 32.5247 28.5612L32.6941 28.7874H34.1452C34.1367 28.2749 34.1464 21.83 34.1464 21.83H32.4272V23.8835C32.2679 23.7253 31.7668 23.5244 30.8986 23.6066C29.5453 23.7348 28.7768 24.5902 28.7768 26.2909C28.7768 27.9714 29.5397 28.9064 30.8206 28.9064ZM25.7877 23.4481C27.5428 23.4481 28.5052 24.4541 28.5052 26.2146C28.5052 27.975 27.5428 28.981 25.7877 28.981C24.0325 28.981 23.0604 27.975 23.0604 26.2146C23.0604 24.4541 24.0325 23.4481 25.7877 23.4481ZM25.7779 27.747C26.4192 27.747 26.6514 27.2544 26.6514 26.201C26.6514 25.1479 26.4192 24.6453 25.7779 24.6453C25.1461 24.6453 24.9136 25.1479 24.9136 26.201C24.9136 27.2544 25.1461 27.747 25.7779 27.747ZM31.547 27.8121C32.1085 27.8121 32.5038 27.2644 32.5038 26.2593C32.5038 25.2448 32.1085 24.7066 31.5055 24.7066C30.9231 24.7066 30.6108 25.2345 30.6108 26.2593C30.6111 27.3048 30.9125 27.8121 31.547 27.8121ZM37.8318 28.4498C37.8718 28.4213 37.9061 28.3968 37.9365 28.3783L37.9367 28.3789C37.9705 28.4952 38.0181 28.6587 38.0381 28.8013H39.7211C39.6704 28.459 39.6607 28.0972 39.6607 27.7169L39.6745 25.332C39.6745 24.4491 39.5175 23.5984 37.9553 23.5966C37.0722 23.5954 35.0234 23.6037 35.0234 23.6037C35.0234 23.6037 35.0334 24.7481 35.0287 25.2265H36.3779C36.3779 25.1983 36.4135 24.6088 37.0937 24.6162C37.8899 24.6247 37.8749 25.3034 37.8749 25.3034C37.689 25.3805 36.7234 25.569 36.3947 25.6331L36.3947 25.6331L36.3048 25.6507C35.487 25.8154 34.4855 26.2994 34.4855 27.4029C34.4855 28.3064 35.15 28.978 36.2005 28.9524C37.1608 28.929 37.5946 28.6192 37.8318 28.4498ZM37.6263 26.2979C36.6857 26.3639 36.2229 26.67 36.2591 27.2044C36.2857 27.5917 36.6003 27.8645 37.0595 27.8327C37.6832 27.7894 37.9715 27.3478 37.9162 26.5304C37.9126 26.4498 37.9035 26.3696 37.8891 26.2903C37.8455 26.2932 37.8015 26.2937 37.7576 26.2941H37.7576C37.7137 26.2945 37.6698 26.295 37.6263 26.2979ZM41.9731 21.83H40.1314V28.7871H41.9731V26.4882L43.3653 28.7871H45.2901L43.4749 25.7497L45.1225 23.7168H43.3373L41.9731 25.3582V21.83Z" fill="#ECB73A"/>
<path d="M32.5247 28.5612L32.7249 28.4114L32.57 28.2045L32.3684 28.3661L32.5247 28.5612ZM32.6941 28.7874L32.494 28.9373L32.569 29.0374H32.6941V28.7874ZM34.1452 28.7874V29.0374H34.3994L34.3952 28.7833L34.1452 28.7874ZM34.1464 21.83L34.3964 21.8304L34.3968 21.58H34.1464V21.83ZM32.4272 21.83V21.58H32.1772V21.83H32.4272ZM32.4272 23.8835L32.2511 24.061L32.6772 24.4839V23.8835H32.4272ZM30.8986 23.6066L30.8751 23.3577L30.8751 23.3577L30.8986 23.6066ZM30.6108 26.2593L30.3608 26.2593L30.3608 26.2594L30.6108 26.2593ZM37.9365 28.3783L38.1766 28.3087L38.0856 27.9945L37.8063 28.1648L37.9365 28.3783ZM37.8318 28.4498L37.9771 28.6533L37.9771 28.6533L37.8318 28.4498ZM37.9367 28.3789L37.6966 28.4485L37.6966 28.4488L37.9367 28.3789ZM38.0381 28.8013L37.7905 28.836L37.8207 29.0513H38.0381V28.8013ZM39.7211 28.8013V29.0513H40.0108L39.9684 28.7647L39.7211 28.8013ZM39.6607 27.7169L39.4107 27.7155V27.7169H39.6607ZM39.6745 25.332L39.9245 25.3334V25.332H39.6745ZM37.9553 23.5966L37.955 23.8466L37.9551 23.8466L37.9553 23.5966ZM35.0234 23.6037L35.0224 23.3537L34.7712 23.3547L34.7734 23.6059L35.0234 23.6037ZM35.0287 25.2265L34.7787 25.2241L34.7762 25.4765H35.0287V25.2265ZM36.3779 25.2265V25.4765H36.6279V25.2265H36.3779ZM37.0937 24.6162L37.091 24.8661L37.091 24.8661L37.0937 24.6162ZM37.8749 25.3034L37.9707 25.5344L38.1213 25.4719L38.1249 25.309L37.8749 25.3034ZM36.3947 25.6331L36.4408 25.8788L36.4426 25.8785L36.3947 25.6331ZM36.3947 25.6331L36.3487 25.3874L36.3466 25.3878L36.3947 25.6331ZM36.3048 25.6507L36.2567 25.4054L36.2555 25.4056L36.3048 25.6507ZM36.2005 28.9524L36.2066 29.2023L36.2066 29.2023L36.2005 28.9524ZM36.2591 27.2044L36.0097 27.2213L36.0097 27.2214L36.2591 27.2044ZM37.6263 26.2979L37.6094 26.0485L37.6088 26.0485L37.6263 26.2979ZM37.0595 27.8327L37.0768 28.0821L37.0768 28.0821L37.0595 27.8327ZM37.9162 26.5304L37.6663 26.5415L37.6667 26.5472L37.9162 26.5304ZM37.8891 26.2903L38.135 26.2454L38.0949 26.0258L37.8722 26.0408L37.8891 26.2903ZM37.7576 26.2941V26.5441L37.7601 26.5441L37.7576 26.2941ZM37.7576 26.2941V26.0441L37.7551 26.0441L37.7576 26.2941ZM40.1314 21.83V21.58H39.8814V21.83H40.1314ZM41.9731 21.83H42.2231V21.58H41.9731V21.83ZM40.1314 28.7871H39.8814V29.0371H40.1314V28.7871ZM41.9731 28.7871V29.0371H42.2231V28.7871H41.9731ZM41.9731 26.4882L42.187 26.3587L41.7231 25.5928V26.4882H41.9731ZM43.3653 28.7871L43.1515 28.9166L43.2245 29.0371H43.3653V28.7871ZM45.2901 28.7871V29.0371H45.7308L45.5047 28.6589L45.2901 28.7871ZM43.4749 25.7497L43.2807 25.5923L43.1707 25.728L43.2603 25.878L43.4749 25.7497ZM45.1225 23.7168L45.3167 23.8742L45.6469 23.4668H45.1225V23.7168ZM43.3373 23.7168V23.4668H43.2201L43.1451 23.557L43.3373 23.7168ZM41.9731 25.3582H41.7231V26.0501L42.1654 25.518L41.9731 25.3582ZM32.3684 28.3661C32.2275 28.479 32.0229 28.5552 31.7505 28.6004C31.4796 28.6455 31.1649 28.6564 30.8206 28.6564V29.1564C31.17 29.1564 31.519 29.1458 31.8325 29.0937C32.1446 29.0418 32.4452 28.9453 32.6811 28.7563L32.3684 28.3661ZM32.8942 28.6376L32.7249 28.4114L32.3246 28.711L32.494 28.9373L32.8942 28.6376ZM34.1452 28.5374H32.6941V29.0374H34.1452V28.5374ZM34.1464 21.83C33.8964 21.8296 33.8964 21.8297 33.8964 21.8297C33.8964 21.8298 33.8964 21.8298 33.8964 21.8299C33.8964 21.8301 33.8964 21.8304 33.8964 21.8308C33.8964 21.8316 33.8964 21.8328 33.8964 21.8343C33.8964 21.8374 33.8964 21.842 33.8964 21.8481C33.8964 21.8604 33.8963 21.8785 33.8963 21.9021C33.8962 21.9495 33.8961 22.019 33.896 22.1076C33.8958 22.2848 33.8954 22.5386 33.895 22.8447C33.8942 23.4569 33.8933 24.2786 33.8926 25.1163C33.8913 26.7895 33.8909 28.5324 33.8953 28.7916L34.3952 28.7833C34.391 28.5299 34.3913 26.7941 34.3926 25.1167C34.3933 24.2791 34.3942 23.4575 34.395 22.8453C34.3954 22.5393 34.3958 22.2855 34.396 22.1083C34.3961 22.0197 34.3962 21.9502 34.3963 21.9029C34.3963 21.8792 34.3964 21.8611 34.3964 21.8489C34.3964 21.8428 34.3964 21.8382 34.3964 21.8351C34.3964 21.8335 34.3964 21.8323 34.3964 21.8316C34.3964 21.8312 34.3964 21.8309 34.3964 21.8307C34.3964 21.8306 34.3964 21.8305 34.3964 21.8305C34.3964 21.8304 34.3964 21.8304 34.1464 21.83ZM32.4272 22.08H34.1464V21.58H32.4272V22.08ZM32.6772 23.8835V21.83H32.1772V23.8835H32.6772ZM30.9222 23.8555C31.3333 23.8166 31.6479 23.8457 31.8714 23.8983C32.1022 23.9526 32.2172 24.0273 32.2511 24.061L32.6033 23.7061C32.4779 23.5816 32.2626 23.4767 31.986 23.4116C31.7021 23.3448 31.3322 23.3145 30.8751 23.3577L30.9222 23.8555ZM29.0268 26.2909C29.0268 25.4751 29.2113 24.8999 29.5239 24.5172C29.8329 24.1387 30.2946 23.9149 30.9222 23.8555L30.8751 23.3577C30.1494 23.4265 29.5501 23.6945 29.1366 24.2009C28.7265 24.7031 28.5268 25.406 28.5268 26.2909H29.0268ZM30.8206 28.6564C30.2468 28.6564 29.8121 28.4504 29.5145 28.0738C29.2104 27.6891 29.0268 27.0975 29.0268 26.2909H28.5268C28.5268 27.1648 28.7247 27.881 29.1222 28.3839C29.5263 28.895 30.1135 29.1564 30.8206 29.1564V28.6564ZM28.7552 26.2146C28.7552 25.2903 28.502 24.5281 27.9835 23.9966C27.4642 23.4642 26.7126 23.1981 25.7877 23.1981V23.6981C26.6178 23.6981 27.225 23.9351 27.6256 24.3458C28.0272 24.7574 28.2552 25.3784 28.2552 26.2146H28.7552ZM25.7877 29.231C26.7126 29.231 27.4642 28.9649 27.9835 28.4325C28.502 27.901 28.7552 27.1389 28.7552 26.2146H28.2552C28.2552 27.0507 28.0272 27.6717 27.6256 28.0834C27.225 28.494 26.6178 28.731 25.7877 28.731V29.231ZM22.8104 26.2146C22.8104 27.1395 23.0664 27.9017 23.5874 28.433C24.1091 28.965 24.8628 29.231 25.7877 29.231V28.731C24.9575 28.731 24.3475 28.494 23.9444 28.0829C23.5405 27.671 23.3104 27.05 23.3104 26.2146H22.8104ZM25.7877 23.1981C24.8628 23.1981 24.1091 23.4642 23.5874 23.9962C23.0664 24.5274 22.8104 25.2896 22.8104 26.2146H23.3104C23.3104 25.3791 23.5405 24.7581 23.9444 24.3462C24.3475 23.9351 24.9575 23.6981 25.7877 23.6981V23.1981ZM26.4014 26.201C26.4014 26.7208 26.342 27.0532 26.2354 27.2498C26.1854 27.342 26.1277 27.3991 26.0629 27.4354C25.9967 27.4724 25.9063 27.497 25.7779 27.497V27.997C25.9702 27.997 26.1494 27.9599 26.307 27.8717C26.4661 27.7827 26.5867 27.6508 26.6749 27.4882C26.8447 27.1752 26.9014 26.7346 26.9014 26.201H26.4014ZM25.7779 24.8953C25.9055 24.8953 25.9954 24.9202 26.0615 24.9577C26.1264 24.9945 26.1845 25.0527 26.2349 25.1465C26.3421 25.3461 26.4014 25.6816 26.4014 26.201H26.9014C26.9014 25.6673 26.8446 25.225 26.6754 24.9099C26.5876 24.7465 26.4674 24.6132 26.3084 24.5229C26.1506 24.4333 25.971 24.3953 25.7779 24.3953V24.8953ZM25.1636 26.201C25.1636 25.6818 25.2229 25.3457 25.3295 25.1458C25.3796 25.0517 25.4372 24.9936 25.5009 24.9571C25.5655 24.9199 25.6533 24.8953 25.7779 24.8953V24.3953C25.5867 24.3953 25.4084 24.4335 25.2518 24.5235C25.0941 24.6141 24.9751 24.7475 24.8882 24.9107C24.7206 25.2253 24.6636 25.6671 24.6636 26.201H25.1636ZM25.7779 27.497C25.6525 27.497 25.5643 27.4727 25.4995 27.436C25.4359 27.4 25.3788 27.3431 25.329 27.2506C25.223 27.0536 25.1636 26.7206 25.1636 26.201H24.6636C24.6636 26.7348 24.7205 27.1748 24.8887 27.4875C24.976 27.6498 25.0954 27.7818 25.2532 27.8711C25.4097 27.9597 25.5875 27.997 25.7779 27.997V27.497ZM32.2538 26.2593C32.2538 26.7337 32.1598 27.0691 32.0258 27.2773C31.8976 27.4764 31.7336 27.5621 31.547 27.5621V28.0621C31.9219 28.0621 32.2363 27.8739 32.4462 27.5479C32.6502 27.2311 32.7538 26.79 32.7538 26.2593H32.2538ZM31.5055 24.9566C31.7208 24.9566 31.8935 25.0472 32.0228 25.2412C32.1595 25.4463 32.2538 25.7794 32.2538 26.2593H32.7538C32.7538 25.7247 32.6505 25.2814 32.4388 24.9639C32.2197 24.6351 31.8932 24.4566 31.5055 24.4566V24.9566ZM30.8608 26.2593C30.8608 25.7649 30.9374 25.4285 31.056 25.2241C31.1641 25.0378 31.3072 24.9566 31.5055 24.9566V24.4566C31.1214 24.4566 30.8172 24.6393 30.6235 24.9732C30.4404 25.2889 30.3608 25.7289 30.3608 26.2593H30.8608ZM31.547 27.5621C31.311 27.5621 31.1616 27.4758 31.0554 27.299C30.9358 27.1 30.861 26.7669 30.8608 26.2593L30.3608 26.2594C30.361 26.7973 30.437 27.2406 30.6268 27.5565C30.8299 27.8947 31.1485 28.0621 31.547 28.0621V27.5621ZM37.8063 28.1648C37.7666 28.1891 37.724 28.2196 37.6865 28.2464L37.9771 28.6533C38.0195 28.623 38.0457 28.6045 38.0666 28.5917L37.8063 28.1648ZM38.1768 28.3093L38.1766 28.3087L37.6964 28.4479L37.6966 28.4485L38.1768 28.3093ZM38.2857 28.7666C38.2627 28.6028 38.2095 28.4215 38.1767 28.309L37.6966 28.4488C37.7316 28.5689 37.7735 28.7145 37.7905 28.836L38.2857 28.7666ZM39.7211 28.5513H38.0381V29.0513H39.7211V28.5513ZM39.4107 27.7169C39.4107 28.0997 39.4203 28.4766 39.4738 28.8379L39.9684 28.7647C39.9205 28.4414 39.9107 28.0948 39.9107 27.7169H39.4107ZM39.4245 25.3305L39.4107 27.7155L39.9107 27.7184L39.9245 25.3334L39.4245 25.3305ZM37.9551 23.8466C38.6934 23.8474 39.0291 24.0474 39.1984 24.2807C39.3813 24.5329 39.4245 24.8915 39.4245 25.332H39.9245C39.9245 24.8896 39.8892 24.3815 39.6031 23.9871C39.3033 23.5739 38.7794 23.3475 37.9556 23.3466L37.9551 23.8466ZM35.0234 23.6037C35.0244 23.8537 35.0244 23.8537 35.0244 23.8537C35.0244 23.8537 35.0244 23.8537 35.0245 23.8537C35.0245 23.8537 35.0246 23.8537 35.0248 23.8537C35.025 23.8537 35.0254 23.8537 35.0259 23.8537C35.0269 23.8537 35.0283 23.8537 35.0303 23.8537C35.0342 23.8536 35.04 23.8536 35.0476 23.8536C35.0628 23.8535 35.0852 23.8534 35.1141 23.8533C35.1718 23.8531 35.2553 23.8528 35.3582 23.8524C35.5641 23.8517 35.8477 23.8507 36.1589 23.8497C36.7816 23.8478 37.5141 23.846 37.955 23.8466L37.9557 23.3466C37.5135 23.346 36.7799 23.3478 36.1574 23.3497C35.846 23.3507 35.5623 23.3517 35.3564 23.3524C35.2534 23.3528 35.1699 23.3531 35.1122 23.3533C35.0833 23.3534 35.0608 23.3535 35.0456 23.3536C35.038 23.3536 35.0322 23.3536 35.0283 23.3537C35.0263 23.3537 35.0249 23.3537 35.0239 23.3537C35.0234 23.3537 35.023 23.3537 35.0227 23.3537C35.0226 23.3537 35.0225 23.3537 35.0225 23.3537C35.0224 23.3537 35.0224 23.3537 35.0224 23.3537C35.0224 23.3537 35.0224 23.3537 35.0234 23.6037ZM35.2787 25.229C35.281 24.9876 35.2797 24.58 35.2778 24.2343C35.2768 24.0612 35.2757 23.903 35.2749 23.7881C35.2744 23.7306 35.2741 23.684 35.2738 23.6517C35.2737 23.6356 35.2736 23.6231 35.2735 23.6145C35.2734 23.6103 35.2734 23.607 35.2734 23.6048C35.2734 23.6037 35.2734 23.6029 35.2734 23.6023C35.2734 23.6021 35.2734 23.6019 35.2734 23.6017C35.2734 23.6016 35.2734 23.6016 35.2734 23.6016C35.2734 23.6015 35.2734 23.6015 35.2734 23.6015C35.2734 23.6015 35.2734 23.6015 35.0234 23.6037C34.7734 23.6059 34.7734 23.6059 34.7734 23.6059C34.7734 23.6059 34.7734 23.6059 34.7734 23.6059C34.7734 23.606 34.7734 23.606 34.7734 23.6061C34.7734 23.6062 34.7734 23.6064 34.7734 23.6067C34.7734 23.6072 34.7734 23.6081 34.7734 23.6091C34.7734 23.6113 34.7735 23.6145 34.7735 23.6188C34.7736 23.6273 34.7737 23.6398 34.7738 23.6558C34.7741 23.688 34.7744 23.7345 34.7749 23.7919C34.7757 23.9065 34.7768 24.0643 34.7778 24.2371C34.7797 24.5833 34.781 24.9871 34.7787 25.2241L35.2787 25.229ZM36.3779 24.9765H35.0287V25.4765H36.3779V24.9765ZM37.0964 24.3662C36.6676 24.3615 36.4081 24.5529 36.2688 24.7753C36.1419 24.9779 36.1279 25.1834 36.1279 25.2265H36.6279C36.6279 25.2414 36.6316 25.138 36.6926 25.0407C36.7412 24.9631 36.8396 24.8634 37.091 24.8661L37.0964 24.3662ZM37.8749 25.3034C38.1249 25.309 38.1249 25.3088 38.1249 25.3087C38.1249 25.3086 38.1249 25.3085 38.1249 25.3083C38.1249 25.3081 38.1249 25.3079 38.1249 25.3077C38.1249 25.3072 38.1249 25.3067 38.1249 25.3061C38.1249 25.305 38.1249 25.3037 38.1249 25.3023C38.125 25.2994 38.1249 25.2958 38.1249 25.2916C38.1247 25.2831 38.1244 25.2721 38.1235 25.2589C38.1219 25.2325 38.1185 25.1967 38.1112 25.1546C38.0968 25.0714 38.0664 24.9574 38.0009 24.8407C37.8605 24.5903 37.5821 24.3714 37.0964 24.3662L37.091 24.8661C37.4015 24.8695 37.5138 24.9942 37.5649 25.0853C37.5952 25.1394 37.6108 25.1956 37.6185 25.2399C37.6222 25.2615 37.6238 25.2788 37.6245 25.2896C37.6248 25.2949 37.6249 25.2985 37.6249 25.3C37.6249 25.3008 37.6249 25.301 37.6249 25.3007C37.6249 25.3005 37.6249 25.3002 37.625 25.2997C37.625 25.2995 37.625 25.2992 37.625 25.2989C37.625 25.2988 37.625 25.2986 37.625 25.2984C37.625 25.2983 37.625 25.2982 37.625 25.2982C37.625 25.298 37.625 25.2979 37.8749 25.3034ZM36.4426 25.8785C36.6068 25.8464 36.9323 25.7829 37.2402 25.7177C37.394 25.6851 37.5451 25.6517 37.6703 25.6214C37.7882 25.5928 37.903 25.5624 37.9707 25.5344L37.7792 25.0725C37.7539 25.083 37.6783 25.105 37.5526 25.1355C37.4342 25.1641 37.2885 25.1964 37.1366 25.2285C36.8331 25.2928 36.5113 25.3556 36.3468 25.3877L36.4426 25.8785ZM36.4408 25.8788L36.4408 25.8788L36.3487 25.3874L36.3487 25.3874L36.4408 25.8788ZM36.3529 25.8961L36.4428 25.8784L36.3466 25.3878L36.2567 25.4054L36.3529 25.8961ZM34.7355 27.4029C34.7355 26.9394 34.941 26.6107 35.2438 26.3707C35.5545 26.1243 35.9675 25.9737 36.3542 25.8958L36.2555 25.4056C35.8244 25.4925 35.3277 25.6661 34.9332 25.9788C34.5307 26.2979 34.2355 26.7629 34.2355 27.4029H34.7355ZM36.1944 28.7025C35.7247 28.7139 35.3625 28.5699 35.1197 28.3433C34.8771 28.1169 34.7355 27.7914 34.7355 27.4029H34.2355C34.2355 27.9179 34.4261 28.3799 34.7785 28.7088C35.1306 29.0375 35.6259 29.2165 36.2066 29.2023L36.1944 28.7025ZM37.6865 28.2464C37.5714 28.3286 37.4242 28.4334 37.1958 28.5232C36.9671 28.6132 36.6477 28.6914 36.1944 28.7025L36.2066 29.2023C36.7136 29.1899 37.0913 29.1016 37.3789 28.9885C37.6668 28.8752 37.8551 28.7404 37.9771 28.6533L37.6865 28.2464ZM36.5086 27.1874C36.4968 27.0133 36.5578 26.8877 36.7145 26.7839C36.89 26.6676 37.1898 26.5792 37.6438 26.5473L37.6088 26.0485C37.1222 26.0827 36.7203 26.1803 36.4383 26.3671C36.1375 26.5664 35.9853 26.861 36.0097 27.2213L36.5086 27.1874ZM37.0422 27.5833C36.8662 27.5955 36.7376 27.5487 36.6542 27.4813C36.5717 27.4146 36.5173 27.3152 36.5086 27.1873L36.0097 27.2214C36.0275 27.4809 36.1437 27.7116 36.3399 27.8702C36.5353 28.028 36.7936 28.1017 37.0768 28.0821L37.0422 27.5833ZM37.6667 26.5472C37.6927 26.9304 37.634 27.1816 37.5335 27.3346C37.4416 27.4746 37.2927 27.5659 37.0422 27.5833L37.0768 28.0821C37.45 28.0562 37.7571 27.9051 37.9515 27.609C38.1372 27.3261 38.195 26.9478 38.1656 26.5135L37.6667 26.5472ZM37.6431 26.3351C37.6556 26.4033 37.6633 26.4722 37.6664 26.5415L38.1659 26.5192C38.1618 26.4274 38.1515 26.3359 38.135 26.2454L37.6431 26.3351ZM37.7601 26.5441C37.8028 26.5437 37.854 26.5432 37.9059 26.5397L37.8722 26.0408C37.837 26.0432 37.8002 26.0437 37.7551 26.0441L37.7601 26.5441ZM37.7576 26.5441H37.7576V26.0441H37.7576V26.5441ZM37.6432 26.5474C37.6783 26.545 37.7149 26.5445 37.7601 26.5441L37.7551 26.0441C37.7124 26.0445 37.6612 26.045 37.6094 26.0485L37.6432 26.5474ZM40.1314 22.08H41.9731V21.58H40.1314V22.08ZM40.3814 28.7871V21.83H39.8814V28.7871H40.3814ZM41.9731 28.5371H40.1314V29.0371H41.9731V28.5371ZM41.7231 26.4882V28.7871H42.2231V26.4882H41.7231ZM43.5792 28.6576L42.187 26.3587L41.7593 26.6177L43.1515 28.9166L43.5792 28.6576ZM45.2901 28.5371H43.3653V29.0371H45.2901V28.5371ZM43.2603 25.878L45.0755 28.9154L45.5047 28.6589L43.6895 25.6215L43.2603 25.878ZM44.9283 23.5594L43.2807 25.5923L43.6691 25.9071L45.3167 23.8742L44.9283 23.5594ZM43.3373 23.9668H45.1225V23.4668H43.3373V23.9668ZM42.1654 25.518L43.5296 23.8766L43.1451 23.557L41.7809 25.1984L42.1654 25.518ZM41.7231 21.83V25.3582H42.2231V21.83H41.7231Z" fill="#ECB73A"/>
</svg>
