<svg width="96" height="50" viewBox="0 0 96 50" fill="none" xmlns="http://www.w3.org/2000/svg">
<path d="M95.179 25C95.179 38.7751 73.8781 49.9426 47.6109 49.9426C21.3361 49.9426 0.0383911 38.7751 0.0383911 25C0.0383911 11.2249 21.3361 0.0574646 47.6109 0.0574646C73.8781 0.0574646 95.179 11.2249 95.179 25Z" fill="#FFFAC3"/>
<path fill-rule="evenodd" clip-rule="evenodd" d="M47.5935 47.8881C72.7862 47.8881 93.2112 37.6334 93.2112 24.9821C93.2112 12.3314 72.7862 2.07614 47.5935 2.07614C22.3998 2.07614 1.97533 12.3314 1.97533 24.9821C1.97533 37.6334 22.3998 47.8881 47.5935 47.8881ZM3.76394 24.9821C3.76394 13.3275 23.3878 3.87937 47.5935 3.87937C71.7982 3.87937 91.4215 13.3275 91.421 24.9821C91.421 36.6363 71.7982 46.0844 47.5935 46.0844C23.3878 46.0844 3.76394 36.6363 3.76394 24.9821Z" fill="#2B6352"/>
<path fill-rule="evenodd" clip-rule="evenodd" d="M90.2879 24.9821C90.2879 36.0105 71.1724 44.9503 47.5935 44.9503C24.0135 44.9503 4.89914 36.0105 4.89914 24.9821C4.89914 13.9549 24.0141 5.01511 47.5935 5.01511C71.1724 5.01456 90.2879 13.9549 90.2879 24.9821ZM74.9559 15.6336H67.6342L66.742 18.1834H71.4821L66.0762 20.0553L65.7189 21.0893L74.0367 18.3615L74.9559 15.6336ZM25.2873 20.1089H28.2696C28.2696 20.1089 28.9392 20.1718 29.0387 19.924L28.0444 22.6359H20.9095C20.9095 22.6359 21.0816 22.578 21.3117 22.1184C21.5418 21.6594 24.8413 12.4705 24.8413 12.4705C24.8413 12.4705 25.2933 11.508 24.7833 11.2644H28.8801C28.8121 11.2746 28.5962 11.376 28.2734 12.1836C28.0515 12.7407 25.2873 20.1089 25.2873 20.1089ZM28.903 11.2644C28.903 11.2644 28.8952 11.2622 28.8801 11.2644H28.903ZM29.0387 19.924L29.0421 19.9146L29.0398 19.9212L29.0387 19.924ZM40.7845 22.6246H44.1451C44.1451 22.6246 43.9151 22.2835 44.0585 21.9105C44.2572 21.3925 46.0399 16.5409 46.0399 16.5409L46.8151 22.6246H49.8591L53.8493 11.8025C53.8493 11.8025 54.0123 11.2947 54.2353 11.2947L51.0008 11.285C51.0008 11.285 51.0939 11.6585 50.9775 11.946C50.8643 12.2329 49.0259 17.1434 49.0259 17.1434L48.3081 11.285H44.8337C44.8337 11.285 45.0135 11.5719 44.8987 11.888L41.2154 21.9961C41.2154 21.9961 40.9859 22.6246 40.7845 22.6246ZM56.1482 11.2888L56.1479 11.2882V11.2888H56.1482ZM56.1482 11.2888C56.159 11.3067 56.4269 11.7689 56.0613 12.81C55.6872 13.8732 52.7591 21.7692 52.7591 21.7692C52.7591 21.7692 52.5284 22.512 52.2123 22.6565L56.8073 22.6516C56.8073 22.6516 62.3772 22.8574 64.1008 17.0027C64.1008 17.0027 66.283 11.2308 59.9655 11.2888H56.1482ZM56.6356 20.0364C56.6356 20.0364 56.6503 20.0321 57.1662 20.0321C57.9473 20.0321 59.3949 19.8599 60.3688 17.491C61.9674 13.5982 59.7365 13.7297 59.7365 13.7297H58.8747L56.6356 20.0364ZM23.0965 31.7928H15.7748L16.6935 29.0661L25.0123 26.3382L24.6545 27.3711L19.2486 29.2425H23.9876L23.0965 31.7928ZM28.6068 36.4955C28.491 36.4954 28.491 36.1252 28.491 36.1252L29.8374 32.5512C29.8374 32.5512 31.5155 35.8437 31.6303 36.0732C31.7451 36.3039 31.6871 36.495 31.6871 36.495H35.7007C35.3174 36.495 34.9228 35.7674 34.9228 35.7674L32.9252 32.181C35.7202 32.181 36.6134 29.412 36.6134 29.412C37.9917 25.0087 33.3534 25.1234 33.3534 25.1234H28.6063C28.9506 25.5062 28.6821 26.3106 28.6821 26.3106C28.6821 26.3106 25.7345 34.7383 25.505 35.3895C25.2749 36.0408 24.8537 36.4944 24.8537 36.4944L28.6068 36.4955ZM30.6737 30.0253L31.4517 27.7392C31.4517 27.7392 31.8685 27.7327 32.2431 27.7327C33.9527 27.7327 33.341 29.0238 33.341 29.0238C32.8186 30.1509 31.4013 30.0253 31.4013 30.0253H30.6737ZM70.1279 36.5377C69.8539 36.5303 70.0497 35.841 70.0497 35.841L71.252 32.5929C71.252 32.5929 72.8706 35.8865 72.9849 36.1171C73.1002 36.3466 73.0428 36.5377 73.0428 36.5377H77.1992C76.8154 36.5377 76.3948 35.8091 76.3948 35.8091L74.3967 32.2237C77.1922 32.2237 78.034 29.5527 78.034 29.5527C79.5016 24.9426 74.826 25.1657 74.826 25.1657H70.1168C70.4616 25.5484 70.1942 26.3528 70.1942 26.3528C70.1942 26.3528 67.1226 34.8135 66.8931 35.4637C66.7486 35.8634 66.5196 36.2274 66.2218 36.5307L70.1279 36.5377ZM74.7107 29.0709C74.2803 30.1726 72.8739 30.067 72.8739 30.067H72.1458L72.9123 27.8074H73.9517C73.9517 27.8074 75.219 27.7739 74.7107 29.0709ZM41.5775 36.7781C45.7205 36.7781 48.1863 32.7137 48.1863 29.7985C48.1863 26.7399 46.9288 24.8311 44.0585 24.8311C40.3958 24.8311 38.0063 27.6109 37.3897 31.0663C36.8229 34.2435 38.6175 36.7781 41.5775 36.7781ZM44.6015 31.1616C44.0082 33.5376 42.8719 34.2819 41.8385 34.0903C40.4326 33.8294 40.674 31.6499 40.9019 30.6446C41.3994 28.443 42.6234 27.3868 43.5405 27.4989L43.5537 27.5004L43.5802 27.5032C43.9644 27.5435 45.4673 27.7009 44.6015 31.1616ZM49.1699 25.1667C49.1699 25.1667 49.4541 25.3199 49.4541 26.0464V35.887C49.4541 35.887 49.4152 36.4251 49.2122 36.5383H52.2903C52.2903 36.5383 52.2903 36.3077 52.5956 35.9249C52.902 35.5422 59.2958 26.9662 59.2958 26.9662C59.2958 26.9662 60.7537 25.1667 61.1364 25.1667H56.7304C56.7304 25.1667 57.0763 25.3963 56.8078 25.8169C56.5404 26.2386 52.6232 32.0965 52.6232 32.0965L52.673 26.1883C52.673 26.1883 52.6654 25.2409 53.046 25.1619L49.1699 25.1667ZM68.777 25.1635L67.7809 27.8491C67.6314 27.5288 67.2193 27.5807 67.2073 27.5822L67.2071 27.5822H64.1057L63.3781 29.6101H65.8277C66.4668 29.6101 66.5787 29.3855 66.5917 29.3522L65.5603 32.2524C65.445 32.0992 64.909 32.1371 64.909 32.1371H62.3831L61.694 33.975H64.9486C65.6761 33.975 65.7904 33.8229 65.7904 33.8229L64.8717 36.5404H57.1775C57.3302 36.5404 57.865 35.4691 57.865 35.4691C57.865 35.4691 60.8901 27.3164 61.2349 26.3582C61.5798 25.4017 61.3113 25.1646 61.3113 25.1646L68.777 25.1635ZM28.8624 22.6343H32.5457C32.5457 22.6343 32.5343 22.3517 32.6302 22.1682C32.805 21.8364 33.2619 21.0357 33.2619 21.0357H36.9691L36.9761 22.034C36.9761 22.034 36.995 22.3783 36.7222 22.6435H40.3979C40.3979 22.6435 40.1251 22.4903 40.0748 22.0383L39.613 12.0467C39.613 12.0467 39.593 11.4079 39.8972 11.2731H36.2507C36.2507 11.2731 36.5062 11.5887 36.0179 12.307C35.5302 13.0249 29.3009 22.2613 29.3009 22.2613C29.3009 22.2613 29.1775 22.4979 28.8624 22.6343ZM34.8508 18.4708L36.8976 15.141L36.9263 18.4708H34.8508Z" fill="#2B6352"/>
</svg>
