<svg width="54" height="54" viewBox="0 0 54 54" fill="none" xmlns="http://www.w3.org/2000/svg">
<path fill-rule="evenodd" clip-rule="evenodd" d="M31.4998 3.78455L31.905 3.22751L32.1586 3.85208L31.4998 3.78455ZM32.968 4.22335L33.5761 4.05436L33.424 4.69606L32.968 4.22335Z" fill="black"/>
<path fill-rule="evenodd" clip-rule="evenodd" d="M32.3105 4.39202C31.8882 4.22335 31.3143 4.15582 30.555 4.22335C29.9472 4.27407 29.3734 4.40913 28.85 4.5778L28.6306 4.30768L28.85 3.85209L29.6261 3.98715V1.3877L28.4112 1.57349L28.5462 1.26945L26.8079 0.13855L25.086 1.26945L25.2214 1.57349L24.0061 1.3877V3.98715L24.7994 3.85209L25.002 4.30768L24.7994 4.5778C24.2763 4.40913 23.6856 4.27407 23.0778 4.22335C22.335 4.15582 21.7611 4.22335 21.3224 4.39202C20.7821 4.57749 20.5627 4.93195 20.6303 5.45539C20.681 6.07965 21.1705 6.90682 22.0481 7.93658H21.3896L21.3557 10.9073C23.1451 10.3838 24.9509 10.114 26.7907 10.114H26.8583C28.681 10.114 30.4869 10.3838 32.2763 10.9073L32.2591 7.93658H31.5505C32.4617 6.90682 32.9516 6.07996 33.0191 5.45539C33.0698 4.93226 32.8333 4.57749 32.3105 4.39202ZM28.0564 1.3877L27.8376 1.96155L29.3055 1.79288V3.56516L28.5969 3.51444L28.2092 4.25727C28.4115 4.52708 28.4955 4.76359 28.5126 4.94906C28.5297 5.18526 28.4283 5.57364 28.2092 6.06316C28.1249 6.28286 28.0735 6.58659 28.1249 6.99146L28.2092 8.08844H25.4072L25.5086 6.99146C25.5422 6.58628 25.5086 6.28255 25.4072 6.06316C25.2049 5.57395 25.1031 5.18558 25.1199 4.94906C25.137 4.76359 25.2385 4.52708 25.4072 4.25727L25.0527 3.51444L24.3267 3.56516V1.79288L25.7784 1.96155L25.559 1.3877L26.8082 0.594456H26.8418L28.0564 1.3877ZM30.251 4.64533C29.66 4.71318 29.2218 4.81432 28.9349 4.98299C28.9511 5.06701 28.9178 5.23599 28.8677 5.489C30.0151 5.10093 30.7744 5.10093 31.1967 5.489C31.3651 5.65798 31.4161 5.91098 31.399 6.1643C31.3819 6.45122 31.2468 6.72103 31.0445 6.99115L31.399 7.37953C32.1754 6.58628 32.5806 5.9281 32.5977 5.45539C32.6142 5.06701 32.3615 4.814 31.8381 4.67894C31.4161 4.5778 30.8927 4.561 30.251 4.64533ZM28.6984 5.9449L29.2218 5.77623C29.9808 5.48931 30.5043 5.50611 30.7741 5.79304C30.8927 5.87737 30.9431 6.02955 30.926 6.23183C30.9095 6.38369 30.808 6.58628 30.6901 6.75495C30.2342 6.55267 29.5084 6.48514 28.5294 6.55267L28.5465 6.53587C28.5465 6.31616 28.6138 6.11388 28.6984 5.9449ZM27.1113 8.6626L27.3988 8.29134L26.8079 8.2067L26.2172 8.29103L26.4702 8.64549L27.1113 8.6626ZM27.3649 8.79766L27.8379 8.52754C27.9055 8.59507 27.922 8.79766 27.9055 9.1182C27.8715 9.45585 27.8379 9.67524 27.7869 9.7935L27.3481 9.45585L27.3991 9.1182L27.3649 8.79766ZM29.8629 7.9705C29.7954 7.9705 29.7443 8.05483 29.6768 8.18989C29.6264 8.32464 29.6096 8.47682 29.6264 8.6626C29.6093 8.86519 29.6264 9.03386 29.6768 9.18573C29.7443 9.30398 29.7954 9.37151 29.8629 9.37151C29.9133 9.37151 29.998 9.30398 30.049 9.18573L30.1159 8.6626L30.049 8.18989C29.998 8.05483 29.9133 7.9705 29.8629 7.9705ZM31.4998 8.32464H31.8717V10.485L31.4662 10.4006V9.18542L31.1964 9.11789C31.3483 9.01675 31.4494 8.74663 31.4998 8.32464ZM31.2639 9.54018C31.2639 9.38832 31.0442 9.32048 30.6225 9.32048C30.2002 9.32048 29.9808 9.38832 29.9808 9.54018C29.9808 9.67524 30.2002 9.74277 30.6225 9.74277L31.0778 9.69205C31.1964 9.64163 31.2639 9.59091 31.2639 9.54018ZM29.8458 9.74277C30.0652 9.74277 30.1838 9.7935 30.1838 9.89464C30.1838 9.97898 30.0652 10.0465 29.8458 10.0465C29.6435 10.0465 29.5417 9.97866 29.5589 9.89464C29.5421 9.7935 29.6435 9.74277 29.8458 9.74277ZM29.7615 9.54018C29.7615 9.38832 29.5417 9.32048 29.1201 9.32048C28.6813 9.32048 28.4619 9.38832 28.4784 9.54018C28.4619 9.67524 28.6813 9.74277 29.1201 9.74277C29.5421 9.74277 29.7615 9.67524 29.7615 9.54018ZM27.0948 9.1182C27.0948 9.30398 27.0105 9.38832 26.8244 9.38832L26.6221 9.32048C26.5675 9.26743 26.537 9.19432 26.5377 9.1182L26.6221 8.8988L26.8244 8.83127C27.0105 8.83127 27.0948 8.9153 27.0948 9.1182ZM26.8079 9.99578L27.3988 9.91144L27.1113 9.54018C26.9429 9.57379 26.7232 9.57379 26.4702 9.54018L26.2172 9.91144L26.8079 9.99578ZM22.7231 6.23183C22.7063 6.02955 22.7231 5.87737 22.8581 5.79304C23.1282 5.50611 23.6346 5.48931 24.411 5.77623L24.9173 5.9449C25.0017 6.13069 25.0692 6.33328 25.086 6.53587V6.55267C24.1241 6.48514 23.3984 6.55267 22.9596 6.75495C22.8245 6.58628 22.7231 6.38369 22.7231 6.23183ZM22.2167 6.16461C22.2167 5.91098 22.2843 5.65829 22.4529 5.48931C22.8413 5.10124 23.6346 5.10124 24.7823 5.48962L24.6811 4.9833C24.3942 4.81432 23.9554 4.71349 23.3984 4.64565C22.7231 4.56131 22.2167 4.5778 21.7951 4.67925C21.2716 4.81432 21.0186 5.06732 21.0354 5.4557C21.0522 5.9281 21.4574 6.58659 22.2675 7.37984L22.588 6.99146C22.3854 6.72134 22.2675 6.45153 22.2167 6.16461ZM21.7951 8.32464H22.1156C22.1831 8.76374 22.3014 9.01675 22.4533 9.11789L22.1495 9.18542V10.4006L21.7783 10.485L21.7951 8.32464ZM23.7696 7.9705C23.7189 7.9705 23.6514 8.05483 23.6178 8.18989C23.5502 8.32464 23.5163 8.47682 23.5163 8.6626C23.5163 8.86519 23.5502 9.03386 23.6178 9.18573C23.6514 9.30398 23.7189 9.37151 23.7696 9.37151C23.854 9.37151 23.9044 9.30398 23.9551 9.18573C23.989 9.03355 24.0058 8.86488 24.0058 8.6626C24.0058 8.46001 23.989 8.30784 23.9551 8.18989C23.9047 8.05483 23.82 7.9705 23.7696 7.9705ZM25.7613 8.52754L26.2508 8.79766L26.2172 9.1182C26.2004 9.28687 26.2172 9.38832 26.2508 9.45585L25.7952 9.7935L25.7277 9.1182C25.7109 8.79766 25.7277 8.59507 25.7613 8.52754ZM23.7699 9.74277C23.5673 9.74277 23.4659 9.7935 23.4827 9.89464C23.4659 9.97866 23.5673 10.0465 23.7699 10.0465C24.0061 10.0465 24.1244 9.97898 24.1244 9.89464C24.1244 9.7935 24.0061 9.74277 23.7699 9.74277ZM24.5461 9.74277C24.107 9.74277 23.8876 9.67524 23.8876 9.54018C23.8876 9.38832 24.1073 9.32048 24.5461 9.32048C24.9677 9.32048 25.1703 9.38832 25.1703 9.54018C25.1706 9.67524 24.9681 9.74277 24.5461 9.74277ZM23.0439 9.32048C22.6048 9.32048 22.3857 9.38832 22.4025 9.54018C22.3857 9.67524 22.6048 9.74277 23.0439 9.74277C23.4659 9.74277 23.6517 9.67524 23.6517 9.54018C23.6517 9.38832 23.4659 9.32048 23.0439 9.32048Z" fill="black"/>
<path d="M28.1245 3.41298L27.6686 3.32864L27.9052 3.78455L28.1245 3.41298Z" fill="black"/>
<path fill-rule="evenodd" clip-rule="evenodd" d="M28.7317 3.07533V2.2992L27.1794 2.50179L27.3817 1.6407L26.8079 1.25264L26.2172 1.6407L26.4366 2.50179L24.8669 2.2992V3.07533L26.4366 2.95739L26.0143 4.93226L26.8079 4.25727L27.5843 4.93226L27.1794 2.95739L28.7317 3.07533ZM27.2974 6.67093C27.2974 6.46834 27.1284 6.36688 26.8079 6.36688C26.4534 6.36688 26.3012 6.46834 26.3012 6.67093C26.3012 6.73815 26.3351 6.80599 26.4195 6.85671L26.6896 6.90713L26.0485 7.61604H27.5504L26.8757 6.90713L27.1626 6.85671C27.2631 6.80568 27.2974 6.75495 27.2974 6.67093ZM26.8079 4.99948L27.4997 5.64117L26.8079 6.23182L26.1326 5.64117L26.8079 4.99948Z" fill="black"/>
<path fill-rule="evenodd" clip-rule="evenodd" d="M30.3359 3.22751L30.0823 3.81848L30.7237 3.78455L30.3359 3.22751ZM25.5083 3.41298L25.7109 3.78455L25.9471 3.32865L25.5083 3.41298ZM33.4582 5.57364L33.8799 6.09707L33.255 6.19821L33.4582 5.57364ZM33.1541 7.59954L32.9176 6.99146L32.5299 7.51459L33.1541 7.59954ZM32.9855 12.4434C33.0365 12.5277 33.0527 12.7132 33.0194 12.9497C30.9941 12.224 28.9178 11.8524 26.8082 11.8527C24.715 11.8527 22.6219 12.2243 20.5966 12.95C20.5462 12.7303 20.5462 12.5616 20.5966 12.4605L20.9679 12.2579V11.262C22.8416 10.6543 24.7826 10.3505 26.8082 10.3505C28.8338 10.3505 30.7744 10.6543 32.6653 11.262V12.2579C32.8165 12.3083 32.9351 12.3758 32.9855 12.4434ZM31.4833 11.3797C31.6184 11.3968 31.6856 11.5315 31.6688 11.7341C31.6184 11.886 31.5337 11.9706 31.3647 11.9706L30.2846 11.7005C30.1156 11.6498 30.0652 11.5487 30.0991 11.3632C30.0991 11.2957 30.1324 11.2449 30.1999 11.1774C30.2503 11.1267 30.3179 11.1099 30.3689 11.1267L31.4833 11.3797ZM29.1711 11.2278C29.1711 11.0255 29.1033 10.9244 28.9682 10.9073L27.8208 10.8229C27.6686 10.8058 27.5843 10.8902 27.5843 11.0928C27.5672 11.2785 27.6347 11.3629 27.7866 11.3797L28.9178 11.4811C29.0697 11.4979 29.154 11.3968 29.1711 11.2278ZM25.9471 10.8734C25.9978 10.9241 26.0143 10.9745 26.0143 11.0759C26.0143 11.2785 25.9471 11.3629 25.7781 11.3629L24.6472 11.4808C24.5965 11.4808 24.5461 11.464 24.495 11.3965L24.4278 11.1771L24.495 10.9745C24.529 10.9241 24.5797 10.8902 24.6472 10.907L25.761 10.8058C25.8117 10.789 25.8964 10.8229 25.9471 10.8734ZM23.3984 11.1774C23.3648 11.1267 23.2801 11.1099 23.2294 11.1267L22.1156 11.3797C21.9973 11.3968 21.9298 11.5319 21.9469 11.7341C21.9973 11.8863 22.0817 11.9706 22.2167 11.9706L23.3476 11.7005L23.4824 11.5655C23.5163 11.4979 23.5331 11.4139 23.5163 11.3632L23.3984 11.1774Z" fill="black"/>
<path fill-rule="evenodd" clip-rule="evenodd" d="M33.4411 14.0634C31.3315 13.1354 29.1201 12.6627 26.8079 12.6627C24.5283 12.6581 22.2735 13.1354 20.1915 14.0634C18.1491 14.9581 16.3432 16.2409 14.7732 17.8949C13.2038 19.5321 11.9883 21.4227 11.1104 23.583C10.2328 25.8109 9.79399 28.1234 9.79399 30.5542C9.79399 33.7611 10.5704 36.7654 12.1233 39.5839C12.0726 39.635 12.039 39.6854 12.0897 39.7529C12.1065 39.8033 12.1572 39.8204 12.2077 39.7868L13.5072 39.0272L15.4653 43.7699L17.2376 42.7908C17.4162 42.8761 17.5993 42.9613 17.7824 43.0466L17.7824 43.0466L17.7827 43.0467C17.9624 43.1304 18.1422 43.2141 18.3177 43.2978L18.436 43.5001L18.0815 43.9056C18.0476 43.9731 18.0476 44.0235 18.098 44.0739C18.1656 44.1072 18.1995 44.1072 18.2499 44.0739L20.2248 46.9092L21.3389 45.8129C21.3896 45.8633 21.4571 45.8294 21.5078 45.7286L21.8791 44.5469L21.1702 44.2765C21.1342 44.2485 21.0944 44.2257 21.0519 44.209L21.0012 44.1246L22.0478 44.3107L22.1828 44.8171L21.8623 45.8801L21.9298 46.032L22.0481 46.0155L23.9725 48.0408L24.9005 46.7244C25.0017 46.7073 25.0356 46.674 25.0524 46.5893L25.2043 45.3234L24.6472 45.2558L24.4614 44.6652L26.014 44.7495V45.3738L25.4233 45.3573L25.3561 46.6397L25.4233 46.7412H25.508L26.8076 48.243L28.0732 46.7241H28.1918L28.2422 46.6061L28.1747 45.357L27.5498 45.3735L27.5837 44.7492L29.1198 44.6649L28.9679 45.2555L28.394 45.3399L28.5459 46.6058C28.5459 46.7067 28.6134 46.7409 28.6978 46.7238L29.6258 48.0401L31.4992 46.0314H31.6517C31.685 45.9981 31.7021 45.9305 31.685 45.8795L31.3641 44.9008L31.5502 44.3101L32.5968 44.1072L32.5629 44.2087C32.5461 44.1925 32.5138 44.2244 32.4646 44.2731L32.4614 44.2762L31.7192 44.5637L32.107 45.7447C32.158 45.8291 32.2255 45.8462 32.2759 45.8129L33.3729 46.9092L35.3478 44.0739C35.4153 44.1072 35.4492 44.1072 35.4997 44.0739C35.5336 44.0235 35.5336 43.9731 35.4997 43.9056L35.1452 43.5001L35.2631 43.2978L36.3601 42.7908L38.1495 43.7699L40.074 39.0272L41.3735 39.7868C41.424 39.8201 41.475 39.8033 41.5425 39.7529C41.559 39.6854 41.5425 39.635 41.475 39.5839C43.0444 36.7825 43.8376 33.7782 43.8376 30.5542C43.8376 28.1234 43.3988 25.8109 42.5047 23.583C41.6433 21.4227 40.4284 19.5321 38.8416 17.8949C37.2729 16.2409 35.467 14.9581 33.4411 14.0634ZM36.7155 17.7094C36.699 17.7434 36.6822 17.7938 36.699 17.8781L37.0868 18.4688C36.5633 18.1647 35.9733 17.8949 35.3655 17.6584L34.7578 16.2577C35.4452 16.6928 36.0995 17.178 36.7155 17.7094ZM29.2723 14.4686L29.1372 15.4984L29.3055 16.2241L29.711 16.258L29.2723 14.4686ZM29.0525 14.1478L28.9175 15.363L27.5498 15.2279L27.5165 14.0463L29.0525 14.1478ZM28.9007 15.5998L27.5501 15.4644L27.584 16.089L29.0525 16.1734L28.9007 15.5998ZM31.3483 15.7853L30.926 14.5869L32.5974 15.1607L32.2766 16.1394L31.3483 15.7853ZM31.4158 16.0551L31.5841 16.5278L32.4116 16.7133L32.2262 16.3588L31.4158 16.0551ZM33.475 17.0005L32.6811 16.764L32.4452 16.3084L32.7826 15.3294C32.9519 15.5998 33.1878 16.1566 33.475 17.0005ZM33.3735 20.1567L32.4113 19.9541L32.5128 20.4268L33.4915 20.6123L33.3735 20.1567ZM33.5929 20.0892L34.1836 19.2284L34.572 20.8317L33.7277 20.663L33.5929 20.0892ZM33.424 19.9205L34.0488 19.009L32.1583 18.6038L32.3438 19.6843H32.3609L33.424 19.9205ZM29.7443 19.3127L30.2342 18.5024L30.5715 20.1396L29.8962 20.0385L29.7443 19.3127ZM29.5931 19.1948L30.0994 18.3001L27.669 18.1146L27.7023 19.009L29.5931 19.1948ZM29.5589 19.4142L29.6597 20.0388L27.7359 19.9712L27.7187 19.2287L29.5589 19.4142ZM27.7695 21.8618L27.7866 22.5368L30.1159 22.6886L30.7576 22.0472L27.7695 21.8618ZM30.3692 26.9757L27.8541 26.8406L27.8376 26.0813L31.2297 26.2332L30.3692 26.9757ZM30.2174 24.0053L30.0823 22.9251L27.7869 22.7397L27.8208 23.8874L30.2174 24.0053ZM30.4368 24.005L30.2849 22.8237L30.9263 22.1991L31.1628 24.0728L30.4368 24.005ZM32.9852 23.2114L34.0317 23.4311L34.825 22.7051L32.8501 22.2831L32.9852 23.2114ZM33.3735 27.0096L33.3231 26.419L35.4159 26.7395L34.4879 27.1783L33.3735 27.0096ZM33.0191 23.4483L33.137 24.2751L34.1164 24.4099L33.9642 23.6677L33.0191 23.4483ZM38.0154 20.6462L38.4542 22.2327L37.6438 21.8615L37.4748 21.1862L38.0154 20.6462ZM40.2772 22.064L39.619 21.5409L40.0575 23.1778L41.2052 23.9711L40.2772 22.064ZM37.4076 21.7771L36.5633 21.4563L36.395 20.7981L37.2386 21.2033L37.4076 21.7771ZM36.3278 20.4947L37.3233 21.0007L37.8638 20.4772C37.2389 20.1399 36.6318 19.8866 36.0744 19.6843L36.3278 20.4947ZM37.1207 24.1572L37.8635 24.4945L37.9815 25.2034L37.2558 25.0011L37.1207 24.1572ZM36.9346 23.2286L37.0703 23.9207C37.3824 24.0572 37.6975 24.1867 38.0154 24.309L38.6901 23.9207L36.9346 23.2286ZM34.9772 22.8576L35.298 24.5624L34.3529 24.4441L34.1839 23.6004L34.9772 22.8576ZM38.8422 24.0728L38.1 24.5284L38.218 25.2541L39.0283 25.4735L38.8422 24.0728ZM41.02 25.6932L40.547 25.3724L40.429 24.7478L41.6272 25.4739L41.02 25.6932ZM40.6821 26.0306L40.9525 26.1488L40.9014 25.8787L40.6316 25.6932L40.6821 26.0306ZM41.2223 26.2329L41.138 25.8784L41.7793 25.6593L41.9987 26.5708L41.2223 26.2329ZM41.6611 28.5286L42.1674 28.1741L40.9522 27.8875L41.0197 28.3767L41.6611 28.5286ZM41.8634 31.3135L42.4036 31.2802L42.3022 32.5122L41.7283 32.1067L41.8634 31.3135ZM41.779 28.7309L41.8466 29.3557L42.3868 29.4062L42.3025 28.3764L41.779 28.7309ZM41.6272 32.2925L42.117 32.6638L40.9014 33.0011L40.9525 32.4615L41.6272 32.2925ZM41.6782 35.3305L41.9309 34.3517L41.3402 34.6047L41.1884 35.1117L41.6782 35.3305ZM41.0362 28.63L41.5596 28.748L41.6272 29.3557L41.0875 29.3218L41.0362 28.63ZM39.197 27.5327L38.4203 28.0051L38.5049 29.2546H39.281L39.197 27.5327ZM38.218 28.0391L38.2855 29.2207L37.6441 29.2036L37.5766 27.904L38.218 28.0391ZM38.2852 27.8197L38.9776 27.3977L37.5256 27.0603L37.5766 27.6846L38.2852 27.8197ZM38.5049 31.415H39.281L39.197 33.2376L38.4203 32.7484L38.5049 31.415ZM35.7368 31.5164L34.7746 31.5497L34.6227 33.322L35.5678 33.8448L35.7368 31.5164ZM34.4201 27.3977L34.5552 29.1021H33.4411L33.3735 27.2626L34.4201 27.3977ZM34.6227 27.3641L34.7746 29.1364H35.7368L35.5678 26.8746L34.6227 27.3641ZM37.5256 33.6936L37.5766 33.0858L38.2852 32.9339L39.0442 33.4069L37.5256 33.6936ZM37.6945 35.7699L37.2386 35.8707L37.1207 36.4281L37.5766 36.2756L37.6945 35.7699ZM34.538 33.5246L35.4156 34.0138L33.3228 34.2503L33.3732 33.6603L34.538 33.5246ZM40.9858 32.2082L41.5431 32.0903L41.644 31.3135H41.0362L40.9858 32.2082ZM37.9139 35.7017L38.9776 35.4319L38.7753 36.85L37.7963 36.2927L37.9139 35.7017ZM41.0362 35.3301L40.4795 35.6852L40.3273 36.2588L41.526 35.4991L41.0362 35.3301ZM41.0533 34.7233L40.9525 35.1117L40.5137 35.3986L40.6316 34.8917L41.0533 34.7233ZM38.218 32.7145L38.2684 31.415L37.6441 31.4657L37.5937 32.8496L38.218 32.7145ZM34.5552 31.55L34.4033 33.2881L33.3735 33.4237L33.424 31.55H34.5552ZM30.5211 27.1444L30.6225 29.0346L31.5505 29.0517C31.5337 28.1066 31.4662 27.2119 31.3987 26.385L30.5211 27.1444ZM27.8541 27.0603L30.3017 27.1783L30.4196 29.0346H27.8541V27.0603ZM27.8541 33.5588L30.3182 33.4237L30.4196 31.6004L27.8712 31.6175L27.8541 33.5588ZM27.8376 34.5372L27.8541 33.7944L30.3692 33.6599L31.23 34.3685L27.8376 34.5372ZM30.6225 31.6004L30.5382 33.4742L31.4155 34.2335C31.4662 33.5921 31.5334 32.6974 31.5505 31.5839L30.6225 31.6004ZM32.5299 40.445L33.4915 40.2589L33.3735 40.7824L32.4113 41.0351L32.5299 40.445ZM30.926 38.5884L31.1625 36.7825L30.4536 36.8329L30.2846 37.947L30.926 38.5884ZM33.0194 37.5415L33.1373 36.5799L34.2686 36.4281L34.0996 37.3221L33.0194 37.5415ZM34.1503 37.5415L32.9681 37.812L32.8672 38.5371L34.8079 38.1493L34.1503 37.5415ZM27.8205 36.9344L30.2342 36.85L30.0823 37.8792L27.7866 38.0653L27.8205 36.9344ZM30.1156 38.1154L27.7695 38.3015H27.7692V38.9597L30.7573 38.7742L30.1156 38.1154ZM29.7615 41.7617L29.9476 40.7656L30.5718 40.698L30.2345 42.3524L29.7615 41.7617ZM29.5589 41.6771L29.7278 40.7824L27.7191 40.8838L27.7019 41.846L29.5589 41.6771ZM29.5931 41.9307L30.0823 42.5207L27.6686 42.7068L27.7019 42.0486L29.5931 41.9307ZM29.7278 44.5799L29.3401 44.6474L29.154 45.3567L29.2719 46.2514L29.7278 44.5799ZM33.3907 41.0189L33.9984 41.846L32.1586 42.2677L32.3609 41.2887L33.3907 41.0189ZM33.5758 40.8841L34.1503 41.6431L34.5549 40.0227L33.7277 40.2088L33.5758 40.8841ZM32.8672 44.0568L33.5254 43.8713C33.3231 44.5637 33.1709 45.0025 33.0524 45.2048L32.715 44.3605L32.8672 44.0568ZM32.5302 44.4956L32.0068 44.6985L32.2937 45.6439L32.9015 45.4074L32.5302 44.4956ZM39.9731 37.8789L40.0236 37.8624L40.6313 38.1997L41.3237 39.4828L39.787 38.5881L39.9731 37.8789ZM40.9525 37.2042L40.2261 37.7276L40.5812 37.9299L40.9525 37.2042ZM38.3863 38.7403L37.9475 40.3103L37.2558 39.6686L37.4076 39.129L38.3863 38.7403ZM39.7198 38.8075L39.5515 39.3813L40.0407 38.9765L39.7198 38.8075ZM36.9013 37.6262L37.0868 36.7315L37.6945 36.4956L38.6057 37.0352L36.9013 37.6262ZM34.319 37.3732L34.9771 37.9803L35.2305 36.2756L34.5212 36.377L34.319 37.3732ZM37.1207 39.8204L37.796 40.4453C37.1378 40.7998 36.5468 41.0525 36.0066 41.2386L36.2764 40.2259L37.1207 39.8204ZM37.0535 39.601L37.1543 39.2466L36.4961 39.466L36.3611 39.939L37.0535 39.601ZM35.3145 44.0739L34.5723 44.5637L35.0615 43.7366L35.3145 44.0739ZM31.4662 45.9476L31.2639 45.2384L30.926 46.116L31.4662 45.9476ZM29.0862 46.5215L28.7659 46.5548L28.6474 45.5088L28.9682 45.4749L29.0862 46.5215ZM27.5168 46.6394H28.0231L27.9724 45.6097H27.5501L27.5168 46.6394ZM11.6002 26.5708L11.8364 25.6593L12.461 25.8784L12.3766 26.2329L11.6002 26.5708ZM22.2843 15.7853L22.6895 14.5869L20.9847 15.161L21.3392 16.1397L22.2843 15.7853ZM21.1705 16.3084L20.9172 16.764L20.1071 17.0005C20.4109 16.1566 20.6471 15.5998 20.7989 15.3294L21.1705 16.3084ZM22.0313 16.5281L22.1831 16.0554L21.3899 16.3591L21.1873 16.7136L22.0313 16.5281ZM26.099 14.0466L26.0146 15.2282L24.6475 15.3633L24.5464 14.1481L26.099 14.0466ZM24.4617 15.4984L24.3267 14.4686L23.8879 16.258L24.3099 16.2241L24.4617 15.4984ZM24.5461 16.1734L24.6811 15.5998L26.0143 15.4644V16.0887L24.5461 16.1734ZM18.8412 16.258C18.1659 16.6797 17.5077 17.1692 16.8663 17.7094C16.8999 17.7599 16.8999 17.8277 16.8831 17.8784L16.5118 18.4691C17.0699 18.1553 17.6511 17.8844 18.2502 17.6587L18.8412 16.258ZM17.2379 20.7981L17.0518 21.4563L16.191 21.7771L16.3768 21.2033L17.2379 20.7981ZM15.938 21.8618L16.1406 21.1865L15.5499 20.6465L15.1108 22.233L15.938 21.8618ZM17.5248 19.6843L17.2883 20.4947L16.2588 21.0007L15.7018 20.4772C16.4104 20.1399 17.0182 19.8698 17.5248 19.6843ZM19.3979 19.2287L19.0098 20.832L19.8367 20.6633L20.0225 20.0895L19.3979 19.2287ZM13.3049 22.064L13.9631 21.5409L13.5414 23.1781C13.2041 23.3639 12.8325 23.6169 12.4106 23.9714C12.6128 23.4143 12.9334 22.773 13.3049 22.064ZM14.8914 23.9207L15.5499 24.309L16.5118 23.9207L16.6469 23.2286C16.3432 23.33 15.7522 23.5665 14.8914 23.9207ZM14.7732 24.0728L15.516 24.5284L15.3978 25.2541L14.5538 25.4735L14.7732 24.0728ZM12.6128 26.1488L12.9334 26.0306L12.9841 25.6929L12.6972 25.8784L12.6128 26.1488ZM13.0348 25.3724L12.5792 25.6932L11.9886 25.4735L13.1531 24.7475L13.0348 25.3724ZM15.7186 24.4945L15.6343 25.2034L16.3432 25.0011L16.4611 24.1572L15.7186 24.4945ZM19.2632 24.4438L18.2841 24.562L18.6215 22.8573L19.3979 23.5998L19.2632 24.4438ZM25.9135 19.009L25.9303 18.1146L23.4998 18.3001L24.0061 19.1948L25.9135 19.009ZM25.9135 19.2287L25.8799 19.9712L23.9218 20.0388L24.0737 19.4142L25.9135 19.2287ZM23.82 19.313L23.3476 18.5027L23.0436 20.1402L23.7018 20.0391L23.82 19.313ZM25.8117 21.8618L25.7949 22.5368L23.4824 22.6886L22.841 22.0472L25.8117 21.8618ZM20.1915 19.9205L21.2209 19.6843L21.4739 18.6038L19.5669 19.009L20.1915 19.9205ZM20.2251 20.1567L21.1873 19.9541L21.0862 20.4268L20.0903 20.6123L20.2251 20.1567ZM19.5669 23.4315L20.5963 23.2117L20.7485 22.2834L18.7736 22.7054L19.5669 23.4315ZM20.2758 26.419L20.2422 27.0096L19.1278 27.1783L18.2163 26.7395L20.2758 26.419ZM20.4952 24.2751L20.5795 23.4483L19.6173 23.6673L19.5162 24.4099L20.4952 24.2751ZM23.314 22.8237L23.1454 24.005L22.4533 24.0725L22.6895 22.1988L23.314 22.8237ZM23.2294 26.9757L25.7613 26.8406H25.761V26.081L22.3686 26.2329L23.2294 26.9757ZM25.7613 23.887L23.3816 24.005L23.5166 22.9248L25.7784 22.739L25.7613 23.887ZM23.2801 27.1783L23.1958 29.0346V29.0349H25.7277V27.0603L23.2801 27.1783ZM22.9767 29.0346L22.0484 29.0517L22.1834 26.385L23.061 27.1444L22.9767 29.0346ZM20.1407 29.1021L20.2251 27.2626L19.1782 27.3977L19.0603 29.1021H20.1407ZM20.2251 33.6603L20.259 34.2503L18.2337 34.0138L19.0777 33.5246L20.2251 33.6603ZM22.0481 31.5836C22.0481 32.3769 22.0988 33.2716 22.1831 34.2332L23.0607 33.4738L22.9764 31.6001L22.0481 31.5836ZM23.2294 33.6603L25.7613 33.7947V34.5375L22.3689 34.3692L23.2294 33.6603ZM23.2636 33.4234L25.7613 33.5585L25.7109 31.6172L23.1958 31.6001L23.2636 33.4234ZM20.1407 31.5497L20.2251 33.4234L19.1785 33.2878L19.0606 31.5494H20.1407V31.5497ZM17.8621 29.1364H18.8244L18.9762 27.3641L18.014 26.8746L17.8621 29.1364ZM17.8618 31.5164L18.8241 31.5497L18.9759 33.322L18.0137 33.8448L17.8618 31.5164ZM15.9548 29.2039L16.0055 27.9043L15.3974 28.0394L15.3131 29.221L15.9548 29.2039ZM16.0899 27.0603L16.0223 27.6846L15.2966 27.8197L14.5877 27.3977L16.0899 27.0603ZM15.0769 29.2549L15.1784 28.0051L14.4019 27.5331L14.3005 29.2549H15.0769ZM12.039 28.7477L12.5621 28.6297L12.5117 29.3215L11.9883 29.3554L12.039 28.7477ZM12.5789 28.3764L12.6464 27.8872L11.4312 28.1738L11.9375 28.5283L12.5789 28.3764ZM14.3008 31.415H15.0772L15.1787 32.7484L14.3686 33.2376L14.3008 31.415ZM15.2966 32.9336L14.5538 33.4066L16.0899 33.6932L16.0055 33.0855L15.2966 32.9336ZM12.5789 32.2082L12.0729 32.0903L11.9378 31.3135H12.5453L12.5789 32.2082ZM12.6972 33.0011L12.6128 32.4615L11.9883 32.2925L11.4648 32.6638L12.6972 33.0011ZM12.2584 34.6047L12.4106 35.1117L11.9042 35.3305L11.6509 34.3517L12.2584 34.6047ZM12.9841 34.8917L12.5285 34.7233L12.6464 35.1117L13.0684 35.3986L12.9841 34.8917ZM12.0729 35.4994L12.5453 35.3305L13.1531 35.6855L13.2545 36.2594L12.0729 35.4994ZM15.7018 35.7017L14.5877 35.4319L14.8242 36.8497L15.7861 36.2924L15.7018 35.7017ZM15.938 35.7699L16.3768 35.8707L16.4611 36.4281L16.0055 36.2756L15.938 35.7699ZM15.9887 32.8493L15.938 31.4654L15.3134 31.4146L15.3641 32.7142L15.9887 32.8493ZM19.0942 36.377L19.28 37.3732L18.6386 37.9803L18.3177 36.2753L19.0942 36.377ZM16.6805 37.6262L16.5118 36.7315L15.938 36.4959L15.0097 37.0355L16.6805 37.6262ZM16.1742 39.1286L16.3429 39.6683L15.6679 40.31L15.212 38.74L16.1742 39.1286ZM17.2883 40.2259L16.4782 39.8204L15.7861 40.4453C16.4275 40.7656 17.035 41.0357 17.592 41.2386L17.2883 40.2259ZM16.4443 39.2466L17.1025 39.466L17.2376 39.939L16.5455 39.601L16.4443 39.2466ZM12.6464 37.2042L13.0009 37.9299L13.3554 37.7276L12.6464 37.2042ZM12.9841 38.1997L13.5919 37.8624L13.6426 37.8789L13.8452 38.5881L12.2584 39.4999L12.9841 38.1997ZM13.8788 38.8078L13.5919 38.9768L14.0646 39.3816L13.8788 38.8078ZM18.2673 44.0739L18.5371 43.7366C18.7061 44.091 18.8748 44.3608 19.0438 44.5637L18.2673 44.0739ZM25.8288 38.9597L25.7952 38.3015L23.4827 38.1154L22.8245 38.7742L25.8288 38.9597ZM23.1454 36.8329L23.314 37.947L22.6895 38.5884L22.4533 36.7825L23.1454 36.8329ZM23.3813 36.8497L23.5163 37.8789L25.7949 38.0647L25.761 36.9341L23.3813 36.8497ZM20.09 40.2592L21.0519 40.4453L21.187 41.0354L20.2248 40.7827L20.09 40.2592ZM20.6471 37.812L19.4318 37.5415L18.7733 38.1493L20.7314 38.5371L20.6471 37.812ZM20.4952 36.5799L20.5963 37.5415L19.5162 37.3221L19.3304 36.4281L20.4952 36.5799ZM19.4318 41.6431L20.0225 40.8841L19.837 40.2088L19.0606 40.0227L19.4318 41.6431ZM20.2083 41.0189L21.2209 41.2887L21.4403 42.2677L19.6005 41.846L20.2083 41.0189ZM20.9169 44.4113L20.7482 44.0568L20.0561 43.8716C20.2587 44.5298 20.4274 44.9857 20.5624 45.2555L20.9169 44.4113ZM21.1195 44.4956L21.609 44.6985L21.3052 45.6436L20.7482 45.4242L21.1195 44.4956ZM25.9303 42.7068V42.0486L24.0061 41.9307L23.5166 42.5207L25.9303 42.7068ZM25.8796 40.8841L25.9132 41.8463L24.0566 41.6774L23.8708 40.7827L25.8796 40.8841ZM23.82 41.7617L23.6514 40.7656L23.0436 40.698L23.3813 42.3524L23.82 41.7617ZM23.8876 44.5799L24.242 44.6474L24.4278 45.3567L24.3264 46.2514L23.8876 44.5799ZM11.7349 31.3132L11.195 31.2799L11.3301 32.5119L11.8364 32.1064L11.7349 31.3132ZM11.3133 28.3764L11.8364 28.7309L11.7689 29.3557L11.2118 29.4062L11.3133 28.3764ZM26.0986 46.6394L26.0143 45.6097H25.643L25.5923 46.6394H26.0986ZM24.4953 46.5215L24.6475 45.4749L24.9513 45.5088L24.8159 46.5548L24.4953 46.5215ZM22.6891 46.116L22.3179 45.188L22.0478 45.9305L22.6891 46.116Z" fill="black"/>
<path fill-rule="evenodd" clip-rule="evenodd" d="M43.1629 21.423C41.8129 18.6885 39.9056 16.4267 37.5091 14.6544L42.3022 7.60017C45.7795 10.2158 48.4972 13.4566 50.4889 17.4232C52.5474 21.4905 53.5772 25.8455 53.5772 30.4873C53.5772 35.3308 52.4634 39.8376 50.2524 44.0571C48.0917 48.1251 45.1888 51.4506 41.4756 53.999L36.5633 47.045C39.2135 45.2727 41.3402 42.9599 42.8931 40.1074C44.4964 37.137 45.2897 33.9133 45.2897 30.487C45.2897 27.263 44.5811 24.2583 43.1629 21.423ZM41.1208 12.0043C40.5809 12.5277 40.294 13.1859 40.2601 13.9287C40.2261 14.722 40.4966 15.4309 41.0879 16.0555C41.6446 16.6461 42.2866 16.9666 42.9952 16.9834C43.7209 17.0006 44.3791 16.7304 44.9869 16.1395C45.5604 15.5149 45.8644 14.8231 45.8644 14.0635C45.8644 13.3041 45.5937 12.6288 45.0541 12.0214C44.4967 11.4136 43.8382 11.1099 43.0786 11.1099C42.37 11.1099 41.7115 11.3968 41.1208 12.0043ZM48.1421 17.3043L47.8387 17.3718L46.2687 18.3172C46.4881 18.7224 46.7075 18.925 46.944 18.9754C47.1799 18.9922 47.5007 18.9586 47.8891 18.8236L47.9734 18.9922L45.6948 20.3596L45.6105 20.1739C45.9478 19.904 46.1508 19.6507 46.2348 19.4145C46.3362 19.1783 46.2687 18.8575 46.0835 18.4694L44.4964 19.4313C44.2941 19.5493 44.1762 19.7015 44.1924 19.8701C44.2095 20.0052 44.2938 20.2078 44.4457 20.4779L44.2938 20.5962L42.8595 18.0474L43.045 17.946L43.3823 18.3176L43.8722 18.2839L47.1295 16.3091C47.3156 16.174 47.3999 16.0561 47.3999 15.8871C47.3999 15.7691 47.3489 15.5831 47.2642 15.3808L47.4161 15.2796L49.6272 19.3134L48.2772 20.1406L48.1757 19.9719C48.547 19.5835 48.7496 19.263 48.8174 18.9929C48.8672 18.6555 48.7493 18.2164 48.4455 17.6765L48.4192 17.6366C48.2998 17.4554 48.2211 17.3359 48.1421 17.3043ZM47.7201 24.2412L47.6868 24.005L45.796 24.4099L45.8464 24.6467L46.0319 24.6803L46.1676 24.8322V25.2035C46.1165 25.4397 46.1 25.6254 46.1165 25.7098L46.1676 26.2329C46.3188 26.9421 46.5892 27.4145 46.9941 27.6507C47.3654 27.8872 47.7709 27.9545 48.1757 27.8701C48.547 27.8197 48.8675 27.6003 49.1208 27.2119C49.2483 26.9778 49.3447 26.7281 49.4078 26.4691L49.5767 25.7941L49.6215 25.6331C49.7638 25.1209 49.8512 24.8061 49.8976 24.7139C49.9987 24.545 50.1677 24.4438 50.4204 24.3595C50.5894 24.3091 50.7752 24.3427 50.9606 24.4945C51.1461 24.6125 51.2476 24.8154 51.2986 25.0852C51.3826 25.4565 51.3151 25.8109 51.0957 26.1486C50.8588 26.4687 50.5604 26.7383 50.2181 26.9418L50.252 27.1612L51.9058 26.79L51.8718 26.5706L51.6531 26.5198C51.602 26.4862 51.5687 26.4187 51.5516 26.3512L51.5687 25.8448C51.5852 25.5072 51.5687 25.2203 51.5012 24.9838C51.3826 24.3763 51.1461 23.9879 50.7755 23.7853C50.4204 23.5827 50.0491 23.5155 49.6614 23.5998C49.3234 23.6671 49.0533 23.8529 48.851 24.123C48.6481 24.427 48.4798 24.8319 48.3618 25.3721L47.9563 26.6549C47.8384 26.8575 47.6865 26.9925 47.4671 27.0262C47.2477 27.0601 47.0283 27.0262 46.8594 26.925C46.64 26.8068 46.4881 26.5706 46.4377 26.1993C46.3533 25.828 46.4209 25.4733 46.6232 25.1359C46.7921 24.7815 47.1634 24.4777 47.7201 24.2412ZM51.5015 29.3558C51.9907 29.9807 52.2101 30.6893 52.1429 31.5501C52.0586 32.3772 51.7206 33.0186 51.1978 33.5249C50.6404 34.0484 49.9657 34.2678 49.1557 34.2002C48.3453 34.0988 47.6871 33.7785 47.1802 33.2041C46.7249 32.5627 46.5388 31.8541 46.6063 31.044C46.6745 30.1833 47.0118 29.508 47.6025 29.002C48.1421 28.5289 48.818 28.3267 49.5602 28.3771C50.3703 28.4611 51.0117 28.7991 51.5015 29.3558ZM51.6026 35.8374L51.4172 35.7864L51.096 36.2417L50.5222 36.1574L48.0746 35.3302C47.6193 35.1789 47.248 35.1447 46.944 35.2122C46.3362 35.3983 45.8974 35.9212 45.6105 36.7987C45.4082 37.474 45.425 38.0485 45.6609 38.5038C45.8974 38.9093 46.3362 39.2301 46.9944 39.466L49.3234 40.2593C49.5767 40.3439 49.7118 40.4282 49.7457 40.5462C49.7961 40.6476 49.7961 40.8331 49.7457 41.0864L49.948 41.154L50.4882 39.466L50.2853 39.3817C50.1674 39.7025 50.0491 39.8715 49.9141 39.9219L49.3234 39.9048L47.0454 39.1287C46.6232 38.9597 46.3362 38.7742 46.1679 38.6052C45.796 38.2679 45.6952 37.812 45.9146 37.2042C46.0325 36.715 46.3365 36.4281 46.7753 36.411L47.6871 36.546L50.1683 37.4236C50.421 37.4912 50.59 37.6088 50.6575 37.7445C50.7079 37.8789 50.6743 38.0818 50.59 38.3858L50.7761 38.4534L51.6026 35.8374ZM45.0538 39.1791L45.1888 39.297C45.0538 39.5336 45.0027 39.7187 45.0538 39.8715C45.0871 40.0066 45.1888 40.1413 45.3407 40.2422L48.4462 42.3524L49.071 42.2005L49.2733 42.0648L49.4252 42.1834L48.5305 43.652L44.3446 44.1244L46.2519 45.475C46.5052 45.61 46.6907 45.6772 46.7921 45.6611C46.9272 45.6439 47.0962 45.5092 47.2985 45.2727L47.4674 45.4077L46.5388 46.8592L46.3705 46.7412C46.4713 46.5047 46.5388 46.3196 46.5055 46.2349C46.5055 46.1335 46.4041 46.0155 46.2015 45.8637L42.3529 43.2306L42.4879 43.0616L47.8222 42.4034L45.29 40.614C45.0877 40.479 44.9355 40.4118 44.8176 40.4118C44.6153 40.4118 44.4292 40.5636 44.2608 40.8334L44.0919 40.7155L45.0538 39.1791ZM42.3025 45.0187C42.1503 44.8669 42.117 44.6985 42.1674 44.5295C42.2178 44.411 42.286 44.2762 42.4042 44.124L42.2692 44.0061L40.5137 45.8126C39.872 46.4537 39.568 47.1794 39.5851 47.9898C39.6022 48.6984 39.872 49.3061 40.3618 49.8125C40.9014 50.4202 41.4924 50.7072 42.1506 50.7072C42.8598 50.7243 43.5855 50.4031 44.2608 49.6945L45.9653 47.9222L45.7963 47.7865L45.4418 48.057C45.2735 48.0741 45.1045 48.0402 44.9866 47.9051L42.3025 45.0187Z" fill="black"/>
<path fill-rule="evenodd" clip-rule="evenodd" d="M23.5334 3.81848L23.2633 3.22751L22.892 3.78455L23.5334 3.81848ZM41.1719 14.2153C40.8168 14.8738 40.8678 15.4309 41.2562 15.8865C41.6611 16.3084 42.1842 16.3592 42.8427 16.0383C43.1629 15.8525 43.5513 15.5488 44.0072 15.0932C44.615 14.4518 44.9862 13.8948 45.0874 13.4392C45.2224 12.9497 45.1384 12.5277 44.868 12.224C44.4463 11.7681 43.9229 11.7341 43.2647 12.0721C42.9102 12.2747 42.5219 12.5952 42.117 13.0004C41.6611 13.4392 41.3574 13.8441 41.1719 14.2153ZM50.927 30.1487C50.6236 30.0137 50.1338 29.9122 49.4927 29.8618L48.0074 29.9122C47.2988 30.0641 46.9272 30.4524 46.8933 31.0602C46.7924 31.6845 47.1127 32.1404 47.8051 32.4273C48.1424 32.5453 48.6323 32.6638 49.2736 32.7482C50.1008 32.8157 50.7422 32.731 51.1639 32.5117C51.6026 32.2923 51.8392 31.9714 51.8725 31.5161C51.9064 30.9087 51.6023 30.4528 50.927 30.1487ZM41.1205 45.7283C41.2223 45.7445 41.3402 45.8291 41.4246 45.9305L44.0919 48.8172L44.2941 49.087C44.3113 49.2221 44.2269 49.34 44.0919 49.4919C43.6531 49.9475 43.1296 50.015 42.4879 49.7452C42.0999 49.5429 41.7115 49.2389 41.3402 48.8505C40.6989 48.1752 40.3615 47.6185 40.3105 47.1287C40.3105 46.6392 40.4795 46.2514 40.8003 45.9305C40.9011 45.8126 41.0026 45.7283 41.1205 45.7283ZM20.0561 4.05436L20.681 4.22335L20.2251 4.69606L20.0561 4.05436ZM22.1153 3.78455L21.7272 3.22751L21.4739 3.85208L22.1153 3.78455ZM19.7524 6.09707L20.1407 5.57364L20.3601 6.19821L19.7524 6.09707ZM20.4784 7.59954L21.1195 7.51459L20.7314 6.99146L20.4784 7.59954ZM15.9716 14.7391C13.6087 16.545 11.7349 18.8068 10.4186 21.5241C9.00074 24.3091 8.30895 27.2966 8.30895 30.4867C8.30895 33.8959 9.119 37.0863 10.7394 40.0567C12.2926 42.943 14.4022 45.2216 17.086 46.9771L12.1239 53.9984C8.42721 51.45 5.50722 48.1245 3.38049 44.0565C1.16942 39.8373 0.0553284 35.3302 0.0553284 30.4867C0.0553284 25.8784 1.05117 21.5578 3.07645 17.4901C5.03451 13.5739 7.71829 10.3334 11.1446 7.71718L15.9716 14.7391ZM11.026 10.0465L10.8574 10.3166C10.8237 10.401 10.8237 10.5021 10.8574 10.6372L11.3976 13.5739L12.3934 14.6544C12.5792 14.8738 12.7479 14.975 12.8998 14.975C13.0348 14.975 13.2038 14.8906 13.4064 14.688L13.5243 14.8738L11.5663 16.764L11.4312 16.6125C11.6167 16.3928 11.7349 16.2241 11.7349 16.0891C11.7685 15.9372 11.6674 15.7853 11.4648 15.5827L10.6884 14.6883L7.90346 13.7264L7.38033 13.6925L7.14382 13.8444L7.00907 13.6922L8.89929 11.8524L9.05116 11.9706L8.6967 12.4094C8.66309 12.4602 8.6799 12.5277 8.73031 12.5952L8.83176 12.6796L11.0257 13.5235L10.7727 11.802L10.6884 11.4811L10.4858 11.0591C10.4015 10.9412 10.2832 10.9073 10.1989 10.9412L9.79368 11.262L9.64182 11.1102L10.8907 9.87783L11.026 10.0465ZM8.02171 17.3718C8.12316 17.1356 8.13997 16.8319 8.12316 16.511C8.05563 16.1059 7.85304 15.7853 7.48116 15.5143C6.99164 15.2105 6.48532 15.2781 5.99581 15.7169C5.7428 15.9195 5.47268 16.2742 5.18576 16.7802L3.88619 19.0591L4.05486 19.1942L4.42612 18.7722C4.56118 18.7215 4.76377 18.7722 5.03389 18.9241L8.0046 20.8314C8.24111 20.9662 8.39266 21.1183 8.40978 21.2702C8.42658 21.3885 8.39297 21.5742 8.2576 21.8273L8.44339 21.9284L9.79368 19.5487L9.62501 19.4307C9.43922 19.7005 9.30447 19.8188 9.18622 19.8356C9.06796 19.8863 8.89898 19.8191 8.66278 19.684L7.32929 18.8229L7.41363 18.6543L10.4011 18.5024L11.2115 17.0678L11.0428 16.9666L10.9249 17.1017L10.7391 17.1692L8.02171 17.3718ZM3.76824 20.832C3.63318 20.95 3.46451 21.2372 3.29553 21.6424L7.26208 23.1782L7.85273 23.2118C7.98779 23.1614 8.08893 22.9753 8.22399 22.6379L8.41009 22.7055L7.41425 25.5411L7.24527 25.4568C7.34641 25.1527 7.38064 24.9165 7.32961 24.7815C7.26208 24.6635 7.09341 24.5285 6.84009 24.4438L2.85674 22.908C2.7388 23.2961 2.68807 23.6166 2.72168 23.8532C2.77241 24.3088 3.07614 24.6635 3.61638 24.9165L3.53204 25.1698L2.01308 24.5621L3.6503 19.8023L5.18638 20.3593L5.11885 20.6123C4.545 20.4608 4.08909 20.5451 3.76824 20.832ZM1.65863 25.9634L1.86122 26.0813C1.87195 26.1028 1.87583 26.1381 1.88169 26.1915C1.885 26.2217 1.88895 26.2576 1.89514 26.3001L1.70966 26.7557C1.59141 27.0255 1.50707 27.2956 1.49027 27.5994C1.42274 28.19 1.54099 28.663 1.82792 29.0004C2.13165 29.3044 2.4861 29.5067 2.85736 29.5742C3.19502 29.5914 3.49875 29.5238 3.78567 29.3548C4.0894 29.1526 4.37664 28.7981 4.64676 28.3083L4.9841 27.8191C5.18669 27.4814 5.32175 27.2788 5.42289 27.2113C5.59187 27.0426 5.79415 26.9919 6.01386 27.0087C6.21645 27.0258 6.40192 27.1441 6.58771 27.3128C6.73988 27.4985 6.8071 27.7855 6.77349 28.1735C6.70596 28.5619 6.53729 28.8831 6.23325 29.1358C5.92921 29.4059 5.47361 29.5577 4.89976 29.6088L4.86584 29.8615L6.8071 30.1142L6.85752 29.8615L6.72246 29.8111L6.65493 29.7771L6.5874 29.5749L6.65493 29.4059L6.72246 29.2546L6.90824 28.7477C6.95866 28.5965 7.00938 28.4275 7.02619 28.2414C7.07691 27.5157 6.95866 26.9757 6.65493 26.5874C6.35088 26.2497 5.99643 26.0303 5.62517 25.946C5.20318 25.9121 4.81481 26.0306 4.46035 26.3007L3.63318 27.4652C3.31265 27.9719 3.07645 28.2927 2.95819 28.4107C2.82313 28.5457 2.62054 28.5968 2.36754 28.5796C2.16464 28.5454 2.01308 28.4275 1.87802 28.2756C1.75977 28.0727 1.69224 27.8365 1.75977 27.6003C1.79369 27.1783 1.96267 26.8578 2.30001 26.6384C2.60374 26.3851 2.975 26.2332 3.38018 26.1489L3.39729 25.9463L1.67543 25.7269L1.65863 25.9634ZM6.55348 31.1109C6.6042 30.942 6.62101 30.7397 6.6042 30.5032L6.80679 30.4867L7.04299 33.44H6.8404C6.80679 33.1873 6.77287 33.0183 6.70534 32.9508C6.5874 32.7818 6.41842 32.7142 6.21582 32.7485L2.31681 33.0687C2.08061 33.0858 1.91163 33.1701 1.86122 33.3727L1.79369 33.8626L1.6079 33.8959L1.37139 30.9255L1.5911 30.9084C1.6079 31.1617 1.64182 31.33 1.69224 31.4651C1.77657 31.6001 1.92875 31.6845 2.21536 31.6845L6.11469 31.3471C6.31696 31.3303 6.46914 31.246 6.55348 31.1109ZM7.34672 34.3178L7.296 34.0985L2.82313 35.5667C2.55332 35.6177 2.38465 35.6177 2.33362 35.5667C2.24928 35.4992 2.14814 35.3644 2.047 35.1279L1.86122 35.1789L2.33393 36.8663L2.55363 36.8158C2.46899 36.546 2.4861 36.3266 2.57044 36.1577C2.62116 36.0397 2.78983 35.9215 3.05996 35.8374L5.32175 35.1621L2.9417 38.9258L3.43153 40.6137L3.63381 40.5462V40.2764L3.97146 39.7025L7.54993 38.5548L8.03945 38.5371C8.1742 38.5881 8.27565 38.7571 8.37679 39.044L8.59619 38.9765L8.02234 37.2042L7.81974 37.2375C7.92088 37.559 7.90408 37.8285 7.78614 37.9804C7.70149 38.0818 7.53251 38.1493 7.29631 38.2169L4.3256 39.1287L7.34672 34.3178ZM4.05548 41.9811L4.22415 41.8626L4.545 42.2849L5.06812 42.2677L8.39328 40.3433C8.59587 40.2082 8.68021 40.0906 8.68021 39.9384C8.68021 39.8027 8.62948 39.6005 8.51154 39.3639L8.68021 39.2631L10.0137 41.7782L9.8276 41.8791C9.75457 41.7346 9.65767 41.6035 9.54099 41.4913L9.00106 41.5246L5.6927 43.4497C5.4733 43.5505 5.38897 43.7195 5.38897 43.9056L5.55764 44.4113L5.38897 44.4956L4.05548 41.9811ZM10.1821 42.1663L10.0302 42.3013C10.1992 42.5379 10.2835 42.7068 10.3003 42.8416C10.2835 42.9595 10.1821 43.1456 9.97978 43.3479L7.46467 45.8126C7.24527 46.0314 7.0766 46.116 6.94154 46.0989C6.82329 46.0824 6.65461 45.9645 6.46883 45.8126L6.31696 45.9305L7.68437 47.4495L11.3637 46.0824L9.79399 49.8296L11.1443 51.3314L11.2622 51.1964L11.0092 50.69C10.975 50.5715 11.0257 50.4202 11.1947 50.2512L13.8785 47.6353C14.0811 47.4663 14.2164 47.3988 14.3176 47.3988C14.4862 47.3988 14.6384 47.5167 14.8239 47.7532L14.9758 47.6014L13.7266 46.2175L13.5916 46.3354C13.7773 46.5716 13.8953 46.791 13.8785 46.9771C13.8617 47.1455 13.7437 47.2973 13.5579 47.4834L10.9753 49.9814L12.9502 45.2892L12.7983 45.1202L8.12316 46.8757L10.8913 44.1745C11.0768 43.989 11.2118 43.9214 11.3469 43.989C11.4819 44.0403 11.617 44.124 11.7857 44.293L11.9378 44.1745L10.1821 42.1663Z" fill="black"/>
<path d="M5.38866 16.9834L5.23679 17.3886C5.2536 17.473 5.30432 17.5573 5.38866 17.6251L7.11021 18.6885C7.38033 18.2158 7.51508 17.8613 7.51508 17.5915C7.49828 17.3214 7.27888 17.0513 6.8569 16.7644C6.64951 16.6142 6.40356 16.5264 6.14798 16.5114C5.79384 16.4942 5.55764 16.6293 5.38866 16.9834V16.9834Z" fill="black"/>
</svg>
