<svg width="110" height="43" viewBox="0 0 110 43" fill="none" xmlns="http://www.w3.org/2000/svg">
<path fill-rule="evenodd" clip-rule="evenodd" d="M10.7288 24.248C10.8467 24.4445 10.9646 24.641 11.0432 24.7589C14.6195 29.6713 19.7678 37.8064 22.2044 42.3259H35.0161C34.1908 37.9243 33.9157 32.3044 33.9157 25.9379C33.9157 20.6324 34.1122 13.9907 34.5838 9.51054H22.9511C23.462 13.7549 23.7764 19.8071 23.7764 24.5624C23.7764 24.6366 23.7851 24.7108 23.7944 24.7892C23.8047 24.8768 23.8157 24.9695 23.8157 25.0733C23.7371 24.9161 23.6192 24.7196 23.5013 24.5624C20.4359 20.2001 16.8989 14.423 14.1872 9.54984H0.314398C0.746696 13.5584 0.864596 19.2962 0.864596 24.8768C0.864596 30.4966 0.589497 37.6099 0 42.3652H11.672C11.1218 37.6885 10.9253 30.7717 10.9253 25.2698C10.886 24.9947 10.8074 24.5231 10.7288 24.248ZM67.2812 9.54984H48.3388C41.5792 9.54984 36.6274 12.1043 36.6274 18.9425C36.6274 27.1169 45.352 29.1211 52.5045 30.3394C55.5201 30.842 59.2584 31.8391 61.0627 32.3203L61.0628 32.3203L61.1505 32.3437C61.6221 32.4616 61.7007 32.6188 61.7007 32.776C61.7007 32.8939 61.6221 33.0511 61.0719 33.0904C58.2423 33.2083 54.4695 33.1297 51.7185 33.0118C47.2384 32.8546 41.029 32.4616 37.3741 31.4398V42.3652H54.666C65.0019 42.3652 70.8968 40.4395 70.8968 32.0293C70.8968 25.6235 65.5914 22.5581 54.7053 20.6324C53.4378 20.4033 52.2593 20.198 51.1906 20.0118L51.1904 20.0118L51.1904 20.0117C49.5089 19.7188 48.0991 19.4731 47.0419 19.2569C46.531 19.1783 46.3738 19.0211 46.3738 18.8639C46.3738 18.7067 46.531 18.5495 47.0419 18.5495C51.8757 18.353 64.4517 18.8639 67.2812 19.925V9.54984ZM94.3981 42.3652H109.371C105.206 37.4134 98.839 28.4923 94.8304 22.0472C99.232 16.8596 103.437 12.065 105.874 9.54984H91.5685C89.5249 13.3619 86.3417 17.7635 83.237 21.5756C83.1894 21.6708 83.1274 21.766 83.0597 21.8699C83.0156 21.9376 82.9691 22.009 82.9226 22.0865C82.9619 17.4884 83.1191 12.851 83.4728 9.54984H72.3116C72.9011 13.3226 73.0976 20.9075 73.0976 25.9772C73.0976 31.7935 72.7832 38.8675 72.1937 42.4045H83.7872C83.6561 41.1198 83.6124 39.7826 83.5629 38.2646V38.2644L83.5629 38.2636C83.5382 37.5065 83.512 36.7044 83.4728 35.8414C84.8876 34.0729 86.3417 32.3044 87.7957 30.5359C89.9572 33.9943 92.8654 38.9068 94.3981 42.3652Z" fill="#E20031"/>
<path fill-rule="evenodd" clip-rule="evenodd" d="M60.7968 3.85138C60.7968 5.54127 59.6178 6.36657 58.2816 6.36657C56.0022 6.36657 54.6267 4.87318 54.6267 3.18328C54.6267 1.33619 56.0415 0 58.0851 0C58.7139 0 59.2641 0.235799 59.6571 0.432298C59.6702 0.432298 59.6833 0.436665 59.6964 0.441031C59.7226 0.449765 59.7488 0.458497 59.775 0.432298C59.8103 0.397029 59.8614 0.353846 59.9176 0.306302L59.9179 0.306066L59.9179 0.30605C59.987 0.247704 60.0638 0.182802 60.1287 0.117899H60.4431L60.5217 2.20079L60.168 2.24009C59.8536 1.37549 59.2641 0.353698 58.1244 0.353698C56.7882 0.353698 56.3559 1.45409 56.3559 3.02608C56.3559 3.96928 56.4738 4.63738 56.8275 5.14827C57.1419 5.65917 57.7314 5.97357 58.2816 5.97357C59.6571 5.97357 60.4038 5.03037 60.4038 3.85138H60.7968ZM37.5313 5.10897C37.5313 5.65917 37.1776 5.97357 36.4702 5.97357H36.5095V6.28797H39.1819V5.97357C38.3959 5.97357 38.0422 5.69847 38.0422 5.10897V1.53269L41.9722 6.28797H42.7975V1.29689C42.7975 0.785996 42.994 0.432298 43.78 0.432298V0.117899H41.1862V0.432298C42.0508 0.432298 42.3259 0.746696 42.3259 1.29689V4.28368L38.8282 0.117899H36.4702V0.432298C36.9418 0.432298 37.099 0.432298 37.5313 0.903895V5.10897ZM106.502 0.471598H105.874V2.35799H105.52V0.471598H104.93V0.157199H106.542L106.502 0.471598ZM107.957 1.80779L108.507 0.157199H109.057V2.39729H108.703V0.589497L108.074 2.39729H107.839L107.21 0.589497V2.39729H106.856V0.157199H107.406L107.957 1.80779ZM5.73776 6.28797H9.23545L9.27475 5.93427C8.48875 5.89497 8.29225 5.77707 8.29225 5.18757V1.06109C8.29225 0.668097 8.41015 0.432298 9.27475 0.432298V0.117899H6.32726L4.83387 4.44088L3.30118 0.117899H0.314392V0.432298C1.13969 0.432298 1.33619 0.668097 1.33619 1.06109V5.10897C1.33619 5.77707 0.982489 5.89497 0.314392 5.97357V6.28797H2.94748V5.97357C2.16148 5.89497 1.84708 5.73777 1.84708 5.10897V0.510897L3.92997 6.28797H4.71597L6.64166 0.550197V5.22687C6.64166 5.77707 6.48446 5.89497 5.73776 5.97357V6.28797ZM69.482 5.97357C70.1894 5.97357 70.5431 5.65917 70.5431 5.10897V0.903895C70.1108 0.432298 69.9536 0.432298 69.482 0.432298V0.117899H71.84L75.3377 4.28368V1.29689C75.3377 0.746696 75.0626 0.432298 74.198 0.432298V0.117899H76.7918V0.432298C76.0058 0.432298 75.8093 0.785996 75.8093 1.29689V6.28797H74.984L71.054 1.53269V5.10897C71.054 5.69847 71.4077 5.97357 72.1937 5.97357V6.28797H69.5213L69.482 5.97357ZM82.7654 5.97357V6.28797H79.1105V5.97357C79.9358 5.97357 80.1323 5.85567 80.1323 5.14827V0.432298C79.1105 0.432298 78.6389 0.510897 77.9708 2.35799L77.6957 2.31869L77.735 0.117899H84.1016L84.1802 2.27939L83.9051 2.31869C83.237 0.510898 82.7654 0.392998 81.7436 0.392998V5.14827C81.7436 5.81637 81.9008 5.97357 82.7654 5.97357ZM22.4795 6.28797V5.97357C21.6149 5.97357 21.4577 5.81637 21.4577 5.14827V0.392998C22.4795 0.392998 22.9511 0.510897 23.6192 2.31869L23.8943 2.27939L23.855 0.0785996H17.4491L17.4098 2.27939L17.6849 2.31869C18.3137 0.510897 18.746 0.392998 19.8071 0.392998V5.10897C19.8071 5.81637 19.6106 5.93427 18.7853 5.93427V6.28797H22.4795ZM97.3063 3.22258C97.3063 5.42337 96.4417 6.05217 95.6557 6.05217C94.8697 6.05217 94.0051 5.42337 94.0051 3.22258C94.0051 1.02179 94.8697 0.392998 95.6557 0.392998C96.4417 0.392998 97.3063 1.02179 97.3063 3.22258ZM92.2759 3.18328C92.2759 1.13969 94.123 0 95.6557 0C97.1884 0 99.0355 1.13969 99.0355 3.18328C99.0355 5.18757 97.1884 6.36657 95.6557 6.36657C94.123 6.36657 92.2759 5.22687 92.2759 3.18328ZM34.0336 3.22258C34.0336 5.42337 33.169 6.05217 32.383 6.05217C31.597 6.05217 30.7324 5.42337 30.7324 3.22258C30.7324 1.02179 31.597 0.392998 32.383 0.392998C33.169 0.392998 34.0336 1.02179 34.0336 3.22258ZM29.0032 3.18328C29.0032 1.13969 30.8503 0 32.383 0C33.9157 0.0392998 35.7628 1.17899 35.7628 3.18328C35.7628 5.18757 33.9157 6.36657 32.383 6.36657C30.811 6.36657 29.0032 5.22687 29.0032 3.18328ZM67.124 3.22258C67.124 5.42337 66.2595 6.05217 65.4735 6.05217C64.6875 6.05217 63.8229 5.42337 63.8229 3.22258C63.8229 1.02179 64.6875 0.392998 65.4735 0.392998C66.2595 0.392998 67.124 1.02179 67.124 3.22258ZM62.0937 3.18328C62.0937 1.13969 63.9408 0 65.4735 0C67.0061 0 68.8532 1.13969 68.8532 3.18328C68.8532 5.18757 67.0061 6.36657 65.4735 6.36657C63.9015 6.36657 62.0937 5.22687 62.0937 3.18328ZM14.9339 3.22258C14.9339 5.42337 14.0693 6.05217 13.2833 6.05217C12.4973 6.05217 11.6327 5.42337 11.6327 3.22258C11.6327 1.02179 12.4973 0.392998 13.2833 0.392998C14.0693 0.392998 14.9339 1.02179 14.9339 3.22258ZM9.90354 3.18328C9.90354 1.13969 11.7506 0 13.2833 0C14.816 0 16.6631 1.13969 16.6631 3.18328C16.6631 5.18757 14.816 6.36657 13.2833 6.36657C11.7506 6.36657 9.90354 5.22687 9.90354 3.18328ZM28.0993 5.97357V6.28797H24.6803V5.97357C25.427 5.97357 25.5842 5.77707 25.5842 5.30547V1.10039C25.5842 0.628797 25.427 0.432298 24.6803 0.432298V0.117899H28.0993V0.432298C27.3527 0.432298 27.1955 0.628797 27.1955 1.10039V5.30547C27.1955 5.77707 27.3527 5.97357 28.0993 5.97357ZM105.834 6.28797H99.7822V5.97357C100.568 5.93427 100.804 5.77707 100.804 5.30547V1.13969C100.804 0.628797 100.686 0.432298 99.7822 0.432298V0.117899H103.555V0.432298C102.533 0.432298 102.415 0.668096 102.415 1.13969V5.18757C102.415 5.73777 102.69 5.93427 103.241 5.93427C104.537 5.93427 105.245 5.18757 105.559 4.00858H105.913L105.834 6.28797ZM89.3284 1.76849C89.3284 2.59379 88.9354 2.98678 87.5599 2.98678V1.06109C87.5599 0.668097 87.7564 0.471598 88.228 0.471598C88.8961 0.471598 89.3284 1.10039 89.3284 1.76849ZM88.8175 3.30118C89.6428 3.34048 90.0751 3.96928 90.2716 4.55878C90.5074 5.42337 90.6646 5.54127 90.9397 5.54127C91.1362 5.54127 91.2934 5.30547 91.2934 4.91247H91.6471C91.6471 5.89497 91.0969 6.36657 90.2323 6.36657C89.2498 6.36657 88.8175 5.97357 88.7389 4.75528C88.6603 3.77278 88.4638 3.37978 87.5206 3.37978V5.10897C87.5206 5.77707 87.7957 5.97357 88.5031 5.97357V6.28797H84.9662V5.97357C85.8307 5.97357 85.9093 5.65917 85.9093 5.10897V1.25759C85.9093 0.589497 85.6343 0.432298 84.9662 0.432298V0.117899H88.4638C90.1144 0.117899 90.979 0.746696 90.979 1.72919C90.979 2.59379 90.1144 3.22258 88.8175 3.26188V3.30118ZM47.1598 4.71598C47.1598 5.38407 47.7885 5.97357 48.6531 5.97357C49.3605 5.97357 50.0286 5.69847 50.4609 5.14827L48.5352 3.18328C47.592 3.65488 47.1598 4.04788 47.1598 4.71598ZM48.8889 0.550197C49.4391 0.550197 49.7535 0.943195 49.7535 1.29689C49.7535 1.76849 49.3605 2.16149 48.6531 2.51519C48.1815 2.08289 47.9457 1.76849 47.9457 1.29689C47.9457 0.864596 48.378 0.550197 48.8889 0.550197ZM52.464 6.24867L52.5045 6.28797V6.24867H52.464ZM51.2076 5.03037L52.464 6.24867H51.6006L50.8539 5.50197C50.3823 6.09147 49.4784 6.48447 48.5745 6.48447C47.3955 6.48447 46.531 5.73777 46.531 4.75528C46.531 3.96928 46.924 3.34048 48.1029 2.75099C47.5527 2.20079 47.3169 1.88639 47.3169 1.33619C47.3169 0.550197 48.1029 0.0785996 48.8496 0.0785996C49.557 0.0785996 50.2644 0.589497 50.2644 1.33619C50.2644 1.92569 49.9893 2.39729 49.0068 2.90819L50.7753 4.63738C50.9325 4.32298 51.0111 3.96928 51.0111 3.53698H51.6006C51.5613 4.16578 51.4434 4.59808 51.2076 5.03037Z" fill="black"/>
</svg>
