<svg width="68" height="55" viewBox="0 0 68 55" fill="none" xmlns="http://www.w3.org/2000/svg">
<path fill-rule="evenodd" clip-rule="evenodd" d="M2.28651 25.284C2.49651 30.4045 3.70054 37.2085 7.86554 40.4215C13.2905 44.611 23.0765 43.8865 31.8615 43.8865C35.3335 43.8865 38.669 43.477 41.7665 42.721C41.1645 44.0615 40.3525 45.241 39.2605 46.081C35.3055 49.1365 28.169 48.6115 21.7605 48.6115C19.0145 48.6186 16.2803 48.2512 13.6335 47.5195L10.396 54.0225C10.396 54.0225 7.35804 49.672 5.33154 46.361C2.88154 42.357 0.165497 37.282 0.165497 33.754C0.165497 30.9225 0.715007 27.8425 2.28651 25.284V25.284Z" fill="#491F69"/>
<path fill-rule="evenodd" clip-rule="evenodd" d="M49.1025 39.2455C45.6655 40.208 37.8115 40.74 33.8705 40.74C25.0855 40.74 15.2995 41.461 9.87452 37.275C5.20902 33.67 4.26056 25.5675 4.26056 20.37C4.26056 14.21 5.23354 7.392 11.53 3.6575C16.717 0.5775 26.4855 0 33.8705 0C41.483 0 54.4995 0.5495 59.746 3.801C65.766 7.532 67.5685 14.364 67.5685 20.37C67.5685 25.207 62.812 34.587 59.9875 38.941C57.9586 42.0962 55.8079 45.1715 53.5405 48.16L49.1025 39.2455V39.2455Z" fill="#00C8A0"/>
</svg>
