<svg width="54" height="54" viewBox="0 0 54 54" fill="none" xmlns="http://www.w3.org/2000/svg">
<path d="M0 26.9991C0 12.0879 12.0888 0 27.0012 0C41.9131 0 54 12.0879 54 26.9991C54 41.9091 41.9131 54 27.0012 54C12.0888 54 0 41.9091 0 26.9991" fill="#009FDF"/>
<path d="M31.9405 2.81215V2.81324C31.9048 2.80683 31.8679 2.8 31.8326 2.8C31.5485 2.8 31.3141 3.03296 31.3141 3.31533C31.3141 3.54269 31.4643 3.73403 31.6684 3.80336V3.80636C40.1885 6.37397 48.9818 13.9144 48.9818 26.3789C48.9818 30.3986 47.8592 35.0113 45.8956 38.123C44.2851 40.68 41.3406 43.7554 36.4947 43.8788L36.3526 43.8817C34.7448 43.8817 33.0311 43.2832 31.5192 42.7567C29.9561 42.2086 28.3404 41.6429 26.8003 41.6429C25.2609 41.6429 23.6476 42.2086 22.0817 42.7567C20.5695 43.2832 18.8537 43.8817 17.2521 43.8817L17.1079 43.8788C12.2598 43.7554 9.3195 40.68 7.70535 38.123C5.74132 35.0113 4.61849 30.3986 4.61849 26.3789C4.61849 13.9144 13.4149 6.37397 21.9343 3.80636L21.9352 3.80336C22.1352 3.73403 22.2873 3.54269 22.2873 3.31533C22.2873 3.03296 22.0529 2.8 21.7694 2.8C21.7314 2.8 21.6942 2.80683 21.6626 2.81324V2.81215C10.3532 5.27754 2.25389 15.5432 2.40199 27.2192C2.50091 34.9424 5.14128 39.5505 7.33993 42.0536C9.98739 45.0716 13.5213 46.8 17.0387 46.8H17.0838C19.3619 46.7884 21.3025 46.1998 23.017 45.6812C24.4245 45.2572 25.6386 44.8888 26.8003 44.8888C27.963 44.8888 29.1773 45.2572 30.5855 45.6812C32.2983 46.1998 34.2388 46.7884 36.5156 46.8H36.5598C40.0765 46.8 43.6139 45.0716 46.2626 42.0536C48.4594 39.5505 51.101 34.9424 51.198 27.2192C51.3466 15.5432 43.2472 5.27754 31.9405 2.81215" fill="white"/>
<path d="M17.2548 41.6C19.2845 41.6 21.0097 41.0134 21.8532 40.6599C23.8368 39.8379 25.5807 39.4417 27.1985 39.4417C28.8134 39.4417 30.5642 39.8379 32.5446 40.6599C33.3896 41.0134 35.1143 41.6 37.1418 41.6C40.4091 41.6 43.0851 40.1284 45.1094 37.2257C45.1624 37.1426 45.2 37.0341 45.2 36.9268C45.2 36.6355 44.9656 36.4 44.6761 36.4C44.5552 36.4 44.4465 36.4376 44.3573 36.5044C42.3914 37.9708 40.3747 38.9511 38.2436 38.9511C36.7533 38.9511 35.2046 38.6153 33.5059 37.9257C31.1759 36.9827 29.1693 36.5429 27.1985 36.5429C25.2248 36.5429 23.2209 36.9827 20.8921 37.9257C19.1942 38.6153 17.6439 38.9511 16.1562 38.9511C14.0248 38.9511 12.0122 37.9708 10.0397 36.5044C9.95147 36.4376 9.84068 36.4 9.7232 36.4C9.43291 36.4 9.2 36.6355 9.2 36.9268C9.2 37.0341 9.23702 37.1426 9.29193 37.2257C11.3151 40.1284 13.9895 41.6 17.2548 41.6" fill="white"/>
<path d="M36.7073 48.3499C36.6813 48.3499 36.6594 48.3499 36.6358 48.3509C36.28 48.4064 35.9331 48.4349 35.6214 48.4375L35.3421 48.4417C33.3045 48.4417 32.4589 48.4532 31.1858 48.0799L30.3531 47.8396C29.3529 47.5549 28.1126 47.2 26.8011 47.2C25.4884 47.2 24.2475 47.5549 23.2508 47.8396L22.4185 48.0799C21.1389 48.4532 20.2962 48.4417 18.2599 48.4417L17.9825 48.4375C17.6673 48.4349 17.3206 48.4064 16.9627 48.3509C16.9412 48.3499 16.9168 48.3499 16.8976 48.3499C16.6249 48.3499 16.4 48.5511 16.4 48.8067C16.4 48.9912 16.5101 49.1453 16.6778 49.2148C19.6703 50.423 23.4926 51.1984 26.8011 51.2C30.1065 51.1984 33.9264 50.423 36.9226 49.2148C37.0899 49.1453 37.2 48.9912 37.2 48.8067C37.2 48.5511 36.9791 48.3499 36.7073 48.3499" fill="white"/>
<path d="M13.28 16.8H8.71725C8.32369 16.8 8 17.1258 8 17.5213C8 17.9196 8.32369 18.2466 8.71725 18.2466H10.2194V23.2141C10.2194 23.6532 10.5631 24 10.9991 24C11.4359 24 11.7802 23.6532 11.7802 23.2141V18.2466H13.28C13.6744 18.2466 14 17.9196 14 17.5213C14 17.1258 13.6744 16.8 13.28 16.8" fill="white"/>
<path d="M15.1412 16.4C14.7313 16.4 14.4 16.7436 14.4 17.165V22.8346C14.4 23.2572 14.7313 23.6 15.1412 23.6C15.5534 23.6 15.8835 23.2572 15.8835 22.8346V20.5248C15.8835 19.8002 16.2451 19.4269 16.8146 19.4269C17.3809 19.4269 17.7114 19.8002 17.7114 20.5248V22.8346C17.7114 23.2572 18.0478 23.6 18.459 23.6C18.8662 23.6 19.2 23.2572 19.2 22.8346V20.0432C19.2 18.8018 18.5476 18.0369 17.4224 18.0369C16.6699 18.0369 16.2291 18.4477 15.8835 18.9023V17.165C15.8835 16.7436 15.5534 16.4 15.1412 16.4" fill="white"/>
<path d="M27.5814 23.6C28.0118 23.6 28.3648 23.2549 28.3648 22.8295V20.5045C28.3648 19.7746 28.7254 19.3988 29.3077 19.3988C29.8937 19.3988 30.2221 19.7746 30.2221 20.5045V22.8295C30.2221 23.2549 30.5731 23.6 31.0067 23.6C31.434 23.6 31.7838 23.2549 31.7838 22.8295V20.5045C31.7838 19.7746 32.1413 19.3988 32.7278 19.3988C33.3131 19.3988 33.6401 19.7746 33.6401 20.5045V22.8295C33.6401 23.2549 33.9901 23.6 34.421 23.6C34.8532 23.6 35.2 23.2549 35.2 22.8295V19.9979C35.2 18.6898 34.5023 18 33.3438 18C32.5934 18 32.0187 18.3046 31.5397 18.8607C31.2507 18.314 30.7041 18 29.9851 18C29.1969 18 28.7254 18.4132 28.3648 18.8709V18.8117C28.3648 18.3842 28.0118 18.0404 27.5814 18.0404C27.1538 18.0404 26.8 18.3842 26.8 18.8117V22.8295C26.8 23.2549 27.1538 23.6 27.5814 23.6" fill="white"/>
<path d="M12.4 25.9722C12.4 26.0626 12.4298 26.1743 12.4623 26.2626L14.4374 31.7706C14.5811 32.1633 14.8734 32.4 15.2469 32.4H15.4091C15.7835 32.4 16.0676 32.17 16.2046 31.7706L17.6006 27.7573L18.9917 31.7706C19.1358 32.17 19.4158 32.4 19.791 32.4H19.9534C20.3282 32.4 20.6194 32.1633 20.7612 31.7706L22.7378 26.2626C22.7712 26.1743 22.8 26.0515 22.8 25.9629C22.8 25.5432 22.4567 25.2223 22.0324 25.2223C21.6506 25.2223 21.3877 25.4729 21.2852 25.7729L19.8827 30.0694L18.4684 25.8131C18.3468 25.4429 18.0752 25.2 17.6827 25.2H17.5607C17.1661 25.2 16.8915 25.4522 16.7726 25.8131L15.3606 30.0694L13.9547 25.7729C13.8538 25.4522 13.5605 25.2223 13.1972 25.2223C12.7645 25.2223 12.4 25.5432 12.4 25.9722" fill="white"/>
<path d="M30.3395 25.2C29.9222 25.2 29.5874 25.5363 29.5874 25.9505V26.6118H29.4439C29.0909 26.6118 28.8 26.8623 28.8 27.2178C28.8 27.5722 29.0909 27.8319 29.4439 27.8319H29.5874V30.4085C29.5874 31.6325 30.2124 32 31.1341 32C31.458 32 31.7171 31.9625 31.994 31.8515C32.2366 31.7546 32.4023 31.5314 32.3917 31.2636C32.3774 30.8958 32.1529 30.6926 31.7618 30.7447C31.6958 30.7538 31.5846 30.7621 31.536 30.7621C31.2002 30.7621 31.049 30.5952 31.049 30.2486V27.8319H31.7575C32.1131 27.8319 32.4 27.5722 32.4 27.2178C32.4 26.8623 32.1131 26.6118 31.7575 26.6118H31.049V25.9505C31.049 25.5363 30.7553 25.2 30.3395 25.2" fill="white"/>
<path d="M39.8736 27.8228V27.5746C39.8736 27.1469 39.5451 26.8 39.1359 26.8C38.7291 26.8 38.4 27.1469 38.4 27.5746V31.623C38.4 32.051 38.7291 32.4 39.1359 32.4C39.5451 32.4 39.8736 32.051 39.8736 31.623V30.1706C39.8736 29.0708 40.2934 28.4673 41.0372 28.2806C41.3386 28.2112 41.6 27.9605 41.6 27.5542C41.6 27.1134 41.329 26.8 40.8741 26.8C40.4369 26.8 40.0538 27.2947 39.8736 27.8228" fill="white"/>
<path fill-rule="evenodd" clip-rule="evenodd" d="M26.8223 31.6237C26.4549 32.1331 25.7258 32.4 25.1748 32.4C23.4658 32.4 22.4 31.1234 22.4 29.605C22.4 28.1741 23.3901 26.8 25.1211 26.8C25.8645 26.8 26.5049 27.1081 26.8223 27.5529C26.8804 27.0543 27.2535 26.8403 27.5934 26.8403C28.1177 26.8403 28.4 27.1942 28.4 27.6162V31.5981C28.4 32.0179 28.0576 32.3585 27.5998 32.3585C27.2268 32.3585 26.8659 32.1181 26.8223 31.6237ZM26.844 29.5784C26.844 28.5976 26.0714 28.1103 25.3937 28.1103C24.5625 28.1103 23.9576 28.6962 23.9576 29.5855C23.9576 30.327 24.5041 31.0752 25.3937 31.0752C26.3558 31.0752 26.844 30.3977 26.844 29.5784Z" fill="white"/>
<path fill-rule="evenodd" clip-rule="evenodd" d="M24.4222 22.8235C24.0547 23.3329 23.3256 23.6 22.7747 23.6C21.0658 23.6 20 22.3232 20 20.8047C20 19.3738 20.9903 18 22.7209 18C23.4642 18 24.1046 18.3081 24.4222 18.7525C24.4804 18.254 24.8531 18.0403 25.193 18.0403C25.7176 18.0403 26 18.3941 26 18.816V22.7978C26 23.2179 25.6573 23.5585 25.1995 23.5585C24.8267 23.5585 24.4657 23.3178 24.4222 22.8235ZM24.4438 20.7788C24.4438 19.7972 23.6715 19.3103 22.9935 19.3103C22.1626 19.3103 21.5575 19.8963 21.5575 20.7855C21.5575 21.527 22.1041 22.2749 22.9935 22.2749C23.9555 22.2749 24.4438 21.5972 24.4438 20.7788Z" fill="white"/>
<path fill-rule="evenodd" clip-rule="evenodd" d="M35.0175 26.8C36.7166 26.8 37.5344 28.1133 37.5975 29.2388C37.6292 29.8072 37.3633 30.1417 36.7621 30.1417H33.9101C34.0851 30.873 34.6181 31.1795 35.1957 31.1795C35.6502 31.1795 35.9543 31.0479 36.276 30.8143C36.6193 30.565 36.9948 30.6557 37.1617 30.8943C37.347 31.16 37.2941 31.517 37.0207 31.7558C36.5626 32.1558 35.9477 32.4 35.1712 32.4C33.4898 32.4 32.4 31.1929 32.4 29.5928C32.4 27.9154 33.6332 26.8 35.0175 26.8ZM35.0384 28.0215C34.5163 28.0215 34.0386 28.3763 33.8943 29.1079H36.1501C36.0348 28.3786 35.5839 28.0215 35.0384 28.0215Z" fill="white"/>
<path fill-rule="evenodd" clip-rule="evenodd" d="M38.2175 18C39.9164 18 40.7345 19.3133 40.7974 20.4388C40.8295 21.0074 40.5634 21.3415 39.962 21.3415H37.1104C37.2851 22.073 37.8177 22.3795 38.3957 22.3795C38.8502 22.3795 39.1543 22.2476 39.476 22.014C39.819 21.7649 40.1947 21.8555 40.3617 22.0944C40.5469 22.3597 40.4941 22.7166 40.2206 22.9558C39.7626 23.3554 39.1475 23.6 38.3714 23.6C36.6898 23.6 35.6 22.393 35.6 20.7928C35.6 19.1151 36.8332 18 38.2175 18ZM38.2381 19.2212C37.7167 19.2212 37.2386 19.5761 37.0943 20.3079H39.35C39.2347 19.5789 38.7836 19.2212 38.2381 19.2212Z" fill="white"/>
<path d="M43.7442 19.1838C44.0396 19.1908 44.5003 19.2942 44.9538 19.5318C45.1944 19.6581 45.575 19.6593 45.7566 19.3514C45.9438 19.0341 45.8541 18.6824 45.5623 18.4742C45.1669 18.1921 44.5761 18 43.7083 18C42.4603 18 41.6416 18.7701 41.6416 19.7078C41.6416 20.5599 42.1024 20.988 42.7613 21.2245C42.9869 21.3057 43.8572 21.4843 44.0382 21.5287C44.3493 21.6048 44.6265 21.7122 44.6144 21.9851C44.6012 22.2859 44.2338 22.4318 43.7514 22.4105C43.3099 22.3911 42.8804 22.2393 42.513 22.0575C42.261 21.9326 41.8504 21.9576 41.6742 22.2962C41.5019 22.6269 41.6534 22.9676 41.8862 23.1093C42.3149 23.3698 43.0398 23.6 43.7646 23.6C45.1949 23.6 46 22.8883 46 21.8615C46 21.0844 45.6236 20.6098 44.7487 20.3356C44.3745 20.2179 43.7013 20.054 43.4782 19.9822C43.2495 19.9093 43.0302 19.815 43.0337 19.5761C43.0373 19.3584 43.2475 19.1715 43.7442 19.1838" fill="white"/>
</svg>
