<svg width="342" height="57" viewBox="0 0 342 57" fill="none" xmlns="http://www.w3.org/2000/svg">
<path d="M57.0252 56.9934H55.2436L38.826 12.5115L24.4672 56.9934H22.5404L9.55411 14.986C8.36635 11.1852 7.50851 8.65127 7.00701 7.38432C6.60937 6.27377 5.90457 5.29895 4.97461 4.57327C4.14317 3.98598 2.76404 3.63625 0.82402 3.56367V1.73583H21.0821V3.55707C18.6273 3.72864 17.0568 4.09156 16.3574 4.64586C16.0207 4.91405 15.7528 5.25872 15.5761 5.65122C15.3994 6.04372 15.3188 6.47273 15.3412 6.90261C15.3412 7.77364 15.8955 10.0238 17.0107 13.6333L26.6448 45.0563L40.733 1.74242H42.9502L58.8135 45.063L67.0289 16.4048C68.1111 12.5577 68.6654 10.0304 68.6654 8.83604C68.6654 5.32552 66.7979 3.55707 63.0697 3.55707V1.74902H77.7584V3.57027C75.6006 3.74183 73.9905 4.56007 72.9215 6.00519C71.8525 7.44371 70.5064 10.8948 68.8897 16.3718L57.0252 56.9934ZM122.359 28.6256H94.209V41.6448C94.209 45.8878 94.3014 48.6724 94.4993 49.9724C94.7105 51.2855 95.245 52.2753 96.0962 52.922C96.9606 53.5555 98.6169 53.8656 101.045 53.8656H102.431V55.6869H78.1675V53.8656H79.5532C81.8496 53.8656 83.4465 53.5753 84.3505 52.9946C84.8093 52.6827 85.1982 52.2788 85.4924 51.8084C85.7866 51.3381 85.9798 50.8117 86.0596 50.2627C86.3235 49.0354 86.4555 46.1517 86.4555 41.6448V15.2038C86.4555 10.8882 86.3235 8.11018 86.0596 6.86962C85.8154 5.64226 85.2809 4.77783 84.4561 4.28953C83.6642 3.80782 81.8826 3.56367 79.1507 3.56367H78.1609V1.73583H102.431V3.55707H101.441C98.8281 3.55707 97.0992 3.78143 96.281 4.21034C95.4561 4.64586 94.8952 5.47069 94.6049 6.68486C94.3409 7.87262 94.209 10.7101 94.209 15.1972V25.8871H122.359V15.1972C122.359 10.8816 122.227 8.10358 121.996 6.86302C121.752 5.63566 121.224 4.77123 120.432 4.28293C119.634 3.80122 117.859 3.55707 115.12 3.55707H113.702V1.73583H138.255V3.55707H137.457C134.784 3.55707 133.036 3.78143 132.218 4.21034C131.419 4.64586 130.865 5.47069 130.581 6.68486C130.311 7.87262 130.185 10.7101 130.185 15.1972V41.6382C130.185 45.8812 130.271 48.6658 130.469 49.9658C130.667 51.2789 131.195 52.2687 132.072 52.9154C132.93 53.5489 134.593 53.859 137.021 53.859H138.255V55.6803H113.708V53.8656H115.556C117.832 53.8656 119.416 53.5753 120.287 52.9946C120.747 52.6834 121.137 52.2797 121.433 51.8093C121.728 51.339 121.922 50.8123 122.003 50.2627C122.234 49.0354 122.359 46.1517 122.359 41.6448V28.6256ZM161.14 55.1392V37.7846H163.139C165.383 49.0948 170.741 54.7433 179.174 54.7433C182.948 54.7433 185.891 53.6677 187.983 51.5033C190.062 49.3257 191.111 46.8974 191.111 44.2249C191.111 41.5194 190.181 39.2429 188.34 37.4282C186.525 35.6334 183.193 33.7 178.343 31.6082C173.994 29.7671 170.721 28.1505 168.524 26.7647C166.378 25.412 164.612 23.5365 163.39 21.3142C162.169 19.138 161.533 16.6828 161.542 14.1876C161.542 10.3603 162.862 7.15996 165.541 4.61946C168.2 2.05256 171.579 0.759216 175.65 0.759216C177.92 0.759216 180.071 1.14194 182.091 1.8876C184.116 2.61345 186.195 4.15095 188.307 6.4737C189.463 5.14462 190.186 3.49382 190.379 1.74242H192.127V15.8571H190.379C189.362 11.7659 187.561 8.5325 185.001 6.18336C182.624 3.87809 179.437 2.59848 176.125 2.62005C172.925 2.62005 170.569 3.49768 169.065 5.23314C167.554 6.962 166.808 8.86243 166.808 10.9476C166.808 13.4221 167.758 15.5205 169.645 17.2362C171.513 19.0112 174.865 20.9777 179.722 23.1288C184.354 25.2206 187.726 26.8901 189.837 28.1439C191.936 29.4108 193.625 31.1595 194.892 33.3898C196.172 35.6004 196.819 38.1739 196.819 41.0971C196.819 45.7096 195.275 49.4577 192.2 52.3413C189.118 55.2316 185.007 56.6635 179.867 56.6635C173.948 56.6635 169.012 54.4001 165.066 49.8668C164.195 51.1272 163.548 52.8956 163.139 55.1392H161.14ZM209.541 21.7827H209.937C210.716 23.5578 211.105 25.8409 211.105 28.6256C212.867 26.349 214.781 24.6399 216.813 23.4918C218.872 22.3568 221.089 21.7827 223.471 21.7827C226.137 21.7827 228.308 22.4096 229.984 23.6369C231.647 24.8577 232.821 26.6723 233.475 29.0941C235.481 26.6789 237.546 24.8577 239.658 23.6369C241.783 22.4096 243.96 21.7893 246.171 21.7893C248.685 21.7893 250.823 22.3766 252.571 23.5314C254.333 24.6927 255.409 26.0323 255.772 27.5302C256.128 29.0149 256.32 31.4168 256.32 34.736V44.5153C256.32 48.3029 256.385 50.6125 256.537 51.4307C256.591 51.8164 256.735 52.1842 256.956 52.5049C257.177 52.8256 257.47 53.0904 257.811 53.2783C258.51 53.6743 259.817 53.8656 261.737 53.8656V55.6869H245.478V53.8656C247.193 53.8656 248.408 53.6743 249.114 53.2849C249.448 53.1134 249.737 52.8658 249.958 52.5621C250.18 52.2584 250.327 51.9071 250.387 51.5363C250.552 50.7444 250.645 48.4019 250.645 44.5153V33.6406C250.645 31.4432 250.506 29.7803 250.249 28.6586C249.969 27.4994 249.265 26.4871 248.276 25.8211C247.207 25.0293 245.821 24.6201 244.132 24.6201C242.403 24.6201 240.667 25.214 238.932 26.3688C237.203 27.5302 235.468 29.2986 233.732 31.6478V44.5153C233.732 47.9928 233.778 50.1769 233.877 51.0678C233.905 51.4698 234.016 51.8616 234.204 52.2183C234.391 52.5751 234.651 52.8889 234.966 53.1398C235.613 53.6281 236.787 53.8656 238.463 53.8656V55.6869H222.706V53.8656C224.474 53.8656 225.708 53.6809 226.421 53.3179C226.751 53.1475 227.04 52.9058 227.266 52.6102C227.492 52.3147 227.65 51.9727 227.727 51.6089C227.892 50.8368 227.985 48.4745 227.985 44.5153V35.4618C227.985 32.6046 227.866 30.5326 227.655 29.2392C227.417 27.9282 226.688 26.7575 225.616 25.9663C224.402 25.0221 222.896 24.5319 221.36 24.5806C219.71 24.5806 218.027 25.1216 216.305 26.184C214.602 27.2332 212.874 28.8235 211.105 30.9483V44.5153C211.105 48.0786 211.151 50.3089 211.25 51.18C211.278 51.5788 211.398 51.9659 211.599 52.3114C211.801 52.6569 212.079 52.9516 212.412 53.1728C213.118 53.6347 214.352 53.8656 216.127 53.8656V55.6869H200.191V53.8656C201.933 53.8656 203.16 53.6743 203.866 53.2849C204.197 53.117 204.484 52.8747 204.705 52.577C204.926 52.2793 205.075 51.9343 205.14 51.5693C205.305 50.8038 205.397 48.4481 205.397 44.5153V34.769C205.397 31.0737 205.331 28.7971 205.212 27.9723C205.168 27.5824 205.034 27.2081 204.82 26.8793C204.605 26.5505 204.317 26.2763 203.979 26.0785C203.266 25.6495 201.999 25.4186 200.191 25.4186V23.571C203.952 23.2146 207.067 22.6141 209.541 21.7893V21.7827ZM266.475 5.16715C266.468 4.62018 266.57 4.07732 266.777 3.57069C266.983 3.06405 267.289 2.60393 267.676 2.21753C268.056 1.8209 268.513 1.50622 269.019 1.29287C269.525 1.07952 270.07 0.972018 270.619 0.976974C271.159 0.969091 271.694 1.07555 272.19 1.28936C272.686 1.50317 273.131 1.81949 273.496 2.21753C274.288 3.04237 274.697 4.02558 274.697 5.16056C274.705 5.71255 274.603 6.26058 274.396 6.77267C274.19 7.28477 273.884 7.75066 273.496 8.14317C273.132 8.54289 272.688 8.86033 272.191 9.07428C271.695 9.28822 271.159 9.39373 270.619 9.38373C270.069 9.39065 269.524 9.28404 269.018 9.07058C268.512 8.85711 268.055 8.54138 267.676 8.14317C267.287 7.75277 266.98 7.28819 266.774 6.77698C266.567 6.26577 266.466 5.71834 266.475 5.16715V5.16715ZM274.149 21.7827V44.5153C274.149 47.9928 274.195 50.1769 274.294 51.0678C274.332 51.4752 274.455 51.8701 274.655 52.227C274.855 52.584 275.128 52.8949 275.456 53.1398C276.102 53.6281 277.284 53.8656 278.986 53.8656H279.824V55.6869H262.291V53.8656H263.637C265.518 53.8656 266.745 53.6017 267.313 53.0672C267.869 52.5489 268.228 51.854 268.329 51.1008C268.422 50.3287 268.474 48.1313 268.474 44.5153V34.6238C268.474 30.8229 268.283 28.4936 267.927 27.6424C267.564 26.7977 267.069 26.2566 266.475 26.0389C265.894 25.8343 264.858 25.7089 263.38 25.7089H262.291V23.8943C267.009 23.4126 270.672 22.7065 273.278 21.7827H274.149ZM301.316 24.9501H291.484V44.6274C291.484 47.6628 291.603 49.7018 291.847 50.7378C292.111 51.7804 292.685 52.6383 293.563 53.2849C294.42 53.9184 295.344 54.2286 296.321 54.2286C298.234 54.2286 299.897 53.1398 301.303 50.9556L302.576 51.721C301.81 53.4001 300.524 54.7882 298.908 55.6803C297.304 56.5513 295.687 57 294.071 57C292.15 57 290.455 56.4325 289.01 55.3239C287.578 54.1824 286.674 52.8626 286.317 51.3581C285.954 49.8404 285.776 47.1745 285.776 43.3935V24.9501H281.045V23.0958C283.222 23.0497 285.176 22.139 286.905 20.364C288.62 18.5757 289.722 16.0748 290.21 12.8744H291.484V23.0958H301.303L301.316 24.9501Z" fill="#002E85"/>
<path d="M313.524 28.4803C315.114 26.25 316.909 24.5739 318.869 23.4587C320.855 22.3501 323.026 21.7827 325.382 21.7827C328.067 21.7827 330.291 22.3501 332.04 23.4587C333.802 24.5805 334.956 25.9596 335.497 27.6027C336.025 29.2326 336.289 31.8721 336.289 35.4948V44.5152C336.289 48.3293 336.368 50.652 336.514 51.4637C336.646 52.2951 337.074 52.9022 337.787 53.2849C338.506 53.6742 339.839 53.8656 341.786 53.8656V55.6868H324.946V53.8656H325.711C327.645 53.8656 328.892 53.595 329.46 53.0275C330.014 52.511 330.373 51.8186 330.476 51.0677C330.568 50.2891 330.621 48.1115 330.621 44.5152V34.7359C330.621 32.0239 330.449 30.0244 330.113 28.7311C329.781 27.4139 328.978 26.2638 327.856 25.4977C326.695 24.6465 325.217 24.2242 323.455 24.2242C321.363 24.2242 319.495 24.8313 317.852 26.0388C316.222 27.2266 314.777 29.0412 313.524 31.463V44.5152C313.524 48.1841 313.576 50.4409 313.708 51.2855C313.748 51.6771 313.877 52.0545 314.085 52.3885C314.293 52.7225 314.575 53.0044 314.909 53.2123C315.609 53.6478 316.882 53.8656 318.723 53.8656V55.6868H302.174V53.8656H302.979C304.892 53.8656 306.126 53.6016 306.687 53.0671C307.243 52.5489 307.602 51.854 307.704 51.1007C307.796 50.3287 307.849 48.1313 307.849 44.5152V12.0364C307.849 8.77 307.532 6.69141 306.905 5.81378C306.298 4.92296 304.807 4.47424 302.431 4.47424V2.653C306.549 2.653 309.967 2.09871 312.686 0.976929H313.524V28.4803Z" fill="#002E85"/>
</svg>
