<svg width="51" height="57" viewBox="0 0 51 57" fill="none" xmlns="http://www.w3.org/2000/svg">
<path fill-rule="evenodd" clip-rule="evenodd" d="M15.7805 2.58274V47.8817L13.5155 45.682V0.38446L15.7805 2.58274ZM20.3105 52.2782V6.97929L18.0455 4.78101V50.08L20.3105 52.2782ZM24.8433 11.3772V56.6748L22.5783 54.4779V9.17895L24.8433 11.3772ZM28.7699 47.6828V15.1884L26.5049 12.9901V45.4832L28.7699 47.6828ZM33.001 19.2916V51.7846L30.7332 49.5863V17.0933L33.001 19.2916ZM37.2293 55.8906V23.3975L34.9643 21.1993V53.6937L37.2293 55.8906ZM41.7621 48.3656V35.8975L39.4971 33.6993V46.1673L41.7621 48.3656ZM50.2215 56.5733V44.1053L47.9565 41.907V54.3736L50.2215 56.5733ZM45.9904 40.0021V52.4701L43.7254 50.2704V37.8024L45.9904 40.0021ZM11.7009 56.6525V32.7857L9.28437 30.4415V54.3083L11.7009 56.6525ZM7.16952 28.3892V52.256L4.75295 49.9103V26.0449L7.16952 28.3892ZM2.63949 47.8594V23.9912L0.221527 21.647V45.5124L2.63949 47.8594Z" fill="#CC2229"/>
</svg>
