<svg width="16" height="16" viewBox="0 0 16 16" fill="none" xmlns="http://www.w3.org/2000/svg">
<path fill-rule="evenodd" clip-rule="evenodd" d="M0 3.10252V0.00773712V0C8.82749 0 15.9872 7.14237 16 15.9613H12.9022C12.8724 8.85989 7.10835 3.11522 0 3.10252ZM0 5.42359V8.51837C1.98412 8.52042 3.88615 9.30981 5.28768 10.7129C6.68921 12.116 7.47543 14.0178 7.47338 16H10.5712C10.5773 13.1958 9.46606 10.5044 7.48269 8.52001C5.49932 6.53566 2.80696 5.42153 0 5.42359ZM2.12205 11.706C0.951133 11.7103 0.00497891 12.6613 0.00781888 13.8311C0.0106716 15.0009 0.961442 15.9473 2.13237 15.9459C3.30329 15.9444 4.25177 14.9957 4.25177 13.8259C4.2475 12.6539 3.29524 11.706 2.12205 11.706Z" fill="#BC3E31"/>
</svg>
