<svg xmlns="http://www.w3.org/2000/svg" width="24" height="24" viewBox="0 0 300 300">
    <title>Volume icon</title>
    <path d="M149.996 0C67.157 0 .001 67.161.001 149.997S67.157 300 149.996 300s150.003-67.163 150.003-150.003S232.835 0 149.996 0zm-.693 204.044h-.002v-.001a8.93 8.93 0 01-14.436 7.032l-29.289-22.945a17.584 17.584 0 01-4.235.537h-29.35c-9.627 0-17.431-7.807-17.431-17.429v-50.837c0-9.625 7.804-17.431 17.431-17.431h29.352c1.707 0 3.348.257 4.912.711l28.612-22.424a8.933 8.933 0 019.415-.999 8.925 8.925 0 015.021 8.027v115.759zm29.313-36.683l-9.788-9.788c2.256-3.084 3.608-6.87 3.608-10.979a18.58 18.58 0 00-4.331-11.936l9.713-9.713c5.177 5.745 8.362 13.323 8.362 21.649-.003 7.898-2.849 15.139-7.564 20.767zm12.691 12.693c7.944-8.901 12.781-20.624 12.781-33.46 0-13.264-5.166-25.334-13.585-34.334l9.716-9.716c10.903 11.495 17.613 26.997 17.613 44.049 0 16.625-6.37 31.792-16.793 43.188l-9.732-9.727zm33.078 32.786l-9.713-9.716c13.793-14.846 22.25-34.715 22.25-56.532 0-22.243-8.797-42.454-23.073-57.393l9.716-9.713c16.762 17.429 27.098 41.075 27.098 67.106.001 25.609-10 48.91-26.278 66.248z"/>
</svg>